Merriweather-TextSemiCndLightItalic.ufo
<glyph name="exclam" format="2">
  <advance width="394.82481751824815"/>
  <unicode hex="0021"/>
  <outline>
    <contour>
      <point x="285.2043795620438" y="1746.4087591240875" type="line"/>
      <point x="133.1970802919708" y="458.021897810219" type="line"/>
      <point x="232.1167883211679" y="458.021897810219" type="line"/>
      <point x="467.6569343065693" y="1746.4087591240875" type="line"/>
    </contour>
    <contour>
      <point x="28.182481751824817" y="88.95620437956204" type="curve" smooth="yes"/>
      <point x="22.357664233576642" y="23.313868613138688"/>
      <point x="60.68613138686131" y="-18.67153284671533"/>
      <point x="114.17518248175182" y="-18.67153284671533" type="curve" smooth="yes"/>
      <point x="175.67153284671534" y="-18.67153284671533"/>
      <point x="230.5036496350365" y="19.51094890510949"/>
      <point x="237.992700729927" y="95.16788321167883" type="curve" smooth="yes"/>
      <point x="244.64963503649636" y="153.8102189781022"/>
      <point x="218.32116788321167" y="207.62043795620437"/>
      <point x="149.007299270073" y="207.62043795620437" type="curve" smooth="yes"/>
      <point x="91.00729927007299" y="207.62043795620437"/>
      <point x="34.839416058394164" y="160.7810218978102"/>
    </contour>
  </outline>
</glyph>
<glyph name="numbersign" format="2">
  <advance width="1269.8613138686133"/>
  <unicode hex="0023"/>
  <outline>
    <contour>
      <point x="331.0" y="413.0" type="line"/>
      <point x="267.0" y="0.0" type="line"/>
      <point x="376.6058394160584" y="0.0" type="line"/>
      <point x="441.6058394160584" y="413.0" type="line"/>
      <point x="766.6058394160584" y="413.0" type="line"/>
      <point x="703.6058394160584" y="0.0" type="line"/>
      <point x="813.2116788321168" y="0.0" type="line"/>
      <point x="876.2116788321168" y="413.0" type="line"/>
      <point x="1124.2116788321168" y="413.0" type="line"/>
      <point x="1142.2116788321168" y="546.0" type="line"/>
      <point x="898.2116788321168" y="546.0" type="line"/>
      <point x="969.2116788321168" y="977.0" type="line"/>
      <point x="1202.2116788321168" y="977.0" type="line"/>
      <point x="1220.2116788321168" y="1108.0" type="line"/>
      <point x="987.2116788321168" y="1108.0" type="line"/>
      <point x="1057.2116788321168" y="1539.0" type="line"/>
      <point x="946.6058394160584" y="1539.0" type="line"/>
      <point x="876.6058394160584" y="1108.0" type="line"/>
      <point x="552.6058394160584" y="1108.0" type="line"/>
      <point x="620.6058394160584" y="1539.0" type="line"/>
      <point x="511.0" y="1539.0" type="line"/>
      <point x="443.0" y="1108.0" type="line"/>
      <point x="204.0" y="1108.0" type="line"/>
      <point x="186.0" y="977.0" type="line"/>
      <point x="422.0" y="977.0" type="line"/>
      <point x="352.0" y="546.0" type="line"/>
      <point x="127.0" y="546.0" type="line"/>
      <point x="109.0" y="413.0" type="line"/>
    </contour>
    <contour>
      <point x="788.6058394160584" y="546.0" type="line"/>
      <point x="460.6058394160584" y="546.0" type="line"/>
      <point x="532.6058394160584" y="977.0" type="line"/>
      <point x="858.6058394160584" y="977.0" type="line"/>
    </contour>
  </outline>
</glyph>
<glyph name="dollar" format="2">
  <advance width="1062.8686131386862"/>
  <unicode hex="0024"/>
  <outline>
    <contour>
      <point x="357.8905109489051" y="-229.7007299270073" type="line"/>
      <point x="480.4963503649635" y="-229.53284671532847" type="line"/>
      <point x="516.0" y="-20.0" type="line"/>
      <point x="762.8613138686131" y="-1.0"/>
      <point x="932.043795620438" y="176.1824817518248"/>
      <point x="932.043795620438" y="410.6715328467153" type="curve" smooth="yes"/>
      <point x="932.043795620438" y="626.6496350364963"/>
      <point x="786.8832116788321" y="719.4890510948906"/>
      <point x="647.3649635036496" y="812.992700729927" type="curve"/>
      <point x="510.3211678832117" y="899.6861313868613"/>
      <point x="384.17518248175185" y="976.1678832116788"/>
      <point x="384.17518248175185" y="1147.6423357664235" type="curve" smooth="yes"/>
      <point x="384.17518248175185" y="1310.1605839416059"/>
      <point x="500.7153284671533" y="1423.5401459854015"/>
      <point x="660.0656934306569" y="1423.5401459854015" type="curve" smooth="yes"/>
      <point x="738.4014598540145" y="1423.7080291970804"/>
      <point x="821.4087591240876" y="1397.2043795620439"/>
      <point x="860.7372262773723" y="1365.2043795620439" type="curve"/>
      <point x="879.7226277372263" y="1181.0" type="line"/>
      <point x="967.7153284671533" y="1181.0" type="line"/>
      <point x="1005.5474452554745" y="1423.5036496350365" type="line"/>
      <point x="961.5474452554745" y="1452.992700729927"/>
      <point x="883.5109489051094" y="1490.3357664233577"/>
      <point x="763.6496350364963" y="1502.0" type="curve"/>
      <point x="792.6569343065694" y="1688.3795620437957" type="line"/>
      <point x="669.7153284671533" y="1688.2116788321168" type="line"/>
      <point x="640.043795620438" y="1503.1605839416059" type="line"/>
      <point x="418.6861313868613" y="1483.3138686131388"/>
      <point x="244.68613138686132" y="1325.6423357664235"/>
      <point x="244.68613138686132" y="1093.6715328467153" type="curve" smooth="yes"/>
      <point x="244.68613138686132" y="872.6861313868613"/>
      <point x="406.7007299270073" y="774.1532846715329"/>
      <point x="541.8394160583941" y="682.8540145985402" type="curve"/>
      <point x="667.4963503649635" y="602.2043795620438"/>
      <point x="789.2189781021898" y="522.8759124087592"/>
      <point x="789.2189781021898" y="350.6934306569343" type="curve" smooth="yes"/>
      <point x="789.2189781021898" y="155.71532846715328"/>
      <point x="636.2189781021898" y="57.627737226277375"/>
      <point x="478.16058394160586" y="57.627737226277375" type="curve" smooth="yes"/>
      <point x="394.3138686131387" y="57.627737226277375"/>
      <point x="297.3138686131387" y="85.13868613138686"/>
      <point x="246.32846715328466" y="133.46715328467153" type="curve"/>
      <point x="238.007299270073" y="336.66423357664235" type="line"/>
      <point x="145.02189781021897" y="336.66423357664235" type="line"/>
      <point x="103.51094890510949" y="65.5036496350365" type="line"/>
      <point x="141.84671532846716" y="34.51094890510949"/>
      <point x="255.21167883211677" y="-7.5036496350364965"/>
      <point x="391.5620437956204" y="-20.16788321167883" type="curve"/>
    </contour>
  </outline>
</glyph>
<glyph name="percent" format="2">
  <advance width="1647.85401459854"/>
  <unicode hex="0025"/>
  <outline>
    <contour>
      <point x="412.021897810219" y="729.0" type="curve" smooth="yes"/>
      <point x="603.8102189781022" y="729.0"/>
      <point x="768.8613138686131" y="924.2773722627737"/>
      <point x="768.8613138686131" y="1168.3211678832117" type="curve" smooth="yes"/>
      <point x="768.8613138686131" y="1327.4963503649635"/>
      <point x="697.6934306569343" y="1443.0"/>
      <point x="539.6861313868613" y="1443.0" type="curve" smooth="yes"/>
      <point x="333.7080291970803" y="1443.0"/>
      <point x="175.5109489051095" y="1244.8832116788321"/>
      <point x="175.5109489051095" y="1017.1824817518249" type="curve" smooth="yes"/>
      <point x="175.5109489051095" y="850.9635036496351"/>
      <point x="260.7226277372263" y="729.0"/>
    </contour>
    <contour>
      <point x="432.5255474452555" y="800.2846715328467" type="curve" smooth="yes"/>
      <point x="342.7007299270073" y="800.2846715328467"/>
      <point x="299.51824817518246" y="889.7737226277372"/>
      <point x="299.51824817518246" y="1016.5182481751825" type="curve" smooth="yes"/>
      <point x="299.51824817518246" y="1191.7883211678832"/>
      <point x="383.04379562043795" y="1373.3795620437957"/>
      <point x="512.8467153284671" y="1373.3795620437957" type="curve" smooth="yes"/>
      <point x="600.5109489051094" y="1373.3795620437957"/>
      <point x="641.8613138686131" y="1291.2189781021898"/>
      <point x="641.8613138686131" y="1164.978102189781" type="curve" smooth="yes"/>
      <point x="641.8613138686131" y="992.7080291970804"/>
      <point x="564.4963503649635" y="800.2846715328467"/>
    </contour>
    <contour>
      <point x="1228.956204379562" y="1607.1678832116788" type="line"/>
      <point x="339.8759124087591" y="-84.87591240875912" type="line"/>
      <point x="453.53284671532845" y="-84.87591240875912" type="line"/>
      <point x="1342.7810218978102" y="1607.3357664233577" type="line"/>
    </contour>
    <contour>
      <point x="1166.6423357664235" y="62.0" type="curve" smooth="yes"/>
      <point x="1360.094890510949" y="62.0"/>
      <point x="1525.3211678832117" y="258.2773722627737"/>
      <point x="1525.3211678832117" y="501.985401459854" type="curve" smooth="yes"/>
      <point x="1525.3211678832117" y="663.8248175182482"/>
      <point x="1452.6496350364964" y="780.1605839416059"/>
      <point x="1293.4744525547446" y="780.1605839416059" type="curve" smooth="yes"/>
      <point x="1085.153284671533" y="780.1605839416059"/>
      <point x="928.6423357664233" y="580.3649635036496"/>
      <point x="928.6423357664233" y="352.3430656934307" type="curve" smooth="yes"/>
      <point x="928.6423357664233" y="184.79562043795622"/>
      <point x="1013.014598540146" y="62.0"/>
    </contour>
    <contour>
      <point x="1185.4817518248176" y="137.44525547445255" type="curve" smooth="yes"/>
      <point x="1096.4890510948906" y="137.44525547445255"/>
      <point x="1054.3138686131388" y="226.27007299270073"/>
      <point x="1054.3138686131388" y="350.84671532846716" type="curve" smooth="yes"/>
      <point x="1054.3138686131388" y="526.4525547445255"/>
      <point x="1137.4963503649635" y="705.5474452554745"/>
      <point x="1265.802919708029" y="705.5474452554745" type="curve" smooth="yes"/>
      <point x="1351.6350364963503" y="705.5474452554745"/>
      <point x="1393.1605839416059" y="625.2189781021898"/>
      <point x="1393.1605839416059" y="500.13868613138686" type="curve" smooth="yes"/>
      <point x="1393.1605839416059" y="328.86861313868616"/>
      <point x="1316.2846715328467" y="137.44525547445255"/>
    </contour>
  </outline>
</glyph>
<glyph name="ampersand" format="2">
  <advance width="1326.1167883211679"/>
  <unicode hex="0026"/>
  <outline>
    <contour>
      <point x="491.84671532846716" y="-16.0" type="curve" smooth="yes"/>
      <point x="617.1824817518249" y="-16.0"/>
      <point x="731.8394160583941" y="14.16058394160584"/>
      <point x="831.6715328467153" y="69.65693430656934" type="curve"/>
      <point x="903.4963503649635" y="6.839416058394161"/>
      <point x="969.5109489051094" y="-20.0"/>
      <point x="1059.992700729927" y="-20.0" type="curve" smooth="yes"/>
      <point x="1097.029197080292" y="-20.0"/>
      <point x="1148.6642335766423" y="-16.16058394160584"/>
      <point x="1206.14598540146" y="2.1751824817518246" type="curve"/>
      <point x="1210.6423357664235" y="68.46715328467154" type="line"/>
      <point x="1173.985401459854" y="64.2992700729927"/>
      <point x="1120.021897810219" y="70.62043795620438"/>
      <point x="1075.2116788321168" y="85.5985401459854" type="curve"/>
      <point x="1028.846715328467" y="97.24817518248176"/>
      <point x="989.8321167883212" y="122.27007299270073"/>
      <point x="955.3138686131387" y="153.4817518248175" type="curve"/>
      <point x="1060.3284671532847" y="255.14598540145985"/>
      <point x="1140.5109489051094" y="398.985401459854"/>
      <point x="1140.5109489051094" y="577.8394160583941" type="curve" smooth="yes"/>
      <point x="1140.5109489051094" y="610.3868613138686"/>
      <point x="1138.1751824817518" y="633.07299270073"/>
      <point x="1135.1751824817518" y="658.7226277372263" type="curve"/>
      <point x="1151.3430656934306" y="655.7226277372263"/>
      <point x="1168.846715328467" y="654.2262773722628"/>
      <point x="1186.846715328467" y="654.2262773722628" type="curve" smooth="yes"/>
      <point x="1222.153284671533" y="654.2262773722628"/>
      <point x="1266.978102189781" y="662.7226277372263"/>
      <point x="1305.3065693430658" y="682.7226277372263" type="curve"/>
      <point x="1306.1386861313867" y="788.9635036496351" type="line"/>
      <point x="1273.3065693430658" y="769.7956204379562"/>
      <point x="1224.1240875912408" y="764.4744525547445"/>
      <point x="1171.6569343065694" y="764.4744525547445" type="curve" smooth="yes"/>
      <point x="1062.6569343065694" y="764.4744525547445"/>
      <point x="1026.6715328467153" y="788.970802919708"/>
      <point x="932.6715328467153" y="788.970802919708" type="curve" smooth="yes"/>
      <point x="894.6715328467153" y="788.970802919708"/>
      <point x="864.6715328467153" y="783.6277372262774"/>
      <point x="849.5036496350365" y="767.6277372262774" type="curve"/>
      <point x="847.8394160583941" y="660.7226277372263" type="line"/>
      <point x="869.8394160583941" y="675.7226277372263"/>
      <point x="898.8467153284671" y="678.7226277372263"/>
      <point x="938.1605839416059" y="678.7226277372263" type="curve" smooth="yes"/>
      <point x="955.6788321167883" y="678.7226277372263"/>
      <point x="971.5255474452555" y="678.051094890511"/>
      <point x="987.1897810218978" y="675.2116788321168" type="curve"/>
      <point x="996.1897810218978" y="643.5693430656934"/>
      <point x="1004.8540145985402" y="603.7372262773723"/>
      <point x="1004.8540145985402" y="541.8759124087592" type="curve" smooth="yes"/>
      <point x="1004.8540145985402" y="407.4160583941606"/>
      <point x="964.3211678832117" y="295.46715328467155"/>
      <point x="894.0" y="210.31386861313868" type="curve"/>
      <point x="754.2189781021898" y="349.6350364963504"/>
      <point x="628.5036496350365" y="556.7007299270073"/>
      <point x="526.3357664233577" y="757.3430656934306" type="curve"/>
      <point x="716.4525547445255" y="861.9124087591241"/>
      <point x="968.3211678832117" y="999.7518248175182"/>
      <point x="968.3211678832117" y="1231.6715328467153" type="curve" smooth="yes"/>
      <point x="968.3211678832117" y="1366.3430656934306"/>
      <point x="884.6423357664233" y="1503.1678832116788"/>
      <point x="686.6569343065694" y="1503.1678832116788" type="curve" smooth="yes"/>
      <point x="463.992700729927" y="1503.1678832116788"/>
      <point x="285.4890510948905" y="1332.8394160583941"/>
      <point x="285.4890510948905" y="1094.8321167883212" type="curve" smooth="yes"/>
      <point x="285.4890510948905" y="985.3284671532847"/>
      <point x="323.6569343065693" y="857.1532846715329"/>
      <point x="370.18978102189783" y="751.6350364963504" type="curve"/>
      <point x="152.08759124087592" y="633.8321167883212"/>
      <point x="41.33576642335766" y="513.8467153284671"/>
      <point x="41.33576642335766" y="340.62773722627736" type="curve" smooth="yes"/>
      <point x="41.33576642335766" y="113.44525547445255"/>
      <point x="227.8832116788321" y="-16.0"/>
    </contour>
    <contour>
      <point x="524.992700729927" y="66.96350364963504" type="curve" smooth="yes"/>
      <point x="316.51824817518246" y="66.96350364963504"/>
      <point x="194.65693430656935" y="176.98540145985402"/>
      <point x="194.65693430656935" y="348.8321167883212" type="curve" smooth="yes"/>
      <point x="194.65693430656935" y="477.6788321167883"/>
      <point x="261.1678832116788" y="584.8759124087592"/>
      <point x="401.5036496350365" y="683.5182481751825" type="curve"/>
      <point x="514.5693430656934" y="472.5839416058394"/>
      <point x="595.7445255474453" y="313.7810218978102"/>
      <point x="771.1824817518249" y="125.15328467153284" type="curve"/>
      <point x="713.1678832116788" y="94.31386861313868"/>
      <point x="628.1678832116788" y="66.96350364963504"/>
    </contour>
    <contour>
      <point x="496.51824817518246" y="817.970802919708" type="curve"/>
      <point x="469.1459854014599" y="889.8613138686131"/>
      <point x="425.8175182481752" y="992.5255474452555"/>
      <point x="425.8175182481752" y="1114.5328467153286" type="curve" smooth="yes"/>
      <point x="425.8175182481752" y="1313.043795620438"/>
      <point x="542.3065693430657" y="1426.043795620438"/>
      <point x="663.4890510948906" y="1426.043795620438" type="curve" smooth="yes"/>
      <point x="773.4525547445255" y="1426.043795620438"/>
      <point x="826.8321167883212" y="1328.941605839416"/>
      <point x="826.8321167883212" y="1219.029197080292" type="curve" smooth="yes"/>
      <point x="826.8321167883212" y="1011.3138686131387"/>
      <point x="632.1751824817518" y="903.3065693430657"/>
    </contour>
  </outline>
</glyph>
<glyph name="quotesingle" format="2">
  <advance width="510.1240875912409"/>
  <unicode hex="0027"/>
  <outline>
    <contour>
      <point x="332.992700729927" y="1647.3284671532847" type="line"/>
      <point x="247.66423357664235" y="944.0" type="line"/>
      <point x="350.26277372262774" y="944.0" type="line"/>
      <point x="503.62773722627736" y="1647.3284671532847" type="line"/>
    </contour>
  </outline>
</glyph>
<glyph name="parenleft" format="2">
  <advance width="807.2992700729927"/>
  <unicode hex="0028"/>
  <outline>
    <contour>
      <point x="181.05839416058393" y="558.6204379562043" type="curve" smooth="yes"/>
      <point x="181.05839416058393" y="30.875912408759124"/>
      <point x="449.2116788321168" y="-259.08029197080293"/>
      <point x="520.5401459854014" y="-306.57664233576645" type="curve"/>
      <point x="599.6642335766423" y="-260.7664233576642" type="line"/>
      <point x="519.5036496350365" y="-198.1167883211679"/>
      <point x="336.5109489051095" y="95.67883211678833"/>
      <point x="336.5109489051095" y="559.4160583941606" type="curve" smooth="yes"/>
      <point x="336.5109489051095" y="992.7153284671533"/>
      <point x="541.1605839416059" y="1443.3357664233577"/>
      <point x="867.014598540146" y="1642.978102189781" type="curve"/>
      <point x="802.8905109489051" y="1688.6131386861314" type="line"/>
      <point x="433.86131386861314" y="1489.1167883211679"/>
      <point x="181.05839416058393" y="1031.109489051095"/>
    </contour>
  </outline>
</glyph>
<glyph name="asterisk" format="2">
  <advance width="1047.1313868613138"/>
  <unicode hex="002A"/>
  <outline>
    <contour>
      <point x="160.7007299270073" y="961.8467153284671" type="line"/>
      <point x="216.5182481751825" y="831.8832116788321" type="line"/>
      <point x="480.1021897810219" y="1015.8248175182482" type="line"/>
      <point x="579.7810218978102" y="1094.5109489051094" type="line"/>
      <point x="552.5912408759124" y="975.3211678832117" type="line"/>
      <point x="495.7664233576642" y="661.5912408759124" type="line"/>
      <point x="634.0656934306569" y="661.5912408759124" type="line"/>
      <point x="632.0802919708029" y="974.6569343065694" type="line"/>
      <point x="627.5693430656934" y="1095.3430656934306" type="line"/>
      <point x="708.7445255474453" y="1015.992700729927" type="line"/>
      <point x="929.8394160583941" y="827.8978102189781" type="line"/>
      <point x="1013.3211678832117" y="958.6934306569343" type="line"/>
      <point x="756.7372262773723" y="1090.14598540146" type="line"/>
      <point x="653.5474452554745" y="1136.3065693430658" type="line"/>
      <point x="769.2335766423357" y="1181.802919708029" type="line"/>
      <point x="1055.6423357664235" y="1313.2627737226278" type="line"/>
      <point x="999.8248175182482" y="1443.2262773722628" type="line"/>
      <point x="736.2408759124088" y="1257.6204379562043" type="line"/>
      <point x="634.8978102189781" y="1178.934306569343" type="line"/>
      <point x="662.9197080291971" y="1301.4525547445255" type="line"/>
      <point x="719.5766423357665" y="1616.846715328467" type="line"/>
      <point x="580.4452554744526" y="1616.846715328467" type="line"/>
      <point x="580.9343065693431" y="1302.1167883211679" type="line"/>
      <point x="589.6058394160584" y="1178.934306569343" type="line"/>
      <point x="504.2700729927007" y="1257.4525547445255" type="line"/>
      <point x="279.84671532846716" y="1445.5474452554745" type="line"/>
      <point x="196.36496350364965" y="1315.5839416058395" type="line"/>
      <point x="457.1094890510949" y="1181.6350364963503" type="line"/>
      <point x="562.6277372262774" y="1136.3065693430658" type="line"/>
      <point x="445.44525547445255" y="1091.6423357664235" type="line"/>
    </contour>
  </outline>
</glyph>
<glyph name="plus" format="2">
  <advance width="1106.014598540146"/>
  <unicode hex="002B"/>
  <outline>
    <contour>
      <point x="471.1970802919708" y="396.55474452554745" type="line"/>
      <point x="442.5255474452555" y="177.74452554744525" type="line"/>
      <point x="568.6423357664233" y="177.74452554744525" type="line"/>
      <point x="597.3138686131387" y="396.55474452554745" type="line"/>
      <point x="613.8321167883212" y="575.2627737226277" type="line"/>
      <point x="734.2627737226277" y="570.2700729927008" type="line"/>
      <point x="942.7080291970802" y="570.2700729927008" type="line"/>
      <point x="956.0364963503649" y="690.2116788321168" type="line"/>
      <point x="750.9197080291971" y="690.2116788321168" type="line"/>
      <point x="628.3211678832117" y="683.5547445255474" type="line"/>
      <point x="658.6569343065694" y="862.5985401459855" type="line"/>
      <point x="685.3284671532847" y="1082.2335766423357" type="line"/>
      <point x="559.2116788321168" y="1082.2335766423357" type="line"/>
      <point x="529.2116788321168" y="862.5985401459855" type="line"/>
      <point x="513.5255474452555" y="683.5547445255474" type="line"/>
      <point x="369.0875912408759" y="690.2116788321168" type="line"/>
      <point x="186.13138686131387" y="690.2116788321168" type="line"/>
      <point x="171.97080291970804" y="570.2700729927008" type="line"/>
      <point x="352.43065693430657" y="570.2700729927008" type="line"/>
      <point x="500.1970802919708" y="575.2627737226277" type="line"/>
    </contour>
  </outline>
</glyph>
<glyph name="comma" format="2">
  <advance width="352.17518248175185"/>
  <unicode hex="002C"/>
  <outline>
    <contour>
      <point x="-1.7737226277372269" y="122.30656934306569" type="line"/>
      <point x="-2.2773722627737234" y="77.48905109489051" type="line"/>
      <point x="53.54014598540146" y="57.31386861313869"/>
      <point x="82.37956204379562" y="-26.16788321167883"/>
      <point x="82.37956204379562" y="-122.98540145985402" type="curve" smooth="yes"/>
      <point x="82.37956204379562" y="-260.5839416058394"/>
      <point x="3.10948905109489" y="-385.6058394160584"/>
      <point x="-90.89781021897811" y="-438.7810218978102" type="curve"/>
      <point x="-93.89781021897811" y="-456.6131386861314" type="line"/>
      <point x="-58.25547445255474" y="-498.7445255474453" type="line"/>
      <point x="99.06569343065694" y="-441.5839416058394"/>
      <point x="220.02189781021897" y="-244.25547445255475"/>
      <point x="220.02189781021897" y="-60.496350364963504" type="curve" smooth="yes"/>
      <point x="220.02189781021897" y="52.48905109489051"/>
      <point x="184.86861313868613" y="147.45985401459853"/>
      <point x="99.39416058394161" y="209.2992700729927" type="curve"/>
    </contour>
  </outline>
</glyph>
<glyph name="hyphen" format="2">
  <advance width="1021.3211678832117"/>
  <unicode hex="002D"/>
  <outline>
    <contour>
      <point x="874.007299270073" y="686.3795620437957" type="line"/>
      <point x="185.46715328467153" y="686.3795620437957" type="line"/>
      <point x="170.13868613138686" y="573.0948905109489" type="line"/>
      <point x="858.6788321167883" y="573.0948905109489" type="line"/>
    </contour>
  </outline>
</glyph>
<glyph name="period" format="2">
  <advance width="404.2700729927007"/>
  <unicode hex="002E"/>
  <outline>
    <contour>
      <point x="34.98540145985402" y="88.95620437956204" type="curve" smooth="yes"/>
      <point x="28.32846715328467" y="23.313868613138688"/>
      <point x="67.48905109489051" y="-18.67153284671533"/>
      <point x="120.97810218978103" y="-18.67153284671533" type="curve" smooth="yes"/>
      <point x="182.47445255474452" y="-18.67153284671533"/>
      <point x="237.3065693430657" y="19.51094890510949"/>
      <point x="244.79562043795622" y="95.16788321167883" type="curve" smooth="yes"/>
      <point x="250.62043795620437" y="153.8102189781022"/>
      <point x="225.12408759124088" y="207.62043795620437"/>
      <point x="155.8102189781022" y="207.62043795620437" type="curve" smooth="yes"/>
      <point x="97.81021897810218" y="207.62043795620437"/>
      <point x="41.64233576642336" y="160.7810218978102"/>
    </contour>
  </outline>
</glyph>
<glyph name="slash" format="2">
  <advance width="789.1313868613139"/>
  <unicode hex="002F"/>
  <outline>
    <contour>
      <point x="-114.4963503649635" y="-354.0" type="line"/>
      <point x="14.627737226277372" y="-354.0" type="line"/>
      <point x="856.6277372262774" y="1560.0" type="line"/>
      <point x="727.5036496350365" y="1560.0" type="line"/>
    </contour>
  </outline>
</glyph>
<glyph name="one" format="2">
  <advance width="756.8467153284671"/>
  <unicode hex="0031"/>
  <anchor x="419.33576642335765" y="1660.0" name="top"/>
  <outline>
    <contour>
      <point x="40.13138686131387" y="65.95620437956204" type="line"/>
      <point x="30.970802919708028" y="0.0" type="line"/>
      <point x="654.5328467153284" y="0.0" type="line"/>
      <point x="662.029197080292" y="65.95620437956204" type="line"/>
      <point x="429.91970802919707" y="89.46715328467154" type="line"/>
      <point x="612.2700729927008" y="1486.5036496350365" type="line"/>
      <point x="538.4087591240876" y="1504.6715328467153" type="line"/>
      <point x="436.9270072992701" y="1430.6423357664235"/>
      <point x="278.66423357664235" y="1338.5036496350365"/>
      <point x="140.66423357664235" y="1304.978102189781" type="curve"/>
      <point x="151.4890510948905" y="1230.1824817518248" type="line"/>
      <point x="257.4890510948905" y="1250.1824817518248"/>
      <point x="357.94890510948903" y="1285.3430656934306"/>
      <point x="429.6131386861314" y="1311.021897810219" type="curve"/>
      <point x="269.5985401459854" y="87.8029197080292" type="line"/>
    </contour>
  </outline>
</glyph>
<glyph name="two" format="2">
  <advance width="1000.3138686131387"/>
  <unicode hex="0032"/>
  <outline>
    <contour>
      <point x="-5.649635036496351" y="0.0" type="line"/>
      <point x="838.8394160583941" y="0.0" type="line"/>
      <point x="913.3503649635037" y="280.53284671532845" type="line"/>
      <point x="839.3722627737226" y="307.5255474452555" type="line"/>
      <point x="749.6788321167883" y="135.007299270073" type="line"/>
      <point x="153.3065693430657" y="90.97810218978103" type="line"/>
      <point x="408.978102189781" y="278.985401459854"/>
      <point x="960.1386861313869" y="749.978102189781"/>
      <point x="960.1386861313869" y="1128.3503649635036" type="curve" smooth="yes"/>
      <point x="960.1386861313869" y="1339.2262773722628"/>
      <point x="826.6058394160584" y="1494.5036496350365"/>
      <point x="591.1459854014598" y="1494.5036496350365" type="curve" smooth="yes"/>
      <point x="400.13868613138686" y="1494.5036496350365"/>
      <point x="222.5109489051095" y="1374.5109489051094"/>
      <point x="168.62773722627736" y="1298.8102189781023" type="curve"/>
      <point x="207.6058394160584" y="1229.846715328467" type="line"/>
      <point x="251.5109489051095" y="1294.8613138686133"/>
      <point x="402.45985401459853" y="1386.1824817518248"/>
      <point x="538.6496350364963" y="1386.1824817518248" type="curve" smooth="yes"/>
      <point x="723.1532846715329" y="1386.1824817518248"/>
      <point x="795.1386861313869" y="1278.985401459854"/>
      <point x="795.1386861313869" y="1120.4671532846714" type="curve" smooth="yes"/>
      <point x="795.1386861313869" y="755.6350364963504"/>
      <point x="277.7080291970803" y="251.68613138686132"/>
      <point x="-19.474452554744527" y="64.12408759124088" type="curve"/>
    </contour>
  </outline>
</glyph>
<glyph name="three" format="2">
  <advance width="922.0948905109489"/>
  <unicode hex="0033"/>
  <outline>
    <contour>
      <point x="197.0" y="-7.678832116788321" type="curve" smooth="yes"/>
      <point x="504.8175182481752" y="-7.678832116788321"/>
      <point x="833.3211678832117" y="195.2919708029197"/>
      <point x="833.3211678832117" y="502.46715328467155" type="curve" smooth="yes"/>
      <point x="833.3211678832117" y="669.6131386861314"/>
      <point x="745.2554744525547" y="808.6715328467153"/>
      <point x="502.84671532846716" y="796.4744525547445" type="curve"/>
      <point x="690.0" y="864.1532846715329"/>
      <point x="850.3138686131387" y="1048.5182481751824"/>
      <point x="850.3138686131387" y="1212.029197080292" type="curve" smooth="yes"/>
      <point x="850.3138686131387" y="1400.6934306569342"/>
      <point x="709.1313868613139" y="1497.8321167883212"/>
      <point x="553.1167883211679" y="1497.8321167883212" type="curve" smooth="yes"/>
      <point x="366.6788321167883" y="1497.8321167883212"/>
      <point x="215.01459854014598" y="1406.1824817518248"/>
      <point x="147.79562043795622" y="1336.3065693430658" type="curve"/>
      <point x="177.7810218978102" y="1259.5182481751824" type="line"/>
      <point x="257.94890510948903" y="1324.029197080292"/>
      <point x="362.6569343065693" y="1388.3503649635036"/>
      <point x="492.64233576642334" y="1388.3503649635036" type="curve" smooth="yes"/>
      <point x="608.1532846715329" y="1388.3503649635036"/>
      <point x="685.8321167883212" y="1322.3576642335765"/>
      <point x="685.8321167883212" y="1192.8394160583941" type="curve" smooth="yes"/>
      <point x="685.8321167883212" y="1012.3357664233577"/>
      <point x="489.3649635036496" y="844.8394160583941"/>
      <point x="255.1167883211679" y="786.4890510948906" type="curve"/>
      <point x="244.12408759124088" y="694.1970802919708" type="line"/>
      <point x="266.95620437956205" y="702.1970802919708"/>
      <point x="361.0729927007299" y="728.014598540146"/>
      <point x="385.0729927007299" y="738.014598540146" type="curve"/>
      <point x="582.7810218978102" y="738.3503649635037"/>
      <point x="665.014598540146" y="638.1751824817518"/>
      <point x="665.014598540146" y="480.1678832116788" type="curve" smooth="yes"/>
      <point x="665.014598540146" y="237.14598540145985"/>
      <point x="427.2846715328467" y="85.60583941605839"/>
      <point x="180.32116788321167" y="85.60583941605839" type="curve" smooth="yes"/>
      <point x="134.15328467153284" y="85.60583941605839"/>
      <point x="79.94890510948905" y="90.1094890510949"/>
      <point x="40.27007299270073" y="97.45255474452554" type="curve"/>
      <point x="25.94890510948905" y="9.175182481751825" type="line"/>
      <point x="79.45255474452554" y="-1.0072992700729926"/>
      <point x="137.4890510948905" y="-7.678832116788321"/>
    </contour>
  </outline>
</glyph>
<glyph name="four" format="2">
  <advance width="1064.7664233576643"/>
  <unicode hex="0034"/>
  <outline>
    <contour>
      <point x="600.6569343065694" y="0.0" type="line"/>
      <point x="755.1459854014598" y="0.0" type="line"/>
      <point x="809.970802919708" y="361.3211678832117" type="line"/>
      <point x="1005.6131386861314" y="361.3211678832117" type="line"/>
      <point x="1022.7737226277372" y="491.82481751824815" type="line"/>
      <point x="826.7956204379562" y="480.1459854014599" type="line"/>
      <point x="888.7883211678832" y="879.0" type="line"/>
      <point x="741.4671532846716" y="832.0" type="line"/>
      <point x="670.3065693430657" y="472.978102189781" type="line"/>
      <point x="152.72992700729927" y="442.44525547445255" type="line"/>
      <point x="191.56934306569343" y="494.7664233576642"/>
      <point x="236.25547445255475" y="549.2846715328467"/>
      <point x="272.7883211678832" y="603.8175182481751" type="curve"/>
      <point x="430.45985401459853" y="862.2481751824818"/>
      <point x="600.3284671532847" y="1170.007299270073"/>
      <point x="710.5182481751825" y="1414.3430656934306" type="curve"/>
      <point x="590.5328467153284" y="1487.0" type="line"/>
      <point x="557.3722627737226" y="1487.0" type="line"/>
      <point x="354.48175182481754" y="1003.8248175182482"/>
      <point x="188.02189781021897" y="667.007299270073"/>
      <point x="34.66423357664234" y="437.3065693430657" type="curve"/>
      <point x="68.98540145985402" y="361.3211678832117" type="line"/>
      <point x="655.3138686131387" y="361.3211678832117" type="line"/>
    </contour>
  </outline>
</glyph>
<glyph name="five" format="2">
  <advance width="976.7883211678832"/>
  <unicode hex="0035"/>
  <outline>
    <contour>
      <point x="69.67153284671532" y="80.45985401459853" type="curve"/>
      <point x="60.51094890510949" y="1.832116788321168" type="line"/>
      <point x="93.84671532846716" y="-8.0"/>
      <point x="146.33576642335765" y="-14.0"/>
      <point x="184.5182481751825" y="-14.0" type="curve" smooth="yes"/>
      <point x="574.5547445255474" y="-14.0"/>
      <point x="885.0" y="256.6861313868613"/>
      <point x="885.0" y="567.4963503649635" type="curve" smooth="yes"/>
      <point x="885.0" y="803.014598540146"/>
      <point x="760.1532846715329" y="932.0"/>
      <point x="556.4817518248175" y="932.0" type="curve" smooth="yes"/>
      <point x="458.44525547445255" y="932.0"/>
      <point x="347.0729927007299" y="901.9635036496351"/>
      <point x="286.6788321167883" y="868.2335766423357" type="curve"/>
      <point x="415.94160583941607" y="1350.014598540146" type="line"/>
      <point x="933.1459854014598" y="1350.014598540146" type="line"/>
      <point x="978.978102189781" y="1512.0" type="line"/>
      <point x="881.5401459854014" y="1512.0" type="line"/>
      <point x="852.3722627737226" y="1486.0" type="line"/>
      <point x="309.94890510948903" y="1486.0" type="line"/>
      <point x="155.62773722627736" y="798.5036496350365" type="line"/>
      <point x="194.8175182481752" y="765.6496350364963" type="line"/>
      <point x="266.54744525547443" y="799.5255474452555"/>
      <point x="368.84671532846716" y="834.5182481751825"/>
      <point x="458.007299270073" y="834.5182481751825" type="curve" smooth="yes"/>
      <point x="643.3211678832117" y="834.5182481751825"/>
      <point x="717.1970802919708" y="727.6861313868613"/>
      <point x="715.5182481751825" y="573.7883211678832" type="curve" smooth="yes"/>
      <point x="713.3357664233577" y="261.18978102189783"/>
      <point x="448.0729927007299" y="70.2919708029197"/>
      <point x="158.37226277372264" y="70.2919708029197" type="curve" smooth="yes"/>
      <point x="129.1897810218978" y="70.2919708029197"/>
      <point x="98.00729927007299" y="75.2919708029197"/>
    </contour>
  </outline>
</glyph>
<glyph name="six" format="2">
  <advance width="1071.1240875912408"/>
  <unicode hex="0036"/>
  <outline>
    <contour>
      <point x="482.51824817518246" y="-20.0" type="curve" smooth="yes"/>
      <point x="784.3576642335767" y="-20.0"/>
      <point x="996.4890510948906" y="282.007299270073"/>
      <point x="996.4890510948906" y="580.6350364963504" type="curve" smooth="yes"/>
      <point x="996.4890510948906" y="789.2043795620438"/>
      <point x="880.6058394160584" y="954.0"/>
      <point x="653.1459854014598" y="954.0" type="curve" smooth="yes"/>
      <point x="487.036496350365" y="954.0"/>
      <point x="368.1824817518248" y="870.0364963503649"/>
      <point x="301.48175182481754" y="791.6204379562043" type="curve"/>
      <point x="389.97080291970804" y="1075.007299270073"/>
      <point x="621.0948905109489" y="1357.036496350365"/>
      <point x="904.5109489051094" y="1464.3649635036497" type="curve"/>
      <point x="880.8540145985402" y="1534.0" type="line"/>
      <point x="439.83941605839414" y="1406.7226277372263"/>
      <point x="91.34306569343066" y="932.5766423357665"/>
      <point x="91.34306569343066" y="459.9051094890511" type="curve" smooth="yes"/>
      <point x="91.34306569343066" y="197.08759124087592"/>
      <point x="223.97080291970804" y="-20.0"/>
    </contour>
    <contour>
      <point x="504.8175182481752" y="60.948905109489054" type="curve" smooth="yes"/>
      <point x="336.8175182481752" y="62.29197080291971"/>
      <point x="255.15328467153284" y="218.86131386861314"/>
      <point x="255.15328467153284" y="441.93430656934305" type="curve" smooth="yes"/>
      <point x="255.15328467153284" y="517.4087591240876"/>
      <point x="266.4890510948905" y="599.8759124087592"/>
      <point x="284.1459854014599" y="674.8248175182482" type="curve"/>
      <point x="332.7007299270073" y="744.4379562043796"/>
      <point x="432.4160583941606" y="857.5401459854014"/>
      <point x="610.1386861313869" y="857.5401459854014" type="curve" smooth="yes"/>
      <point x="743.4671532846716" y="857.5401459854014"/>
      <point x="832.5036496350365" y="742.3649635036496"/>
      <point x="832.5036496350365" y="545.2992700729927" type="curve" smooth="yes"/>
      <point x="832.5036496350365" y="331.6131386861314"/>
      <point x="722.8175182481751" y="60.948905109489054"/>
    </contour>
  </outline>
</glyph>
<glyph name="seven" format="2">
  <advance width="973.948905109489"/>
  <unicode hex="0037"/>
  <outline>
    <contour>
      <point x="891.8978102189781" y="1361.846715328467" type="line"/>
      <point x="262.3211678832117" y="0.6715328467153284" type="line"/>
      <point x="451.2919708029197" y="0.0" type="line"/>
      <point x="1022.8394160583941" y="1447.8248175182482" type="line"/>
      <point x="999.007299270073" y="1486.0" type="line"/>
      <point x="184.87591240875912" y="1486.0" type="line"/>
      <point x="120.86131386861314" y="1153.8102189781023" type="line"/>
      <point x="213.2992700729927" y="1131.6642335766423" type="line"/>
      <point x="306.64233576642334" y="1362.6788321167883" type="line"/>
    </contour>
  </outline>
</glyph>
<glyph name="eight" format="2">
  <advance width="1053.8394160583941"/>
  <unicode hex="0038"/>
  <outline>
    <contour>
      <point x="461.17518248175185" y="-18.0" type="curve" smooth="yes"/>
      <point x="714.5547445255474" y="-18.0"/>
      <point x="933.5255474452555" y="137.72992700729927"/>
      <point x="933.5255474452555" y="386.6569343065693" type="curve" smooth="yes"/>
      <point x="933.5255474452555" y="555.5182481751825"/>
      <point x="815.1678832116788" y="682.1751824817518"/>
      <point x="679.9635036496351" y="782.3503649635037" type="curve"/>
      <point x="902.970802919708" y="889.3138686131387"/>
      <point x="1014.8102189781022" y="1038.007299270073"/>
      <point x="1014.8102189781022" y="1202.6569343065694" type="curve" smooth="yes"/>
      <point x="1014.8102189781022" y="1392.1897810218977"/>
      <point x="858.6277372262774" y="1502.8394160583941"/>
      <point x="671.978102189781" y="1502.8394160583941" type="curve" smooth="yes"/>
      <point x="429.2043795620438" y="1502.8394160583941"/>
      <point x="243.14598540145985" y="1352.029197080292"/>
      <point x="243.14598540145985" y="1128.6569343065694" type="curve" smooth="yes"/>
      <point x="243.14598540145985" y="977.014598540146"/>
      <point x="346.93430656934305" y="860.014598540146"/>
      <point x="448.1678832116788" y="772.4744525547445" type="curve"/>
      <point x="235.06569343065695" y="684.1678832116788"/>
      <point x="68.16788321167883" y="535.1240875912408"/>
      <point x="68.16788321167883" y="325.8540145985401" type="curve" smooth="yes"/>
      <point x="68.16788321167883" y="95.92700729927007"/>
      <point x="267.59124087591243" y="-18.0"/>
    </contour>
    <contour>
      <point x="619.014598540146" y="825.4817518248175" type="curve"/>
      <point x="494.0948905109489" y="914.3503649635037"/>
      <point x="389.13868613138686" y="1011.8467153284671"/>
      <point x="389.13868613138686" y="1150.6934306569342" type="curve" smooth="yes"/>
      <point x="389.13868613138686" y="1316.5693430656934"/>
      <point x="505.5036496350365" y="1426.8832116788321"/>
      <point x="658.4817518248175" y="1426.8832116788321" type="curve" smooth="yes"/>
      <point x="777.1824817518249" y="1426.8832116788321"/>
      <point x="870.1605839416059" y="1346.6642335766423"/>
      <point x="870.1605839416059" y="1189.1824817518248" type="curve" smooth="yes"/>
      <point x="870.1605839416059" y="1025.7080291970804"/>
      <point x="766.029197080292" y="893.0"/>
    </contour>
    <contour>
      <point x="485.0" y="64.61313868613139" type="curve" smooth="yes"/>
      <point x="322.81021897810217" y="64.61313868613139"/>
      <point x="222.98540145985402" y="184.67153284671534"/>
      <point x="226.31386861313868" y="350.66423357664235" type="curve" smooth="yes"/>
      <point x="229.64233576642334" y="525.1313868613139"/>
      <point x="349.2116788321168" y="659.6788321167883"/>
      <point x="497.13868613138686" y="722.1824817518249" type="curve"/>
      <point x="646.2992700729927" y="612.5255474452555"/>
      <point x="777.0364963503649" y="511.86131386861314"/>
      <point x="777.0364963503649" y="355.94890510948903" type="curve" smooth="yes"/>
      <point x="777.0364963503649" y="181.07299270072994"/>
      <point x="651.9635036496351" y="64.61313868613139"/>
    </contour>
  </outline>
</glyph>
<glyph name="nine" format="2">
  <advance width="1068.2554744525548"/>
  <unicode hex="0039"/>
  <outline>
    <contour>
      <point x="268.02919708029196" y="-70.97810218978103" type="line"/>
      <point x="715.6496350364963" y="53.97080291970803"/>
      <point x="1028.5985401459855" y="534.985401459854"/>
      <point x="1028.5985401459855" y="1021.7810218978102" type="curve" smooth="yes"/>
      <point x="1028.5985401459855" y="1284.2846715328467"/>
      <point x="894.6204379562043" y="1496.3430656934306"/>
      <point x="638.2481751824818" y="1494.6788321167883" type="curve" smooth="yes"/>
      <point x="327.48175182481754" y="1493.014598540146"/>
      <point x="129.15328467153284" y="1201.5547445255474"/>
      <point x="129.15328467153284" y="911.029197080292" type="curve" smooth="yes"/>
      <point x="129.15328467153284" y="709.9635036496351"/>
      <point x="236.67883211678833" y="518.1751824817518"/>
      <point x="467.8029197080292" y="518.1751824817518" type="curve" smooth="yes"/>
      <point x="638.6277372262774" y="518.1751824817518"/>
      <point x="756.7883211678832" y="613.7226277372263"/>
      <point x="820.6277372262774" y="687.2554744525547" type="curve"/>
      <point x="731.1313868613139" y="399.1824817518248"/>
      <point x="532.6642335766423" y="105.00729927007299"/>
      <point x="241.7007299270073" y="-1.8394160583941606" type="curve"/>
    </contour>
    <contour>
      <point x="514.6642335766423" y="614.9635036496351" type="curve" smooth="yes"/>
      <point x="383.6569343065693" y="614.9635036496351"/>
      <point x="288.48175182481754" y="742.6788321167883"/>
      <point x="288.48175182481754" y="941.8540145985402" type="curve" smooth="yes"/>
      <point x="288.48175182481754" y="1160.5766423357663"/>
      <point x="401.81021897810217" y="1413.3868613138686"/>
      <point x="613.7883211678832" y="1414.2262773722628" type="curve" smooth="yes"/>
      <point x="793.8686131386861" y="1415.2335766423357"/>
      <point x="864.1167883211679" y="1237.4014598540145"/>
      <point x="862.9416058394161" y="1039.4306569343066" type="curve" smooth="yes"/>
      <point x="862.6058394160584" y="963.970802919708"/>
      <point x="851.7737226277372" y="868.1605839416059"/>
      <point x="834.2846715328467" y="799.8686131386861" type="curve"/>
      <point x="785.2408759124088" y="728.4087591240876"/>
      <point x="680.8978102189781" y="614.9635036496351"/>
    </contour>
  </outline>
</glyph>
<glyph name="less" format="2">
  <advance width="1125.2335766423357"/>
  <unicode hex="003C"/>
  <outline>
    <contour>
      <point x="135.13138686131387" y="681.7080291970804" type="line"/>
      <point x="123.46715328467154" y="583.2481751824818" type="line"/>
      <point x="894.4306569343066" y="87.67883211678833" type="line"/>
      <point x="911.5912408759124" y="210.63503649635035" type="line"/>
      <point x="262.5985401459854" y="628.2262773722628" type="line"/>
      <point x="1022.7518248175182" y="1036.007299270073" type="line"/>
      <point x="1040.7445255474452" y="1176.4525547445255" type="line"/>
    </contour>
  </outline>
</glyph>
<glyph name="equal" format="2">
  <advance width="1100.5985401459855"/>
  <unicode hex="003D"/>
  <outline>
    <contour>
      <point x="220.46715328467153" y="941.051094890511" type="line"/>
      <point x="208.46715328467153" y="821.2700729927008" type="line"/>
      <point x="971.2919708029198" y="821.2700729927008" type="line"/>
      <point x="984.956204379562" y="941.051094890511" type="line"/>
    </contour>
    <contour>
      <point x="152.13138686131387" y="439.2043795620438" type="line"/>
      <point x="140.13138686131387" y="319.42335766423355" type="line"/>
      <point x="902.956204379562" y="319.42335766423355" type="line"/>
      <point x="916.6204379562043" y="439.2043795620438" type="line"/>
    </contour>
  </outline>
</glyph>
<glyph name="question" format="2">
  <advance width="964.5401459854014"/>
  <unicode hex="003F"/>
  <outline>
    <contour>
      <point x="285.8175182481752" y="439.9270072992701" type="curve"/>
      <point x="297.64963503649636" y="437.9270072992701" type="line"/>
      <point x="393.75912408759126" y="468.59124087591243" type="line"/>
      <point x="379.9270072992701" y="508.59124087591243"/>
      <point x="365.7664233576642" y="588.8978102189781"/>
      <point x="365.7664233576642" y="656.8978102189781" type="curve" smooth="yes"/>
      <point x="366.5985401459854" y="770.9635036496351"/>
      <point x="481.7956204379562" y="832.8394160583941"/>
      <point x="589.956204379562" y="896.8394160583941" type="curve" smooth="yes"/>
      <point x="693.948905109489" y="956.1751824817518"/>
      <point x="811.5839416058394" y="1022.0"/>
      <point x="879.9124087591241" y="1141.0" type="curve" smooth="yes"/>
      <point x="916.4087591240876" y="1199.3357664233577"/>
      <point x="939.4087591240876" y="1276.0"/>
      <point x="939.4087591240876" y="1362.0" type="curve" smooth="yes"/>
      <point x="939.4087591240876" y="1564.0"/>
      <point x="848.2481751824818" y="1771.0"/>
      <point x="494.2700729927007" y="1771.0" type="curve" smooth="yes"/>
      <point x="404.94160583941607" y="1771.0"/>
      <point x="302.7810218978102" y="1747.0"/>
      <point x="271.11678832116786" y="1717.0" type="curve"/>
      <point x="250.28467153284672" y="1612.3941605839416" type="line"/>
      <point x="299.94890510948903" y="1636.3941605839416"/>
      <point x="377.2773722627737" y="1648.3941605839416"/>
      <point x="450.6058394160584" y="1648.3941605839416" type="curve" smooth="yes"/>
      <point x="680.5912408759124" y="1648.3941605839416"/>
      <point x="805.9051094890511" y="1510.043795620438"/>
      <point x="805.9051094890511" y="1301.4087591240875" type="curve" smooth="yes"/>
      <point x="805.07299270073" y="1263.4087591240875"/>
      <point x="794.07299270073" y="1210.6788321167883"/>
      <point x="778.2408759124088" y="1176.6788321167883" type="curve"/>
      <point x="716.7445255474453" y="1078.6788321167883"/>
      <point x="636.7664233576643" y="1029.970802919708"/>
      <point x="532.6423357664233" y="976.6423357664233" type="curve" smooth="yes"/>
      <point x="370.16058394160586" y="889.1240875912408"/>
      <point x="234.32116788321167" y="810.2627737226277"/>
      <point x="234.32116788321167" y="680.051094890511" type="curve" smooth="yes"/>
      <point x="234.32116788321167" y="588.051094890511"/>
      <point x="257.66423357664235" y="489.6058394160584"/>
    </contour>
    <contour>
      <point x="282.4744525547445" y="88.95620437956204" type="curve" smooth="yes"/>
      <point x="275.8175182481752" y="23.313868613138688"/>
      <point x="314.978102189781" y="-18.67153284671533"/>
      <point x="368.46715328467155" y="-18.67153284671533" type="curve" smooth="yes"/>
      <point x="429.963503649635" y="-18.67153284671533"/>
      <point x="484.7956204379562" y="19.51094890510949"/>
      <point x="492.2846715328467" y="95.16788321167883" type="curve" smooth="yes"/>
      <point x="498.1094890510949" y="153.8102189781022"/>
      <point x="472.6131386861314" y="207.62043795620437"/>
      <point x="403.2992700729927" y="207.62043795620437" type="curve" smooth="yes"/>
      <point x="345.2992700729927" y="207.62043795620437"/>
      <point x="289.13138686131384" y="160.7810218978102"/>
    </contour>
  </outline>
</glyph>
<glyph name="at" format="2">
  <advance width="1784.3138686131388"/>
  <unicode hex="0040"/>
  <outline>
    <contour>
      <point x="100.13868613138686" y="338.64233576642334" type="curve" smooth="yes"/>
      <point x="100.13868613138686" y="-184.37226277372264"/>
      <point x="399.2773722627737" y="-500.0"/>
      <point x="836.2116788321168" y="-500.0" type="curve" smooth="yes"/>
      <point x="1001.4306569343066" y="-500.0"/>
      <point x="1144.7956204379561" y="-452.81021897810217"/>
      <point x="1229.970802919708" y="-381.2992700729927" type="curve"/>
      <point x="1207.978102189781" y="-313.8175182481752" type="line"/>
      <point x="1143.934306569343" y="-356.2116788321168"/>
      <point x="1010.5620437956204" y="-406.05839416058393"/>
      <point x="854.5474452554745" y="-406.05839416058393" type="curve" smooth="yes"/>
      <point x="488.9124087591241" y="-406.05839416058393"/>
      <point x="222.63503649635035" y="-111.18248175182482"/>
      <point x="222.63503649635035" y="362.3138686131387" type="curve" smooth="yes"/>
      <point x="222.63503649635035" y="897.5182481751825"/>
      <point x="559.8905109489051" y="1402.4671532846714"/>
      <point x="1047.8248175182482" y="1402.4671532846714" type="curve" smooth="yes"/>
      <point x="1347.4817518248176" y="1402.4671532846714"/>
      <point x="1612.8248175182482" y="1240.912408759124"/>
      <point x="1612.8248175182482" y="819.2919708029198" type="curve" smooth="yes"/>
      <point x="1612.8248175182482" y="431.66423357664235"/>
      <point x="1403.3868613138686" y="77.5985401459854"/>
      <point x="1249.3138686131388" y="77.5985401459854" type="curve" smooth="yes"/>
      <point x="1219.8102189781023" y="77.5985401459854"/>
      <point x="1213.8102189781023" y="118.77372262773723"/>
      <point x="1212.978102189781" y="148.31386861313868" type="curve" smooth="yes"/>
      <point x="1209.6496350364964" y="191.36496350364965"/>
      <point x="1218.153284671533" y="294.05839416058393"/>
      <point x="1230.0" y="402.44525547445255" type="curve" smooth="yes"/>
      <point x="1250.1751824817518" y="597.2554744525547"/>
      <point x="1297.0" y="868.7883211678832"/>
      <point x="1332.8248175182482" y="1010.7299270072992" type="curve"/>
      <point x="1208.4744525547446" y="984.8978102189781" type="line"/>
      <point x="1149.948905109489" y="1021.7226277372263"/>
      <point x="1052.802919708029" y="1037.5620437956204"/>
      <point x="996.7810218978102" y="1037.5620437956204" type="curve" smooth="yes"/>
      <point x="665.014598540146" y="1037.5620437956204"/>
      <point x="498.2992700729927" y="683.92700729927"/>
      <point x="496.6350364963504" y="397.24817518248176" type="curve" smooth="yes"/>
      <point x="494.97080291970804" y="114.97080291970804"/>
      <point x="632.6277372262774" y="-35.66423357664234"/>
      <point x="754.7664233576643" y="-35.66423357664234" type="curve" smooth="yes"/>
      <point x="905.8394160583941" y="-35.66423357664234"/>
      <point x="1038.6131386861314" y="228.2919708029197"/>
      <point x="1120.2846715328467" y="439.2992700729927" type="curve"/>
      <point x="1093.6204379562043" y="318.62773722627736"/>
      <point x="1080.970802919708" y="204.63503649635035"/>
      <point x="1080.970802919708" y="153.09489051094891" type="curve" smooth="yes"/>
      <point x="1080.970802919708" y="54.78102189781022"/>
      <point x="1090.992700729927" y="-31.0"/>
      <point x="1173.4817518248176" y="-31.0" type="curve" smooth="yes"/>
      <point x="1407.0729927007299" y="-31.0"/>
      <point x="1720.3211678832117" y="308.4160583941606"/>
      <point x="1720.3211678832117" y="864.7591240875912" type="curve" smooth="yes"/>
      <point x="1720.3211678832117" y="1281.2262773722628"/>
      <point x="1456.4963503649635" y="1499.7372262773722"/>
      <point x="1106.3138686131388" y="1499.7372262773722" type="curve" smooth="yes"/>
      <point x="582.3503649635037" y="1499.7372262773722"/>
      <point x="100.13868613138686" y="1012.6277372262774"/>
    </contour>
    <contour>
      <point x="634.1459854014598" y="410.1094890510949" type="curve" smooth="yes"/>
      <point x="634.1459854014598" y="657.6715328467153"/>
      <point x="728.029197080292" y="945.1240875912408"/>
      <point x="983.4306569343066" y="945.1240875912408" type="curve" smooth="yes"/>
      <point x="1039.4525547445255" y="945.1240875912408"/>
      <point x="1131.109489051095" y="918.2773722627737"/>
      <point x="1171.6423357664235" y="861.4160583941606" type="curve"/>
      <point x="1101.992700729927" y="537.948905109489"/>
      <point x="910.1605839416059" y="88.27007299270073"/>
      <point x="783.2992700729927" y="88.27007299270073" type="curve" smooth="yes"/>
      <point x="694.8175182481751" y="88.27007299270073"/>
      <point x="634.1459854014598" y="221.91970802919707"/>
    </contour>
  </outline>
</glyph>
<glyph name="A" format="2">
  <advance width="1140.1897810218977"/>
  <unicode hex="0041"/>
  <anchor x="480.6569343065693" y="0.0" name="bottom"/>
  <anchor x="933.3576642335767" y="0.0" name="ogonek"/>
  <anchor x="705.007299270073" y="1486.0" name="top"/>
  <outline>
    <contour>
      <point x="-120.33576642335767" y="0.0" type="line"/>
      <point x="279.2773722627737" y="0.0" type="line"/>
      <point x="285.1094890510949" y="70.94890510948905" type="line"/>
      <point x="131.62043795620437" y="95.45255474452554" type="line"/>
      <point x="625.4890510948906" y="1266.846715328467" type="line"/>
      <point x="690.1532846715329" y="1432.3284671532847" type="line"/>
      <point x="662.4817518248175" y="1437.8248175182482" type="line"/>
      <point x="676.3211678832117" y="1251.3065693430658" type="line"/>
      <point x="818.2116788321168" y="92.94890510948905" type="line"/>
      <point x="670.2481751824818" y="70.94890510948905" type="line"/>
      <point x="663.5839416058394" y="0.0" type="line"/>
      <point x="1106.1897810218977" y="0.0" type="line"/>
      <point x="1112.85401459854" y="70.94890510948905" type="line"/>
      <point x="976.7153284671533" y="96.27737226277372" type="line"/>
      <point x="779.992700729927" y="1497.8321167883212" type="line"/>
      <point x="628.3576642335767" y="1497.8321167883212" type="line"/>
      <point x="6.8321167883211675" y="93.45255474452554" type="line"/>
      <point x="-112.00729927007299" y="70.94890510948905" type="line"/>
    </contour>
    <contour>
      <point x="243.32846715328466" y="455.7153284671533" type="line"/>
      <point x="819.9051094890511" y="455.7153284671533" type="line"/>
      <point x="809.9197080291971" y="546.6788321167883" type="line"/>
      <point x="279.94160583941607" y="546.6788321167883" type="line"/>
    </contour>
  </outline>
</glyph>
<glyph name="B" format="2">
  <advance width="1117.6788321167883"/>
  <unicode hex="0042"/>
  <anchor x="508.0875912408759" y="0.0" name="bottom"/>
  <anchor x="667.0" y="1486.0" name="top"/>
  <outline>
    <contour>
      <point x="200.65693430656935" y="1486.0" type="line"/>
      <point x="193.16058394160584" y="1415.051094890511" type="line"/>
      <point x="313.3284671532847" y="1393.3722627737227" type="line"/>
      <point x="137.31386861313868" y="92.7956204379562" type="line"/>
      <point x="10.474452554744525" y="70.94890510948905" type="line"/>
      <point x="2.1459854014598543" y="0.0" type="line"/>
      <point x="199.82481751824818" y="0.0" type="line" smooth="yes"/>
      <point x="260.66423357664235" y="0.0"/>
      <point x="363.3284671532847" y="-14.167883211678832"/>
      <point x="441.16058394160586" y="-14.167883211678832" type="curve" smooth="yes"/>
      <point x="762.8613138686131" y="-14.167883211678832"/>
      <point x="1025.5109489051094" y="125.51094890510949"/>
      <point x="1025.5109489051094" y="473.978102189781" type="curve" smooth="yes"/>
      <point x="1025.5109489051094" y="648.3211678832117"/>
      <point x="911.8394160583941" y="765.3211678832117"/>
      <point x="759.1386861313869" y="784.8102189781022" type="curve"/>
      <point x="935.3065693430657" y="838.6423357664233"/>
      <point x="1046.4963503649635" y="975.8321167883212"/>
      <point x="1046.4963503649635" y="1190.0" type="curve" smooth="yes"/>
      <point x="1046.4963503649635" y="1359.1605839416059"/>
      <point x="947.0" y="1500.3357664233577"/>
      <point x="664.992700729927" y="1500.3357664233577" type="curve" smooth="yes"/>
      <point x="574.4817518248175" y="1500.3357664233577"/>
      <point x="496.4890510948905" y="1486.0"/>
      <point x="399.3430656934307" y="1486.0" type="curve" smooth="yes"/>
    </contour>
    <contour>
      <point x="282.1459854014599" y="27.496350364963504" type="line"/>
      <point x="383.81021897810217" y="784.2846715328467" type="line"/>
      <point x="341.3065693430657" y="718.5255474452555" type="line"/>
      <point x="393.6788321167883" y="720.6934306569343"/>
      <point x="459.6715328467153" y="722.8540145985402"/>
      <point x="585.8248175182482" y="722.8540145985402" type="curve" smooth="yes"/>
      <point x="768.985401459854" y="722.8540145985402"/>
      <point x="864.014598540146" y="637.8540145985402"/>
      <point x="863.8467153284671" y="460.0" type="curve" smooth="yes"/>
      <point x="863.6788321167883" y="180.33576642335765"/>
      <point x="696.8613138686131" y="75.27737226277372"/>
      <point x="471.3138686131387" y="75.27737226277372" type="curve" smooth="yes"/>
      <point x="410.94890510948903" y="75.27737226277372"/>
      <point x="313.2700729927007" y="91.13138686131387"/>
      <point x="273.8029197080292" y="104.2919708029197" type="curve"/>
    </contour>
    <contour>
      <point x="379.15328467153284" y="746.5328467153284" type="line"/>
      <point x="477.985401459854" y="1470.8394160583941" type="line"/>
      <point x="435.3211678832117" y="1394.7080291970804" type="line"/>
      <point x="470.64963503649636" y="1404.7153284671533"/>
      <point x="586.007299270073" y="1416.7153284671533"/>
      <point x="628.6642335766423" y="1416.7153284671533" type="curve" smooth="yes"/>
      <point x="822.6788321167883" y="1416.7153284671533"/>
      <point x="895.6569343065694" y="1328.0"/>
      <point x="895.4890510948906" y="1171.0" type="curve" smooth="yes"/>
      <point x="895.1532846715329" y="932.0"/>
      <point x="751.8175182481751" y="813.4671532846716"/>
      <point x="575.3722627737226" y="813.970802919708" type="curve" smooth="yes"/>
      <point x="496.8321167883212" y="814.3065693430657"/>
      <point x="409.64963503649636" y="810.970802919708"/>
      <point x="349.8175182481752" y="815.4671532846716" type="curve"/>
    </contour>
  </outline>
</glyph>
<glyph name="C" format="2">
  <advance width="1106.4963503649635"/>
  <unicode hex="0043"/>
  <anchor x="552.0" y="0.0" name="bottom"/>
  <anchor x="743.6350364963504" y="1486.0" name="top"/>
  <outline>
    <contour>
      <point x="550.6861313868613" y="-16.16788321167883" type="curve" smooth="yes"/>
      <point x="723.3722627737226" y="-16.16788321167883"/>
      <point x="854.3211678832117" y="45.33576642335766"/>
      <point x="922.1678832116788" y="69.33576642335767" type="curve"/>
      <point x="963.6715328467153" y="393.17518248175185" type="line"/>
      <point x="874.0364963503649" y="393.17518248175185" type="line"/>
      <point x="856.2043795620438" y="321.17518248175185"/>
      <point x="832.5182481751825" y="241.2992700729927"/>
      <point x="811.6861313868613" y="163.31386861313868" type="curve"/>
      <point x="760.2043795620438" y="105.2992700729927"/>
      <point x="658.3576642335767" y="71.44525547445255"/>
      <point x="572.5328467153284" y="71.44525547445255" type="curve" smooth="yes"/>
      <point x="354.94890510948903" y="71.44525547445255"/>
      <point x="262.6204379562044" y="299.036496350365"/>
      <point x="265.3065693430657" y="625.3284671532847" type="curve" smooth="yes"/>
      <point x="268.66423357664235" y="1059.087591240876"/>
      <point x="454.45255474452557" y="1415.3868613138686"/>
      <point x="740.5109489051094" y="1415.3868613138686" type="curve" smooth="yes"/>
      <point x="843.3503649635037" y="1415.3868613138686"/>
      <point x="894.1970802919708" y="1386.7007299270074"/>
      <point x="929.7007299270073" y="1360.3649635036497" type="curve"/>
      <point x="934.2043795620438" y="1086.4890510948906" type="line"/>
      <point x="1028.846715328467" y="1086.4890510948906" type="line"/>
      <point x="1087.846715328467" y="1442.1678832116788" type="line"/>
      <point x="1030.8394160583941" y="1452.0"/>
      <point x="914.3503649635037" y="1502.0"/>
      <point x="761.6715328467153" y="1502.0" type="curve" smooth="yes"/>
      <point x="372.3795620437956" y="1502.0"/>
      <point x="99.48175182481752" y="1115.2043795620439"/>
      <point x="99.48175182481752" y="605.3430656934306" type="curve" smooth="yes"/>
      <point x="99.48175182481752" y="264.3941605839416"/>
      <point x="226.7810218978102" y="-16.16788321167883"/>
    </contour>
  </outline>
</glyph>
<glyph name="D" format="2">
  <advance width="1239.3138686131388"/>
  <unicode hex="0044"/>
  <anchor x="306.02359124087593" y="748.0" name="bar"/>
  <anchor x="545.6496350364963" y="0.0" name="bottom"/>
  <anchor x="767.7299270072992" y="1486.0" name="top"/>
  <outline>
    <contour>
      <point x="200.65693430656935" y="1486.0" type="line"/>
      <point x="193.16058394160584" y="1415.051094890511" type="line"/>
      <point x="313.3284671532847" y="1393.3722627737227" type="line"/>
      <point x="137.31386861313868" y="92.7956204379562" type="line"/>
      <point x="10.474452554744525" y="70.94890510948905" type="line"/>
      <point x="2.1459854014598543" y="0.0" type="line"/>
      <point x="210.98540145985402" y="0.0" type="line" smooth="yes"/>
      <point x="311.8759124087591" y="0.0"/>
      <point x="396.66423357664235" y="-16.16788321167883"/>
      <point x="519.3357664233577" y="-16.16788321167883" type="curve" smooth="yes"/>
      <point x="924.8175182481751" y="-16.16788321167883"/>
      <point x="1186.5255474452554" y="382.8321167883212"/>
      <point x="1187.7007299270074" y="901.8467153284671" type="curve" smooth="yes"/>
      <point x="1188.5401459854015" y="1261.8394160583941"/>
      <point x="1033.3284671532847" y="1502.0"/>
      <point x="690.0" y="1502.0" type="curve" smooth="yes"/>
      <point x="607.6642335766423" y="1502.0"/>
      <point x="523.1605839416059" y="1487.6642335766423"/>
      <point x="439.3211678832117" y="1486.0" type="curve"/>
    </contour>
    <contour>
      <point x="282.64963503649636" y="33.18248175182482" type="line"/>
      <point x="476.64963503649636" y="1465.153284671533" type="line"/>
      <point x="441.81021897810217" y="1388.036496350365" type="line"/>
      <point x="485.64963503649636" y="1399.043795620438"/>
      <point x="574.6715328467153" y="1416.8832116788321"/>
      <point x="658.4963503649635" y="1416.8832116788321" type="curve" smooth="yes"/>
      <point x="917.985401459854" y="1416.8832116788321"/>
      <point x="1020.2116788321168" y="1256.5109489051094"/>
      <point x="1020.2116788321168" y="889.1824817518249" type="curve" smooth="yes"/>
      <point x="1020.2116788321168" y="489.1094890510949"/>
      <point x="836.6350364963504" y="69.11678832116789"/>
      <point x="509.014598540146" y="69.11678832116789" type="curve" smooth="yes"/>
      <point x="432.62773722627736" y="69.11678832116789"/>
      <point x="315.4963503649635" y="84.13138686131387"/>
      <point x="256.2992700729927" y="107.2992700729927" type="curve"/>
    </contour>
  </outline>
</glyph>
<glyph name="E" format="2">
  <advance width="1057.8394160583941"/>
  <unicode hex="0045"/>
  <anchor x="486.81021897810217" y="0.0" name="bottom"/>
  <anchor x="762.6423357664233" y="0.0" name="ogonek"/>
  <anchor x="640.1678832116788" y="1486.0" name="top"/>
  <anchor x="171.82481751824818" y="1486.0" name="topleft"/>
  <outline>
    <contour>
      <point x="2.1459854014598543" y="0.0" type="line"/>
      <point x="904.4963503649635" y="0.0" type="line"/>
      <point x="983.1678832116788" y="312.18978102189783" type="line"/>
      <point x="904.3576642335767" y="336.6788321167883" type="line"/>
      <point x="800.8467153284671" y="107.14598540145985" type="line"/>
      <point x="290.64233576642334" y="92.2919708029197" type="line"/>
      <point x="374.985401459854" y="718.6861313868613" type="line"/>
      <point x="779.1532846715329" y="705.5182481751825" type="line"/>
      <point x="791.4890510948906" y="822.4890510948906" type="line"/>
      <point x="388.1459854014599" y="814.4744525547445" type="line"/>
      <point x="468.3211678832117" y="1405.6934306569342" type="line"/>
      <point x="880.6934306569343" y="1392.6788321167883" type="line"/>
      <point x="910.3722627737226" y="1181.4890510948906" type="line"/>
      <point x="989.8321167883212" y="1181.4890510948906" type="line"/>
      <point x="1004.3284671532847" y="1486.0" type="line"/>
      <point x="200.65693430656935" y="1486.0" type="line"/>
      <point x="193.16058394160584" y="1415.051094890511" type="line"/>
      <point x="313.3284671532847" y="1393.3722627737227" type="line"/>
      <point x="137.31386861313868" y="92.7956204379562" type="line"/>
      <point x="10.474452554744525" y="70.94890510948905" type="line"/>
    </contour>
  </outline>
</glyph>
<glyph name="F" format="2">
  <advance width="938.6934306569343"/>
  <unicode hex="0046"/>
  <anchor x="652.6569343065694" y="1486.0" name="top"/>
  <outline>
    <contour>
      <point x="-1.1824817518248172" y="0.0" type="line"/>
      <point x="517.4525547445255" y="0.0" type="line"/>
      <point x="526.6131386861314" y="70.94890510948905" type="line"/>
      <point x="288.978102189781" y="92.96350364963504" type="line"/>
      <point x="373.4890510948905" y="718.6861313868613" type="line"/>
      <point x="777.4890510948906" y="705.5182481751825" type="line"/>
      <point x="789.6569343065694" y="821.6496350364963" type="line"/>
      <point x="386.64963503649636" y="814.4744525547445" type="line"/>
      <point x="466.6569343065693" y="1405.1897810218977" type="line"/>
      <point x="878.021897810219" y="1392.5109489051094" type="line"/>
      <point x="908.0364963503649" y="1181.4890510948906" type="line"/>
      <point x="987.0" y="1181.4890510948906" type="line"/>
      <point x="1002.3284671532847" y="1486.0" type="line"/>
      <point x="200.65693430656935" y="1486.0" type="line"/>
      <point x="191.4963503649635" y="1415.051094890511" type="line"/>
      <point x="311.66423357664235" y="1393.3722627737227" type="line"/>
      <point x="135.64963503649636" y="92.7956204379562" type="line"/>
      <point x="8.81021897810219" y="70.94890510948905" type="line"/>
    </contour>
  </outline>
</glyph>
<glyph name="G" format="2">
  <advance width="1165.6496350364964"/>
  <unicode hex="0047"/>
  <anchor x="786.387394160584" y="387.014598540146" name="bar"/>
  <anchor x="655.07299270073" y="0.0" name="bottom"/>
  <anchor x="815.4306569343066" y="1486.0" name="top"/>
  <outline>
    <contour>
      <point x="551.7080291970802" y="-16.16788321167883" type="curve" smooth="yes"/>
      <point x="693.8394160583941" y="-16.16788321167883"/>
      <point x="795.4963503649635" y="28.32116788321168"/>
      <point x="871.8248175182482" y="57.81751824817518" type="curve" smooth="yes"/>
      <point x="920.6788321167883" y="76.65693430656934"/>
      <point x="957.3430656934306" y="89.98540145985402"/>
      <point x="990.6788321167883" y="90.48905109489051" type="curve"/>
      <point x="1073.6861313868612" y="706.5036496350365" type="line"/>
      <point x="695.2043795620438" y="706.5036496350365" type="line"/>
      <point x="684.8759124087592" y="621.5401459854014" type="line"/>
      <point x="907.3649635036496" y="606.0364963503649" type="line"/>
      <point x="848.021897810219" y="168.96350364963504" type="line"/>
      <point x="793.1751824817518" y="103.97080291970804"/>
      <point x="693.0" y="71.11678832116789"/>
      <point x="573.5255474452555" y="71.11678832116789" type="curve" smooth="yes"/>
      <point x="358.13868613138686" y="71.11678832116789"/>
      <point x="266.985401459854" y="299.036496350365"/>
      <point x="266.985401459854" y="625.3284671532847" type="curve" smooth="yes"/>
      <point x="266.985401459854" y="1059.087591240876"/>
      <point x="435.95620437956205" y="1414.051094890511"/>
      <point x="743.6788321167883" y="1414.8832116788321" type="curve" smooth="yes"/>
      <point x="879.0364963503649" y="1414.8832116788321"/>
      <point x="938.3722627737226" y="1384.197080291971"/>
      <point x="982.5401459854014" y="1348.5328467153286" type="curve"/>
      <point x="983.043795620438" y="1146.8248175182482" type="line"/>
      <point x="1079.1751824817518" y="1146.8248175182482" type="line"/>
      <point x="1133.6715328467153" y="1437.1751824817518" type="line"/>
      <point x="1121.1605839416059" y="1440.8394160583941"/>
      <point x="1109.1605839416059" y="1444.5036496350365"/>
      <point x="1096.992700729927" y="1448.3357664233577" type="curve"/>
      <point x="1034.6569343065694" y="1467.8321167883212"/>
      <point x="934.0" y="1502.0"/>
      <point x="759.014598540146" y="1502.0" type="curve" smooth="yes"/>
      <point x="352.2116788321168" y="1502.0"/>
      <point x="99.64963503649635" y="1115.5401459854015"/>
      <point x="99.64963503649635" y="605.3430656934306" type="curve" smooth="yes"/>
      <point x="99.64963503649635" y="264.3941605839416"/>
      <point x="226.94890510948906" y="-16.16788321167883"/>
    </contour>
  </outline>
</glyph>
<glyph name="H" format="2">
  <advance width="1293.1313868613138"/>
  <unicode hex="0048"/>
  <anchor x="580.1605839416059" y="0.0" name="bottom"/>
  <anchor x="1146.1605839416059" y="0.0" name="bottomright"/>
  <anchor x="785.6642335766423" y="1486.0" name="top"/>
  <outline>
    <contour>
      <point x="2.1459854014598543" y="0.0" type="line"/>
      <point x="413.8175182481752" y="0.0" type="line"/>
      <point x="421.3138686131387" y="70.94890510948905" type="line"/>
      <point x="290.64233576642334" y="92.7956204379562" type="line"/>
      <point x="466.6569343065693" y="1393.3722627737227" type="line"/>
      <point x="595.8394160583941" y="1415.051094890511" type="line"/>
      <point x="603.3357664233577" y="1486.0" type="line"/>
      <point x="200.65693430656935" y="1486.0" type="line"/>
      <point x="193.16058394160584" y="1415.051094890511" type="line"/>
      <point x="313.3284671532847" y="1393.3722627737227" type="line"/>
      <point x="137.31386861313868" y="92.7956204379562" type="line"/>
      <point x="10.474452554744525" y="70.94890510948905" type="line"/>
    </contour>
    <contour>
      <point x="342.8175182481752" y="711.3649635036496" type="line"/>
      <point x="1024.1751824817518" y="711.3649635036496" type="line"/>
      <point x="1024.1751824817518" y="806.985401459854" type="line"/>
      <point x="342.8175182481752" y="806.985401459854" type="line"/>
    </contour>
    <contour>
      <point x="736.3284671532847" y="0.0" type="line"/>
      <point x="1147.1605839416059" y="0.0" type="line"/>
      <point x="1154.6569343065694" y="70.94890510948905" type="line"/>
      <point x="1031.3211678832117" y="92.7956204379562" type="line"/>
      <point x="1207.3357664233577" y="1393.3722627737227" type="line"/>
      <point x="1327.6715328467153" y="1415.051094890511" type="line"/>
      <point x="1335.1678832116788" y="1486.0" type="line"/>
      <point x="934.6715328467153" y="1486.0" type="line"/>
      <point x="927.1751824817518" y="1415.051094890511" type="line"/>
      <point x="1054.007299270073" y="1393.3722627737227" type="line"/>
      <point x="877.992700729927" y="92.7956204379562" type="line"/>
      <point x="744.6569343065694" y="70.94890510948905" type="line"/>
    </contour>
  </outline>
</glyph>
<glyph name="I" format="2">
  <advance width="587.92700729927"/>
  <unicode hex="0049"/>
  <anchor x="225.82481751824818" y="0.0" name="bottom"/>
  <anchor x="345.3868613138686" y="-164.0" name="btm"/>
  <anchor x="241.62773722627736" y="0.0" name="ogonek"/>
  <anchor x="423.992700729927" y="1486.0" name="top"/>
  <anchor x="176.53284671532847" y="1486.0" name="topleft"/>
  <outline>
    <contour>
      <point x="11.138686131386862" y="0.0" type="line"/>
      <point x="434.46715328467155" y="0.0" type="line"/>
      <point x="443.62773722627736" y="70.94890510948905" type="line"/>
      <point x="310.62773722627736" y="92.7956204379562" type="line"/>
      <point x="486.64233576642334" y="1393.3722627737227" type="line"/>
      <point x="614.985401459854" y="1415.051094890511" type="line"/>
      <point x="621.6496350364963" y="1486.0" type="line"/>
      <point x="210.3065693430657" y="1486.0" type="line"/>
      <point x="201.14598540145985" y="1415.051094890511" type="line"/>
      <point x="333.3138686131387" y="1393.3722627737227" type="line"/>
      <point x="157.2992700729927" y="92.7956204379562" type="line"/>
      <point x="21.13138686131387" y="70.94890510948905" type="line"/>
    </contour>
  </outline>
</glyph>
<glyph name="J" format="2">
  <advance width="566.0802919708029"/>
  <unicode hex="004A"/>
  <anchor x="262.7956204379562" y="-164.0" name="btm"/>
  <anchor x="459.6350364963504" y="1486.0" name="top"/>
  <outline>
    <contour>
      <point x="-155.33576642335765" y="-331.46715328467155" type="line"/>
      <point x="30.343065693430656" y="-297.13138686131384"/>
      <point x="213.03649635036496" y="-186.12408759124088"/>
      <point x="284.17518248175185" y="75.00729927007299" type="curve" smooth="yes"/>
      <point x="312.35766423357666" y="180.77372262773721"/>
      <point x="382.1824817518248" y="738.8686131386861"/>
      <point x="457.84671532846716" y="1394.197080291971" type="curve"/>
      <point x="599.8467153284671" y="1415.051094890511" type="line"/>
      <point x="607.3430656934306" y="1486.0" type="line"/>
      <point x="177.17518248175182" y="1486.0" type="line"/>
      <point x="169.67883211678833" y="1415.051094890511" type="line"/>
      <point x="307.6788321167883" y="1395.036496350365" type="line"/>
      <point x="257.1824817518248" y="969.2043795620438"/>
      <point x="199.1824817518248" y="405.1824817518248"/>
      <point x="136.1824817518248" y="88.83941605839416" type="curve" smooth="yes"/>
      <point x="104.18248175182482" y="-70.32846715328468"/>
      <point x="-17.94890510948905" y="-219.64963503649636"/>
      <point x="-180.16058394160584" y="-267.66423357664235" type="curve"/>
    </contour>
  </outline>
</glyph>
<glyph name="K" format="2">
  <advance width="1179.8248175182482"/>
  <unicode hex="004B"/>
  <anchor x="660.7810218978102" y="0.0" name="bottom"/>
  <anchor x="805.4525547445255" y="1486.0" name="top"/>
  <outline>
    <contour>
      <point x="2.1459854014598543" y="0.0" type="line"/>
      <point x="417.978102189781" y="0.0" type="line"/>
      <point x="424.64233576642334" y="62.627737226277375" type="line"/>
      <point x="291.4744525547445" y="87.8029197080292" type="line"/>
      <point x="466.6569343065693" y="1393.3722627737227" type="line"/>
      <point x="595.8394160583941" y="1415.051094890511" type="line"/>
      <point x="603.3357664233577" y="1486.0" type="line"/>
      <point x="200.65693430656935" y="1486.0" type="line"/>
      <point x="193.16058394160584" y="1415.051094890511" type="line"/>
      <point x="313.3284671532847" y="1393.3722627737227" type="line"/>
      <point x="137.31386861313868" y="92.7956204379562" type="line"/>
      <point x="10.474452554744525" y="70.94890510948905" type="line"/>
    </contour>
    <contour>
      <point x="331.978102189781" y="464.1824817518248" type="line"/>
      <point x="1112.153284671533" y="1395.7080291970804" type="line"/>
      <point x="1216.5109489051094" y="1415.051094890511" type="line"/>
      <point x="1229.0" y="1486.0" type="line"/>
      <point x="870.6715328467153" y="1486.0" type="line"/>
      <point x="861.5109489051094" y="1414.2189781021898" type="line"/>
      <point x="980.3722627737226" y="1393.7080291970804" type="line"/>
      <point x="351.13138686131384" y="608.4671532846716" type="line"/>
    </contour>
    <contour>
      <point x="1090.3430656934306" y="0.0" type="line"/>
      <point x="1101.1678832116788" y="67.62043795620438" type="line"/>
      <point x="999.007299270073" y="100.45255474452554" type="line"/>
      <point x="963.1751824817518" y="125.12408759124088"/>
      <point x="923.1459854014598" y="216.5182481751825"/>
      <point x="828.3211678832117" y="409.6788321167883" type="curve" smooth="yes"/>
      <point x="773.3211678832117" y="521.6861313868613"/>
      <point x="681.4671532846716" y="714.043795620438"/>
      <point x="628.8102189781022" y="834.5182481751825" type="curve"/>
      <point x="527.6423357664233" y="718.8540145985402" type="line"/>
      <point x="573.8029197080292" y="618.5328467153284"/>
      <point x="641.3284671532847" y="456.48175182481754"/>
      <point x="689.1678832116788" y="349.97080291970804" type="curve" smooth="yes"/>
      <point x="752.1678832116788" y="210.3065693430657"/>
      <point x="832.4963503649635" y="0.6715328467153284"/>
      <point x="877.992700729927" y="0.0" type="curve"/>
    </contour>
  </outline>
</glyph>
<glyph name="L" format="2">
  <advance width="1020.6569343065694"/>
  <unicode hex="004C"/>
  <anchor x="525.5912408759124" y="0.0" name="bottom"/>
  <anchor x="825.1021897810219" y="1110.0" name="car"/>
  <anchor x="852.07299270073" y="1618.0" name="caron"/>
  <anchor x="332.2189781021898" y="743.0" name="center"/>
  <anchor x="429.963503649635" y="1486.0" name="top"/>
  <anchor x="1128.0465766423358" y="1486.0" name="topright"/>
  <outline>
    <contour>
      <point x="2.1459854014598543" y="0.0" type="line"/>
      <point x="858.9635036496351" y="0.0" type="line"/>
      <point x="956.4598540145986" y="429.3430656934307" type="line"/>
      <point x="868.8248175182482" y="446.6715328467153" type="line"/>
      <point x="738.5036496350365" y="100.48905109489051" type="line"/>
      <point x="288.978102189781" y="92.2919708029197" type="line"/>
      <point x="466.6569343065693" y="1393.3722627737227" type="line"/>
      <point x="595.8394160583941" y="1415.051094890511" type="line"/>
      <point x="603.3357664233577" y="1486.0" type="line"/>
      <point x="200.65693430656935" y="1486.0" type="line"/>
      <point x="193.16058394160584" y="1415.051094890511" type="line"/>
      <point x="313.3284671532847" y="1393.3722627737227" type="line"/>
      <point x="137.31386861313868" y="92.7956204379562" type="line"/>
      <point x="10.474452554744525" y="70.94890510948905" type="line"/>
    </contour>
  </outline>
</glyph>
<glyph name="M" format="2">
  <advance width="1589.4890510948906"/>
  <unicode hex="004D"/>
  <anchor x="793.8394160583941" y="0.0" name="bottom"/>
  <anchor x="1543.0770729927008" y="-0.8321167883211679" name="bottomright"/>
  <anchor x="990.5109489051094" y="1486.0" name="top"/>
  <outline>
    <contour>
      <point x="-64.5036496350365" y="0.0" type="line"/>
      <point x="361.26277372262774" y="0.0" type="line"/>
      <point x="368.75912408759126" y="70.94890510948905" type="line"/>
      <point x="203.1021897810219" y="96.45985401459853" type="line"/>
      <point x="401.94160583941607" y="1014.7007299270073" type="line"/>
      <point x="481.4379562043796" y="1388.7007299270074" type="line"/>
      <point x="522.1167883211679" y="1018.1678832116788" type="line"/>
      <point x="656.948905109489" y="0.0" type="line"/>
      <point x="758.4379562043796" y="0.0" type="line"/>
      <point x="1167.6350364963503" y="1041.8321167883212" type="line"/>
      <point x="1305.6350364963503" y="1396.5036496350365" type="line"/>
      <point x="1274.4744525547446" y="994.3357664233577" type="line"/>
      <point x="1231.8102189781023" y="94.45985401459853" type="line"/>
      <point x="1072.6350364963503" y="70.94890510948905" type="line"/>
      <point x="1065.1386861313867" y="0.0" type="line"/>
      <point x="1523.4890510948906" y="0.0" type="line"/>
      <point x="1530.985401459854" y="70.94890510948905" type="line"/>
      <point x="1385.14598540146" y="96.45985401459853" type="line"/>
      <point x="1433.14598540146" y="1393.8759124087592" type="line"/>
      <point x="1585.2992700729926" y="1415.051094890511" type="line"/>
      <point x="1592.7956204379561" y="1486.0" type="line"/>
      <point x="1250.5036496350365" y="1486.0" type="line"/>
      <point x="842.8175182481751" y="451.8540145985401" type="line"/>
      <point x="758.9635036496351" y="218.0" type="line"/>
      <point x="721.8102189781022" y="563.1824817518249" type="line"/>
      <point x="611.6204379562043" y="1486.0" type="line"/>
      <point x="243.83211678832117" y="1486.0" type="line"/>
      <point x="235.5036496350365" y="1415.2189781021898" type="line"/>
      <point x="390.48175182481754" y="1393.036496350365" type="line"/>
      <point x="85.81021897810218" y="96.12408759124088" type="line"/>
      <point x="-57.00729927007299" y="70.94890510948905" type="line"/>
    </contour>
  </outline>
</glyph>
<glyph name="N" format="2">
  <advance width="1275.7883211678832"/>
  <unicode hex="004E"/>
  <anchor x="691.7518248175182" y="0.0" name="bottom"/>
  <anchor x="844.92700729927" y="1486.0" name="top"/>
  <outline>
    <contour>
      <point x="2.1459854014598543" y="0.0" type="line"/>
      <point x="390.45255474452557" y="0.0" type="line"/>
      <point x="398.7810218978102" y="69.28467153284672" type="line"/>
      <point x="252.62773722627736" y="94.7956204379562" type="line"/>
      <point x="411.45985401459853" y="1404.85401459854" type="line"/>
      <point x="378.7810218978102" y="1401.85401459854" type="line"/>
      <point x="466.1459854014599" y="1107.985401459854" type="line"/>
      <point x="861.3503649635037" y="0.0" type="line"/>
      <point x="1007.7956204379562" y="0.0" type="line"/>
      <point x="1197.802919708029" y="1393.2043795620439" type="line"/>
      <point x="1323.802919708029" y="1415.051094890511" type="line"/>
      <point x="1332.1313868613138" y="1486.0" type="line"/>
      <point x="947.1824817518249" y="1486.0" type="line"/>
      <point x="938.8540145985402" y="1416.7153284671533" type="line"/>
      <point x="1085.007299270073" y="1391.2043795620439" type="line"/>
      <point x="926.6788321167883" y="85.51094890510949" type="line"/>
      <point x="963.6715328467153" y="86.8978102189781" type="line"/>
      <point x="880.4963503649635" y="372.53284671532845" type="line"/>
      <point x="484.13138686131384" y="1486.0" type="line"/>
      <point x="200.65693430656935" y="1486.0" type="line"/>
      <point x="193.16058394160584" y="1415.051094890511" type="line"/>
      <point x="315.84671532846716" y="1393.3722627737227" type="line"/>
      <point x="139.83211678832117" y="92.7956204379562" type="line"/>
      <point x="10.474452554744525" y="70.94890510948905" type="line"/>
    </contour>
  </outline>
</glyph>
<glyph name="O" format="2">
  <advance width="1198.6423357664235"/>
  <unicode hex="004F"/>
  <anchor x="531.1532846715329" y="0.0" name="bottom"/>
  <anchor x="638.1459854014598" y="743.8321167883212" name="center"/>
  <anchor x="646.0" y="0.0" name="ogonek"/>
  <anchor x="737.6496350364963" y="1486.0" name="top"/>
  <anchor x="180.43065693430657" y="1486.0" name="topleft"/>
  <anchor x="845.3357664233577" y="1486.0" name="topright"/>
  <outline>
    <contour>
      <point x="537.1532846715329" y="-20.335766423357665" type="curve" smooth="yes"/>
      <point x="898.1751824817518" y="-20.335766423357665"/>
      <point x="1151.8394160583941" y="364.8540145985401"/>
      <point x="1153.014598540146" y="882.5036496350365" type="curve" smooth="yes"/>
      <point x="1153.85401459854" y="1234.5328467153286"/>
      <point x="1019.3503649635037" y="1505.4963503649635"/>
      <point x="715.6715328467153" y="1505.4963503649635" type="curve" smooth="yes"/>
      <point x="354.64963503649636" y="1505.4963503649635"/>
      <point x="100.98540145985402" y="1120.3065693430658"/>
      <point x="99.81021897810218" y="602.6569343065694" type="curve" smooth="yes"/>
      <point x="98.97080291970804" y="250.62773722627736"/>
      <point x="231.8102189781022" y="-20.335766423357665"/>
    </contour>
    <contour>
      <point x="550.6642335766423" y="67.27737226277372" type="curve" smooth="yes"/>
      <point x="358.46715328467155" y="67.27737226277372"/>
      <point x="264.7956204379562" y="285.4379562043796"/>
      <point x="265.6350364963504" y="621.8029197080292" type="curve" smooth="yes"/>
      <point x="266.64233576642334" y="1079.4671532846714"/>
      <point x="457.6350364963504" y="1417.8832116788321"/>
      <point x="702.1605839416059" y="1417.8832116788321" type="curve" smooth="yes"/>
      <point x="894.3576642335767" y="1417.8832116788321"/>
      <point x="988.029197080292" y="1199.7226277372263"/>
      <point x="987.1897810218978" y="863.3576642335767" type="curve" smooth="yes"/>
      <point x="986.1824817518249" y="405.6934306569343"/>
      <point x="795.1897810218978" y="67.27737226277372"/>
    </contour>
  </outline>
</glyph>
<glyph name="P" format="2">
  <advance width="1059.3357664233577"/>
  <unicode hex="0050"/>
  <anchor x="714.1897810218978" y="616.8686131386861" name="tick"/>
  <anchor x="671.1605839416059" y="1486.0" name="top"/>
  <outline>
    <contour>
      <point x="2.1459854014598543" y="0.0" type="line"/>
      <point x="468.1824817518248" y="0.0" type="line"/>
      <point x="475.5109489051095" y="70.94890510948905" type="line"/>
      <point x="290.81021897810217" y="93.13138686131387" type="line"/>
      <point x="475.64963503649636" y="1459.3138686131388" type="line"/>
      <point x="429.8321167883212" y="1390.5474452554745" type="line"/>
      <point x="486.4963503649635" y="1402.051094890511"/>
      <point x="581.8321167883212" y="1416.8832116788321"/>
      <point x="642.3211678832117" y="1416.8832116788321" type="curve" smooth="yes"/>
      <point x="834.1459854014598" y="1416.8832116788321"/>
      <point x="902.3430656934306" y="1318.036496350365"/>
      <point x="901.6715328467153" y="1111.1678832116788" type="curve" smooth="yes"/>
      <point x="900.8321167883212" y="797.014598540146"/>
      <point x="767.992700729927" y="625.1605839416059"/>
      <point x="524.4890510948906" y="625.1605839416059" type="curve" smooth="yes"/>
      <point x="481.48175182481754" y="625.1605839416059"/>
      <point x="384.6715328467153" y="633.5036496350365"/>
      <point x="327.84671532846716" y="647.5036496350365" type="curve"/>
      <point x="320.6788321167883" y="553.3795620437957" type="line"/>
      <point x="356.02919708029196" y="546.8759124087592"/>
      <point x="459.97080291970804" y="537.8759124087592"/>
      <point x="518.3284671532847" y="537.8759124087592" type="curve" smooth="yes"/>
      <point x="821.6788321167883" y="537.8759124087592"/>
      <point x="1063.4963503649635" y="741.014598540146"/>
      <point x="1064.5036496350365" y="1122.3284671532847" type="curve" smooth="yes"/>
      <point x="1065.1751824817518" y="1380.3284671532847"/>
      <point x="931.3211678832117" y="1502.0"/>
      <point x="670.3211678832117" y="1502.0" type="curve" smooth="yes"/>
      <point x="579.978102189781" y="1502.0"/>
      <point x="504.1459854014599" y="1486.0"/>
      <point x="408.978102189781" y="1486.0" type="curve" smooth="yes"/>
      <point x="200.65693430656935" y="1486.0" type="line"/>
      <point x="193.16058394160584" y="1415.051094890511" type="line"/>
      <point x="313.3284671532847" y="1393.3722627737227" type="line"/>
      <point x="137.31386861313868" y="92.7956204379562" type="line"/>
      <point x="10.474452554744525" y="70.94890510948905" type="line"/>
    </contour>
  </outline>
</glyph>
<glyph name="R" format="2">
  <advance width="1138.5255474452554"/>
  <unicode hex="0052"/>
  <anchor x="651.1167883211679" y="0.0" name="bottom"/>
  <anchor x="725.8686131386861" y="1486.0" name="top"/>
  <outline>
    <contour>
      <point x="2.1459854014598543" y="0.0" type="line"/>
      <point x="442.007299270073" y="0.0" type="line"/>
      <point x="450.5036496350365" y="70.94890510948905" type="line"/>
      <point x="290.64233576642334" y="92.7956204379562" type="line"/>
      <point x="475.64963503649636" y="1457.8175182481752" type="line"/>
      <point x="431.1678832116788" y="1394.3795620437957" type="line"/>
      <point x="459.8759124087591" y="1402.7153284671533"/>
      <point x="584.8394160583941" y="1416.8832116788321"/>
      <point x="637.6715328467153" y="1416.8832116788321" type="curve" smooth="yes"/>
      <point x="825.1678832116788" y="1416.8832116788321"/>
      <point x="896.3430656934306" y="1329.197080291971"/>
      <point x="896.5109489051094" y="1156.1678832116788" type="curve" smooth="yes"/>
      <point x="895.8467153284671" y="941.7080291970802"/>
      <point x="772.3503649635037" y="761.3430656934306"/>
      <point x="575.5036496350365" y="748.6861313868613" type="curve" smooth="yes"/>
      <point x="552.3211678832117" y="747.6861313868613"/>
      <point x="402.1678832116788" y="747.8540145985402"/>
      <point x="350.014598540146" y="749.021897810219" type="curve"/>
      <point x="335.6861313868613" y="664.2262773722628" type="line"/>
      <point x="389.6788321167883" y="663.8905109489051"/>
      <point x="538.6642335766423" y="665.0583941605839"/>
      <point x="550.1751824817518" y="665.0583941605839" type="curve" smooth="yes"/>
      <point x="622.6788321167883" y="665.0583941605839"/>
      <point x="699.5255474452555" y="435.51824817518246"/>
      <point x="766.5620437956204" y="231.72262773722628" type="curve" smooth="yes"/>
      <point x="821.029197080292" y="46.51094890510949"/>
      <point x="854.8613138686131" y="0.0"/>
      <point x="883.1897810218978" y="0.0" type="curve"/>
      <point x="1053.8832116788321" y="0.0" type="line"/>
      <point x="1063.2116788321168" y="71.78102189781022" type="line"/>
      <point x="976.3795620437957" y="72.11678832116789"/>
      <point x="965.3649635036496" y="104.17518248175182"/>
      <point x="887.8759124087592" y="330.33576642335765" type="curve" smooth="yes"/>
      <point x="850.7080291970802" y="428.036496350365"/>
      <point x="764.014598540146" y="694.2335766423357"/>
      <point x="670.7883211678832" y="685.0656934306569" type="curve"/>
      <point x="648.2992700729927" y="667.3941605839416" type="line"/>
      <point x="890.8540145985402" y="716.9051094890511"/>
      <point x="1050.6861313868612" y="915.2043795620438"/>
      <point x="1053.1824817518248" y="1169.1605839416059" type="curve" smooth="yes"/>
      <point x="1054.846715328467" y="1374.029197080292"/>
      <point x="937.007299270073" y="1502.0"/>
      <point x="655.3211678832117" y="1502.0" type="curve" smooth="yes"/>
      <point x="578.4817518248175" y="1502.0"/>
      <point x="490.4963503649635" y="1486.0"/>
      <point x="413.3284671532847" y="1486.0" type="curve" smooth="yes"/>
      <point x="200.65693430656935" y="1486.0" type="line"/>
      <point x="193.16058394160584" y="1415.051094890511" type="line"/>
      <point x="313.3284671532847" y="1393.3722627737227" type="line"/>
      <point x="137.31386861313868" y="92.7956204379562" type="line"/>
      <point x="10.474452554744525" y="70.94890510948905" type="line"/>
    </contour>
  </outline>
</glyph>
<glyph name="S" format="2">
  <advance width="956.8686131386861"/>
  <unicode hex="0053"/>
  <anchor x="467.05839416058393" y="0.0" name="bottom"/>
  <anchor x="673.0583941605839" y="1486.0" name="top"/>
  <outline>
    <contour>
      <point x="381.5109489051095" y="-22.0" type="curve" smooth="yes"/>
      <point x="643.1751824817518" y="-22.0"/>
      <point x="850.0364963503649" y="143.15328467153284"/>
      <point x="850.0364963503649" y="412.48175182481754" type="curve" smooth="yes"/>
      <point x="850.0364963503649" y="611.3138686131387"/>
      <point x="694.1751824817518" y="706.6788321167883"/>
      <point x="570.4963503649635" y="810.5036496350365" type="curve" smooth="yes"/>
      <point x="438.6861313868613" y="921.4671532846716"/>
      <point x="329.48175182481754" y="985.6788321167883"/>
      <point x="329.48175182481754" y="1154.6934306569342" type="curve" smooth="yes"/>
      <point x="329.48175182481754" y="1333.5328467153286"/>
      <point x="473.8321167883212" y="1416.7153284671533"/>
      <point x="599.3503649635037" y="1416.7153284671533" type="curve" smooth="yes"/>
      <point x="690.8686131386861" y="1416.7153284671533"/>
      <point x="757.5401459854014" y="1391.029197080292"/>
      <point x="793.5401459854014" y="1360.5255474452554" type="curve"/>
      <point x="796.8759124087592" y="1167.3284671532847" type="line"/>
      <point x="879.5182481751825" y="1167.3284671532847" type="line"/>
      <point x="926.6788321167883" y="1421.3357664233577" type="line"/>
      <point x="879.5109489051094" y="1456.4963503649635"/>
      <point x="775.3211678832117" y="1502.0"/>
      <point x="613.1751824817518" y="1502.0" type="curve" smooth="yes"/>
      <point x="369.3430656934307" y="1502.0"/>
      <point x="179.992700729927" y="1350.6861313868612"/>
      <point x="179.992700729927" y="1111.985401459854" type="curve" smooth="yes"/>
      <point x="179.992700729927" y="895.6788321167883"/>
      <point x="346.53284671532845" y="791.985401459854"/>
      <point x="475.18978102189783" y="686.0" type="curve" smooth="yes"/>
      <point x="595.6642335766423" y="586.6934306569343"/>
      <point x="694.7080291970802" y="511.3065693430657"/>
      <point x="694.7080291970802" y="360.1459854014599" type="curve" smooth="yes"/>
      <point x="694.7080291970802" y="144.27737226277372"/>
      <point x="525.3357664233577" y="63.284671532846716"/>
      <point x="387.6788321167883" y="63.284671532846716" type="curve" smooth="yes"/>
      <point x="302.3211678832117" y="63.284671532846716"/>
      <point x="214.8175182481752" y="91.14598540145985"/>
      <point x="167.8175182481752" y="129.14598540145985" type="curve"/>
      <point x="165.31386861313868" y="336.17518248175185" type="line"/>
      <point x="77.83941605839416" y="336.17518248175185" type="line"/>
      <point x="31.00729927007299" y="63.33576642335766" type="line"/>
      <point x="72.17518248175182" y="27.335766423357665"/>
      <point x="226.37226277372264" y="-22.0"/>
    </contour>
  </outline>
</glyph>
<glyph name="T" format="2">
  <advance width="1094.4744525547446"/>
  <unicode hex="0054"/>
  <anchor x="483.82481751824815" y="0.0" name="bottom"/>
  <anchor x="783.4598540145986" y="0.0" name="bottomright"/>
  <anchor x="577.1846934306569" y="743.0" name="center"/>
  <anchor x="680.8175182481751" y="1486.0" name="top"/>
  <outline>
    <contour>
      <point x="203.83211678832117" y="0.0" type="line"/>
      <point x="771.4671532846716" y="0.0" type="line"/>
      <point x="779.7956204379562" y="70.94890510948905" type="line"/>
      <point x="570.1459854014598" y="92.96350364963504" type="line"/>
      <point x="747.992700729927" y="1406.5328467153286" type="line"/>
      <point x="1039.6277372262773" y="1389.5255474452554" type="line"/>
      <point x="1043.3576642335765" y="1049.1824817518248" type="line"/>
      <point x="1122.992700729927" y="1051.014598540146" type="line"/>
      <point x="1169.963503649635" y="1486.0" type="line"/>
      <point x="187.20437956204378" y="1486.0" type="line"/>
      <point x="110.5036496350365" y="1051.014598540146" type="line"/>
      <point x="193.97080291970804" y="1053.014598540146" type="line"/>
      <point x="292.54744525547443" y="1389.5255474452554" type="line"/>
      <point x="594.6642335766423" y="1406.5328467153286" type="line"/>
      <point x="416.8175182481752" y="92.96350364963504" type="line"/>
      <point x="212.992700729927" y="70.94890510948905" type="line"/>
    </contour>
  </outline>
</glyph>
<glyph name="U" format="2">
  <advance width="1216.007299270073"/>
  <unicode hex="0055"/>
  <anchor x="571.6277372262774" y="0.0" name="bottom"/>
  <anchor x="701.3357664233577" y="20.0" name="ogonek"/>
  <anchor x="734.6934306569343" y="1486.0" name="top"/>
  <anchor x="1158.5985401459855" y="1486.0" name="topright"/>
  <outline>
    <contour>
      <point x="1155.1751824817518" y="1393.2043795620439" type="line"/>
      <point x="1276.014598540146" y="1415.051094890511" type="line"/>
      <point x="1283.5109489051094" y="1486.0" type="line"/>
      <point x="931.1824817518249" y="1486.0" type="line"/>
      <point x="922.8540145985402" y="1415.051094890511" type="line"/>
      <point x="1041.8832116788321" y="1393.7007299270074" type="line"/>
      <point x="941.7299270072992" y="612.0" type="line" smooth="yes"/>
      <point x="894.4014598540145" y="240.64233576642334"/>
      <point x="781.5474452554745" y="66.48905109489051"/>
      <point x="561.014598540146" y="66.48905109489051" type="curve" smooth="yes"/>
      <point x="357.5036496350365" y="66.48905109489051"/>
      <point x="295.64963503649636" y="208.83211678832117"/>
      <point x="295.64963503649636" y="408.02919708029196" type="curve" smooth="yes"/>
      <point x="295.64963503649636" y="466.021897810219"/>
      <point x="300.48175182481754" y="527.8467153284671"/>
      <point x="309.3138686131387" y="592.8394160583941" type="curve" smooth="yes"/>
      <point x="413.992700729927" y="1393.3722627737227" type="line"/>
      <point x="551.4963503649635" y="1415.051094890511" type="line"/>
      <point x="558.992700729927" y="1486.0" type="line"/>
      <point x="149.0" y="1486.0" type="line"/>
      <point x="141.5036496350365" y="1415.051094890511" type="line"/>
      <point x="260.66423357664235" y="1393.3722627737227" type="line"/>
      <point x="154.15328467153284" y="583.1751824817518" type="line" smooth="yes"/>
      <point x="146.98540145985402" y="529.8394160583941"/>
      <point x="143.15328467153284" y="477.83941605839414"/>
      <point x="143.15328467153284" y="413.02919708029196" type="curve" smooth="yes"/>
      <point x="143.15328467153284" y="164.98540145985402"/>
      <point x="250.4890510948905" y="-20.0"/>
      <point x="542.0" y="-20.0" type="curve" smooth="yes"/>
      <point x="831.1970802919708" y="-20.0"/>
      <point x="992.5036496350365" y="156.36496350364965"/>
      <point x="1052.1678832116788" y="612.0" type="curve" smooth="yes"/>
    </contour>
  </outline>
</glyph>
<glyph name="V" format="2">
  <advance width="1055.6861313868612"/>
  <unicode hex="0056"/>
  <anchor x="768.4306569343066" y="1660.0" name="top"/>
  <outline>
    <contour>
      <point x="364.8540145985401" y="-18.48905109489051" type="line"/>
      <point x="498.17518248175185" y="-10.167883211678832" type="line"/>
      <point x="1088.7153284671533" y="1395.8759124087592" type="line"/>
      <point x="1182.8832116788321" y="1415.051094890511" type="line"/>
      <point x="1191.2116788321168" y="1486.0" type="line"/>
      <point x="842.8759124087592" y="1486.0" type="line"/>
      <point x="834.5474452554745" y="1415.051094890511" type="line"/>
      <point x="973.9124087591241" y="1393.8759124087592" type="line"/>
      <point x="571.2773722627737" y="401.8978102189781" type="line"/>
      <point x="441.37226277372264" y="63.65693430656934" type="line"/>
      <point x="486.51824817518246" y="60.65693430656934" type="line"/>
      <point x="455.8759124087591" y="407.77372262773724" type="line"/>
      <point x="346.02919708029196" y="1393.2043795620439" type="line"/>
      <point x="511.54014598540147" y="1415.051094890511" type="line"/>
      <point x="519.0364963503649" y="1486.0" type="line"/>
      <point x="90.86861313868613" y="1486.0" type="line"/>
      <point x="83.37226277372262" y="1414.2189781021898" type="line"/>
      <point x="186.03649635036496" y="1393.8759124087592" type="line"/>
    </contour>
  </outline>
</glyph>
<glyph name="W" format="2">
  <advance width="1580.4014598540145"/>
  <unicode hex="0057"/>
  <anchor x="814.2043795620438" y="0.0" name="bottom"/>
  <anchor x="1019.7080291970804" y="1486.0" name="top"/>
  <outline>
    <contour>
      <point x="330.8540145985401" y="-18.48905109489051" type="line"/>
      <point x="464.17518248175185" y="-10.167883211678832" type="line"/>
      <point x="959.7080291970802" y="1222.1751824817518" type="line"/>
      <point x="866.3868613138686" y="1250.1313868613138" type="line"/>
      <point x="531.7737226277372" y="401.8978102189781" type="line"/>
      <point x="412.02919708029196" y="63.65693430656934" type="line"/>
      <point x="460.83941605839414" y="60.65693430656934" type="line"/>
      <point x="436.021897810219" y="407.77372262773724" type="line"/>
      <point x="341.3211678832117" y="1393.2043795620439" type="line"/>
      <point x="506.8321167883212" y="1415.051094890511" type="line"/>
      <point x="514.3284671532847" y="1486.0" type="line"/>
      <point x="90.32116788321167" y="1486.0" type="line"/>
      <point x="82.82481751824818" y="1414.2189781021898" type="line"/>
      <point x="185.4890510948905" y="1393.8759124087592" type="line"/>
    </contour>
    <contour>
      <point x="948.5693430656934" y="-18.48905109489051" type="line"/>
      <point x="1081.890510948905" y="-10.167883211678832" type="line"/>
      <point x="1640.9197080291972" y="1395.8759124087592" type="line"/>
      <point x="1735.087591240876" y="1415.051094890511" type="line"/>
      <point x="1743.4160583941605" y="1486.0" type="line"/>
      <point x="1395.0802919708028" y="1486.0" type="line"/>
      <point x="1386.7518248175184" y="1415.051094890511" type="line"/>
      <point x="1526.1167883211679" y="1393.8759124087592" type="line"/>
      <point x="1145.6642335766423" y="402.2335766423358" type="line"/>
      <point x="1028.912408759124" y="63.65693430656934" type="line"/>
      <point x="1071.897810218978" y="60.65693430656934" type="line"/>
      <point x="1047.912408759124" y="407.77372262773724" type="line"/>
      <point x="974.8759124087592" y="1393.2043795620439" type="line"/>
      <point x="1137.029197080292" y="1415.051094890511" type="line"/>
      <point x="1144.5255474452554" y="1486.0" type="line"/>
      <point x="716.3576642335767" y="1486.0" type="line"/>
      <point x="708.8613138686131" y="1414.2189781021898" type="line"/>
      <point x="814.8832116788321" y="1393.8759124087592" type="line"/>
    </contour>
  </outline>
</glyph>
<glyph name="X" format="2">
  <advance width="1109.985401459854"/>
  <unicode hex="0058"/>
  <anchor x="544.4014598540145" y="0.0" name="bottom"/>
  <anchor x="1030.6496350364964" y="0.0" name="bottomright"/>
  <anchor x="572.8175182481751" y="746.0" name="center"/>
  <anchor x="766.8175182481751" y="1660.0" name="top"/>
  <outline>
    <contour>
      <point x="-60.35036496350365" y="0.0" type="line"/>
      <point x="322.45985401459853" y="0.0" type="line"/>
      <point x="330.7883211678832" y="70.94890510948905" type="line"/>
      <point x="198.43795620437956" y="95.95620437956204" type="line"/>
      <point x="540.029197080292" y="664.8978102189781" type="line"/>
      <point x="636.2846715328467" y="754.3065693430657" type="line"/>
      <point x="1076.3357664233577" y="1395.3722627737227" type="line"/>
      <point x="1195.846715328467" y="1415.051094890511" type="line"/>
      <point x="1205.8394160583941" y="1486.0" type="line"/>
      <point x="812.3795620437957" y="1486.0" type="line"/>
      <point x="803.2189781021898" y="1415.051094890511" type="line"/>
      <point x="945.2189781021898" y="1393.2043795620439" type="line"/>
      <point x="598.1605839416059" y="837.970802919708" type="line"/>
      <point x="502.06569343065695" y="758.8832116788321" type="line"/>
      <point x="63.65693430656934" y="93.95620437956204" type="line"/>
      <point x="-52.85401459854015" y="70.94890510948905" type="line"/>
    </contour>
    <contour>
      <point x="575.1678832116788" y="0.0" type="line"/>
      <point x="1023.8175182481751" y="0.0" type="line"/>
      <point x="1028.8175182481752" y="70.94890510948905" type="line"/>
      <point x="900.8248175182482" y="95.95620437956204" type="line"/>
      <point x="640.978102189781" y="761.6934306569343" type="line"/>
      <point x="601.5182481751825" y="837.970802919708" type="line"/>
      <point x="418.3138686131387" y="1395.3722627737227" type="line"/>
      <point x="560.6496350364963" y="1414.2189781021898" type="line"/>
      <point x="570.6423357664233" y="1486.0" type="line"/>
      <point x="136.32116788321167" y="1486.0" type="line"/>
      <point x="128.82481751824818" y="1415.051094890511" type="line"/>
      <point x="246.82481751824818" y="1391.5401459854015" type="line"/>
      <point x="495.51824817518246" y="743.7737226277372" type="line"/>
      <point x="532.3065693430657" y="660.7007299270073" type="line"/>
      <point x="720.007299270073" y="93.95620437956204" type="line"/>
      <point x="581.0" y="70.94890510948905" type="line"/>
    </contour>
  </outline>
</glyph>
<glyph name="Y" format="2">
  <advance width="1001.4890510948906"/>
  <unicode hex="0059"/>
  <anchor x="434.007299270073" y="0.0" name="bottom"/>
  <anchor x="497.82481751824815" y="469.0" name="center"/>
  <anchor x="678.4233576642335" y="1486.0" name="top"/>
  <anchor x="137.64963503649636" y="1486.0" name="topleft"/>
  <outline>
    <contour>
      <point x="176.98540145985402" y="0.0" type="line"/>
      <point x="711.3138686131387" y="0.0" type="line"/>
      <point x="719.6423357664233" y="70.94890510948905" type="line"/>
      <point x="532.7956204379562" y="96.12408759124088" type="line"/>
      <point x="606.3065693430657" y="642.5255474452555" type="line"/>
      <point x="552.970802919708" y="513.1678832116788" type="line"/>
      <point x="1045.0" y="1396.043795620438" type="line"/>
      <point x="1143.1751824817518" y="1415.051094890511" type="line"/>
      <point x="1150.6715328467153" y="1486.0" type="line"/>
      <point x="798.8686131386861" y="1486.0" type="line"/>
      <point x="790.5401459854014" y="1415.051094890511" type="line"/>
      <point x="924.3722627737226" y="1394.043795620438" type="line"/>
      <point x="618.5036496350365" y="801.3430656934306" type="line"/>
      <point x="516.1751824817518" y="603.6788321167883" type="line"/>
      <point x="572.1605839416059" y="606.3430656934306" type="line"/>
      <point x="521.3211678832117" y="804.014598540146" type="line"/>
      <point x="337.8175182481752" y="1394.8832116788321" type="line"/>
      <point x="480.82481751824815" y="1415.051094890511" type="line"/>
      <point x="488.3211678832117" y="1486.0" type="line"/>
      <point x="85.32116788321167" y="1486.0" type="line"/>
      <point x="76.99270072992701" y="1415.051094890511" type="line"/>
      <point x="175.4890510948905" y="1394.8832116788321" type="line"/>
      <point x="470.992700729927" y="506.1678832116788" type="line"/>
      <point x="453.81021897810217" y="648.014598540146" type="line"/>
      <point x="379.46715328467155" y="96.12408759124088" type="line"/>
      <point x="184.4817518248175" y="70.94890510948905" type="line"/>
    </contour>
  </outline>
</glyph>
<glyph name="Z" format="2">
  <advance width="1053.85401459854"/>
  <unicode hex="005A"/>
  <anchor x="538.4306569343066" y="0.0" name="bottom"/>
  <anchor x="699.7883211678832" y="1486.0" name="top"/>
  <outline>
    <contour>
      <point x="5.489051094890511" y="0.0" type="line"/>
      <point x="878.021897810219" y="0.0" type="line"/>
      <point x="964.1897810218978" y="347.51824817518246" type="line"/>
      <point x="881.0583941605839" y="371.5109489051095" type="line"/>
      <point x="764.8905109489051" y="102.48905109489051" type="line"/>
      <point x="160.15328467153284" y="80.30656934306569" type="line"/>
      <point x="310.992700729927" y="292.6204379562044" type="line"/>
      <point x="1072.2189781021898" y="1422.5474452554745" type="line"/>
      <point x="1057.890510948905" y="1486.0" type="line"/>
      <point x="247.02189781021897" y="1486.0" type="line"/>
      <point x="189.85401459854015" y="1148.3211678832117" type="line"/>
      <point x="272.985401459854" y="1131.8321167883212" type="line"/>
      <point x="361.5109489051095" y="1391.85401459854" type="line"/>
      <point x="899.5620437956204" y="1400.7007299270074" type="line"/>
      <point x="747.5328467153284" y="1190.846715328467" type="line"/>
      <point x="-10.83941605839416" y="65.45255474452554" type="line"/>
    </contour>
  </outline>
</glyph>
<glyph name="bracketleft" format="2">
  <advance width="808.5693430656934"/>
  <unicode hex="005B"/>
  <outline>
    <contour>
      <point x="303.014598540146" y="-305.73722627737226" type="curve" smooth="yes"/>
      <point x="393.48175182481754" y="-305.73722627737226"/>
      <point x="497.7810218978102" y="-289.73722627737226"/>
      <point x="579.9416058394161" y="-268.9051094890511" type="curve"/>
      <point x="587.4379562043796" y="-202.6058394160584" type="line"/>
      <point x="303.81021897810217" y="-200.94160583941607" type="line"/>
      <point x="534.1605839416059" y="1577.4890510948906" type="line"/>
      <point x="812.9635036496351" y="1577.4890510948906" type="line"/>
      <point x="822.1240875912408" y="1643.7883211678832" type="line"/>
      <point x="795.2335766423357" y="1648.1386861313867"/>
      <point x="651.0" y="1681.948905109489"/>
      <point x="560.3576642335767" y="1681.948905109489" type="curve" smooth="yes"/>
      <point x="443.3795620437956" y="1681.948905109489"/>
      <point x="403.8759124087591" y="1639.14598540146"/>
      <point x="384.88321167883214" y="1496.2116788321168" type="curve" smooth="yes"/>
      <point x="173.1897810218978" y="-118.33576642335767" type="line" smooth="yes"/>
      <point x="155.02919708029196" y="-258.77372262773724"/>
      <point x="176.05109489051094" y="-305.73722627737226"/>
    </contour>
  </outline>
</glyph>
<glyph name="asciicircum" format="2">
  <advance width="1172.029197080292"/>
  <unicode hex="005E"/>
  <outline>
    <contour>
      <point x="653.2846715328467" y="1496.0" type="line"/>
      <point x="146.64963503649636" y="404.0" type="line"/>
      <point x="267.1021897810219" y="404.0" type="line"/>
      <point x="696.4306569343066" y="1329.2262773722628" type="line"/>
      <point x="862.6058394160584" y="404.0" type="line"/>
      <point x="986.0656934306569" y="404.0" type="line"/>
      <point x="785.5474452554745" y="1496.0" type="line"/>
    </contour>
  </outline>
</glyph>
<glyph name="grave" format="2">
  <advance width="744.4452554744526"/>
  <unicode hex="0060"/>
  <anchor x="554.2992700729927" y="1108.0" name="_top"/>
  <anchor x="632.1386861313869" y="1657.0" name="top"/>
  <outline>
    <contour>
      <point x="632.4890510948906" y="1236.6788321167883" type="curve"/>
      <point x="678.6204379562043" y="1280.970802919708" type="line"/>
      <point x="423.8029197080292" y="1679.1678832116788" type="line"/>
      <point x="307.7956204379562" y="1576.1897810218977" type="line"/>
      <point x="362.0" y="1483.8394160583941"/>
      <point x="540.9343065693431" y="1300.905109489051"/>
    </contour>
  </outline>
</glyph>
<glyph name="a" format="2">
  <advance width="1012.5401459854014"/>
  <unicode hex="0061"/>
  <anchor x="384.43065693430657" y="0.0" name="bottom"/>
  <anchor x="985.8029197080292" y="1622.0" name="caron"/>
  <anchor x="763.9635036496351" y="0.0" name="ogonek"/>
  <anchor x="651.6204379562043" y="1108.3357664233577" name="top"/>
  <outline>
    <contour>
      <point x="778.7518248175182" y="166.79562043795622" type="curve" smooth="yes"/>
      <point x="921.2481751824818" y="1115.7007299270074" type="line"/>
      <point x="818.4160583941606" y="1073.2043795620439" type="line"/>
      <point x="777.2700729927008" y="1096.5328467153286"/>
      <point x="721.2846715328467" y="1118.2043795620439"/>
      <point x="649.7664233576643" y="1118.2043795620439" type="curve" smooth="yes"/>
      <point x="307.3211678832117" y="1118.2043795620439"/>
      <point x="64.31386861313868" y="734.4525547445255"/>
      <point x="64.31386861313868" y="381.26277372262774" type="curve" smooth="yes"/>
      <point x="64.31386861313868" y="117.61313868613139"/>
      <point x="186.007299270073" y="-20.16788321167883"/>
      <point x="346.1094890510949" y="-20.16788321167883" type="curve" smooth="yes"/>
      <point x="475.6058394160584" y="-20.16788321167883"/>
      <point x="568.3065693430657" y="72.86861313868613"/>
      <point x="638.948905109489" y="203.23357664233578" type="curve"/>
      <point x="628.1094890510949" y="115.35766423357664" type="line"/>
      <point x="621.1021897810219" y="14.540145985401459"/>
      <point x="663.2335766423357" y="-20.16788321167883"/>
      <point x="726.6058394160584" y="-20.16788321167883" type="curve" smooth="yes"/>
      <point x="833.9051094890511" y="-20.16788321167883"/>
      <point x="911.2335766423357" y="69.62043795620438"/>
      <point x="928.4233576642335" y="98.99270072992701" type="curve"/>
      <point x="902.1021897810219" y="140.64233576642334" type="line"/>
      <point x="866.1021897810219" y="103.13138686131387"/>
      <point x="834.7518248175182" y="82.96350364963504"/>
      <point x="811.5839416058394" y="82.96350364963504" type="curve" smooth="yes"/>
      <point x="789.0656934306569" y="82.96350364963504"/>
      <point x="768.4233576642335" y="95.66423357664233"/>
    </contour>
    <contour>
      <point x="756.2627737226277" y="981.4087591240876" type="curve"/>
      <point x="655.948905109489" y="331.5620437956204" type="line"/>
      <point x="604.2919708029198" y="212.6058394160584"/>
      <point x="494.42335766423355" y="86.27007299270073"/>
      <point x="387.6131386861314" y="86.27007299270073" type="curve" smooth="yes"/>
      <point x="284.1021897810219" y="86.27007299270073"/>
      <point x="220.97810218978103" y="216.1094890510949"/>
      <point x="220.97810218978103" y="388.7445255474453" type="curve" smooth="yes"/>
      <point x="220.97810218978103" y="730.0802919708029"/>
      <point x="403.81021897810217" y="1029.7737226277372"/>
      <point x="638.0948905109489" y="1029.7737226277372" type="curve" smooth="yes"/>
      <point x="691.2846715328467" y="1029.7737226277372"/>
      <point x="730.4525547445255" y="1012.5839416058394"/>
    </contour>
  </outline>
</glyph>
<glyph name="b" format="2">
  <advance width="1021.5401459854014"/>
  <unicode hex="0062"/>
  <guideline x="446.3941605839416" y="1528.014598540146" angle="261.5853"/>
  <anchor x="407.26277372262774" y="0.0" name="bottom"/>
  <anchor x="753.007299270073" y="1110.0" name="top"/>
  <outline>
    <contour>
      <point x="359.26277372262774" y="904.4744525547445" type="curve"/>
      <point x="460.13138686131384" y="1611.3430656934306" type="line"/>
      <point x="425.3211678832117" y="1634.0" type="line"/>
      <point x="197.14598540145985" y="1599.6642335766423" type="line"/>
      <point x="182.32846715328466" y="1539.7153284671533" type="line"/>
      <point x="298.985401459854" y="1508.5620437956204" type="line"/>
      <point x="83.13138686131387" y="-5.0" type="line"/>
      <point x="163.2919708029197" y="33.496350364963504" type="line"/>
      <point x="230.5985401459854" y="-4.160583941605839"/>
      <point x="290.4379562043796" y="-20.83211678832117"/>
      <point x="366.59124087591243" y="-20.83211678832117" type="curve" smooth="yes"/>
      <point x="714.0583941605839" y="-20.83211678832117"/>
      <point x="958.8759124087592" y="346.46715328467155"/>
      <point x="958.8759124087592" y="716.948905109489" type="curve" smooth="yes"/>
      <point x="958.8759124087592" y="983.5401459854014"/>
      <point x="845.7226277372263" y="1119.3795620437957"/>
      <point x="666.2554744525547" y="1119.3795620437957" type="curve" smooth="yes"/>
      <point x="538.0948905109489" y="1119.3795620437957"/>
      <point x="431.24817518248176" y="1030.3649635036497"/>
    </contour>
    <contour>
      <point x="246.61313868613138" y="118.46715328467154" type="curve"/>
      <point x="340.0948905109489" y="771.3065693430657" type="line"/>
      <point x="402.4014598540146" y="904.07299270073"/>
      <point x="506.6204379562044" y="1011.9416058394161"/>
      <point x="617.9343065693431" y="1011.9416058394161" type="curve" smooth="yes"/>
      <point x="743.0583941605839" y="1011.9416058394161"/>
      <point x="802.3795620437957" y="894.2992700729927"/>
      <point x="802.3795620437957" y="710.3065693430657" type="curve" smooth="yes"/>
      <point x="802.3795620437957" y="369.6715328467153"/>
      <point x="620.0802919708029" y="67.76642335766424"/>
      <point x="380.73722627737226" y="67.76642335766424" type="curve" smooth="yes"/>
      <point x="325.2335766423358" y="67.76642335766424"/>
      <point x="286.9124087591241" y="79.95620437956204"/>
    </contour>
  </outline>
</glyph>
<glyph name="c" format="2">
  <advance width="827.8832116788321"/>
  <unicode hex="0063"/>
  <anchor x="400.1021897810219" y="0.0" name="bottom"/>
  <anchor x="591.6131386861314" y="1110.0" name="top"/>
  <outline>
    <contour>
      <point x="749.5620437956204" y="918.2846715328467" type="curve" smooth="yes"/>
      <point x="772.3941605839416" y="902.4744525547445" type="line"/>
      <point x="819.2335766423357" y="1071.2043795620439" type="line"/>
      <point x="764.9051094890511" y="1100.5401459854015"/>
      <point x="698.7299270072992" y="1118.036496350365"/>
      <point x="624.8978102189781" y="1118.036496350365" type="curve" smooth="yes"/>
      <point x="268.992700729927" y="1118.036496350365"/>
      <point x="69.31386861313868" y="722.1459854014598"/>
      <point x="69.31386861313868" y="398.93430656934305" type="curve" smooth="yes"/>
      <point x="69.31386861313868" y="137.98540145985402"/>
      <point x="193.61313868613138" y="-20.16788321167883"/>
      <point x="402.4379562043796" y="-20.16788321167883" type="curve" smooth="yes"/>
      <point x="532.0875912408759" y="-20.16788321167883"/>
      <point x="646.7445255474453" y="50.153284671532845"/>
      <point x="718.0802919708029" y="145.33576642335765" type="curve"/>
      <point x="688.7664233576643" y="209.13138686131387" type="line"/>
      <point x="610.0948905109489" y="130.93430656934308"/>
      <point x="528.0802919708029" y="84.27737226277372"/>
      <point x="428.2919708029197" y="84.27737226277372" type="curve" smooth="yes"/>
      <point x="311.3065693430657" y="84.27737226277372"/>
      <point x="225.14598540145985" y="194.4014598540146"/>
      <point x="225.14598540145985" y="417.9270072992701" type="curve" smooth="yes"/>
      <point x="225.14598540145985" y="737.2919708029198"/>
      <point x="379.985401459854" y="1016.7956204379562"/>
      <point x="583.7810218978102" y="1016.7956204379562" type="curve" smooth="yes"/>
      <point x="641.1313868613139" y="1016.7956204379562"/>
      <point x="685.7591240875912" y="996.7810218978102"/>
    </contour>
  </outline>
</glyph>
<glyph name="d" format="2">
  <advance width="1039.6861313868612"/>
  <unicode hex="0064"/>
  <guideline x="808.8686131386861" y="1059.5912408759125" angle="81.4522"/>
  <anchor x="400.5839416058394" y="0.0" name="bottom"/>
  <anchor x="1098.102189781022" y="1622.0" name="caron"/>
  <anchor x="341.0948905109489" y="1110.0" name="top"/>
  <outline>
    <contour>
      <point x="807.4014598540145" y="155.14598540145985" type="curve"/>
      <point x="1016.2554744525547" y="1611.3430656934306" type="line"/>
      <point x="981.4452554744526" y="1634.0" type="line"/>
      <point x="740.2627737226277" y="1599.6642335766423" type="line"/>
      <point x="725.4452554744526" y="1539.5474452554745" type="line"/>
      <point x="854.9416058394161" y="1508.5620437956204" type="line"/>
      <point x="794.9124087591241" y="1092.2189781021898" type="line"/>
      <point x="764.5839416058394" y="1106.8832116788321"/>
      <point x="714.0802919708029" y="1119.043795620438"/>
      <point x="659.2773722627737" y="1119.043795620438" type="curve" smooth="yes"/>
      <point x="310.4890510948905" y="1119.043795620438"/>
      <point x="64.98540145985402" y="749.4379562043796"/>
      <point x="64.98540145985402" y="381.43065693430657" type="curve" smooth="yes"/>
      <point x="64.98540145985402" y="117.61313868613139"/>
      <point x="185.5109489051095" y="-20.16788321167883"/>
      <point x="363.2554744525547" y="-20.16788321167883" type="curve" smooth="yes"/>
      <point x="501.0729927007299" y="-20.16788321167883"/>
      <point x="616.92700729927" y="100.32846715328468"/>
      <point x="668.4306569343066" y="204.8978102189781" type="curve"/>
      <point x="656.9197080291971" y="107.03649635036496" type="line" smooth="yes"/>
      <point x="646.9124087591241" y="19.532846715328468"/>
      <point x="685.8905109489051" y="-20.16788321167883"/>
      <point x="753.4233576642335" y="-20.16788321167883" type="curve" smooth="yes"/>
      <point x="853.8978102189781" y="-20.16788321167883"/>
      <point x="932.8832116788321" y="65.45985401459853"/>
      <point x="951.5693430656934" y="95.66423357664233" type="curve"/>
      <point x="926.9124087591241" y="136.4817518248175" type="line"/>
      <point x="888.7518248175182" y="100.46715328467154"/>
      <point x="860.07299270073" y="82.96350364963504"/>
      <point x="831.7372262773723" y="82.96350364963504" type="curve" smooth="yes"/>
      <point x="811.0583941605839" y="82.96350364963504"/>
      <point x="801.2335766423357" y="107.31386861313868"/>
    </contour>
    <contour>
      <point x="778.0802919708029" y="973.5766423357665" type="curve"/>
      <point x="686.0948905109489" y="333.22627737226276" type="line"/>
      <point x="641.92700729927" y="221.75912408759123"/>
      <point x="522.3868613138686" y="86.27007299270073"/>
      <point x="402.26277372262774" y="86.27007299270073" type="curve" smooth="yes"/>
      <point x="287.1021897810219" y="86.27007299270073"/>
      <point x="221.4817518248175" y="210.28467153284672"/>
      <point x="221.4817518248175" y="388.7445255474453" type="curve" smooth="yes"/>
      <point x="221.4817518248175" y="725.4233576642335"/>
      <point x="405.81021897810217" y="1030.4452554744526"/>
      <point x="642.956204379562" y="1030.4452554744526" type="curve" smooth="yes"/>
      <point x="704.4671532846716" y="1030.4452554744526"/>
      <point x="755.5985401459855" y="1011.4087591240876"/>
    </contour>
  </outline>
</glyph>
<glyph name="e" format="2">
  <advance width="929.3357664233577"/>
  <unicode hex="0065"/>
  <anchor x="429.4014598540146" y="0.0" name="bottom"/>
  <anchor x="530.2554744525547" y="0.0" name="ogonek"/>
  <anchor x="614.4233576642335" y="1108.3357664233577" name="top"/>
  <outline>
    <contour>
      <point x="803.8540145985402" y="182.2992700729927" type="curve"/>
      <point x="771.7080291970804" y="242.43065693430657" type="line"/>
      <point x="667.2408759124088" y="125.45985401459853"/>
      <point x="568.2554744525547" y="81.78832116788321"/>
      <point x="466.44525547445255" y="81.78832116788321" type="curve" smooth="yes"/>
      <point x="299.44525547445255" y="81.78832116788321"/>
      <point x="222.97080291970804" y="238.97810218978103"/>
      <point x="231.64233576642334" y="453.48175182481754" type="curve"/>
      <point x="580.6350364963504" y="473.963503649635"/>
      <point x="869.0583941605839" y="639.4306569343066"/>
      <point x="869.0583941605839" y="892.2554744525547" type="curve" smooth="yes"/>
      <point x="869.0583941605839" y="1018.4087591240876"/>
      <point x="792.2043795620438" y="1118.3722627737227"/>
      <point x="613.4525547445255" y="1118.3722627737227" type="curve" smooth="yes"/>
      <point x="322.4379562043796" y="1118.3722627737227"/>
      <point x="76.47445255474453" y="793.8613138686131"/>
      <point x="76.47445255474453" y="412.77372262773724" type="curve" smooth="yes"/>
      <point x="76.47445255474453" y="167.09489051094891"/>
      <point x="195.4963503649635" y="-19.83211678832117"/>
      <point x="433.94160583941607" y="-19.83211678832117" type="curve" smooth="yes"/>
      <point x="591.0875912408759" y="-19.83211678832117"/>
      <point x="718.2189781021898" y="56.846715328467155"/>
    </contour>
    <contour>
      <point x="577.4890510948906" y="1031.6058394160584" type="curve" smooth="yes"/>
      <point x="664.7810218978102" y="1031.6058394160584"/>
      <point x="714.4087591240876" y="978.1167883211679"/>
      <point x="714.4087591240876" y="877.1678832116788" type="curve" smooth="yes"/>
      <point x="714.4087591240876" y="674.8686131386861"/>
      <point x="449.1021897810219" y="540.9416058394161"/>
      <point x="236.8029197080292" y="530.7445255474453" type="curve"/>
      <point x="258.3138686131387" y="752.6934306569343"/>
      <point x="387.6861313868613" y="1031.6058394160584"/>
    </contour>
  </outline>
</glyph>
<glyph name="f" format="2">
  <advance width="593.4014598540145"/>
  <unicode hex="0066"/>
  <guideline x="303.2773722627737" y="33.35766423357664" angle="82.44829999999996"/>
  <anchor x="233.54014598540147" y="1368.4233576642337" name="top"/>
  <outline>
    <contour>
      <point x="275.7956204379562" y="1207.0802919708028" type="curve" smooth="yes"/>
      <point x="260.95620437956205" y="1089.043795620438" type="line"/>
      <point x="121.30656934306569" y="1037.5255474452554" type="line"/>
      <point x="112.14598540145985" y="984.4014598540145" type="line"/>
      <point x="243.13138686131387" y="984.4014598540145" type="line"/>
      <point x="108.16058394160584" y="-100.78832116788321" type="line" smooth="yes"/>
      <point x="81.2919708029197" y="-317.7080291970803"/>
      <point x="45.75912408759124" y="-403.08029197080293"/>
      <point x="-36.23357664233576" y="-403.08029197080293" type="curve" smooth="yes"/>
      <point x="-78.4014598540146" y="-403.08029197080293"/>
      <point x="-131.36496350364965" y="-383.88321167883214"/>
      <point x="-174.5036496350365" y="-356.83941605839414" type="curve"/>
      <point x="-212.0" y="-485.66423357664235" type="line"/>
      <point x="-182.98540145985402" y="-494.83941605839414"/>
      <point x="-143.97810218978103" y="-504.0"/>
      <point x="-82.18248175182482" y="-504.0" type="curve" smooth="yes"/>
      <point x="107.62043795620438" y="-504.0"/>
      <point x="226.28467153284672" y="-322.83941605839414"/>
      <point x="261.13868613138686" y="-44.540145985401466" type="curve" smooth="yes"/>
      <point x="388.7883211678832" y="984.4014598540145" type="line"/>
      <point x="619.2262773722628" y="984.4014598540145" type="line"/>
      <point x="631.0583941605839" y="1092.3722627737227" type="line"/>
      <point x="403.11678832116786" y="1092.3722627737227" type="line"/>
      <point x="419.7956204379562" y="1229.956204379562" type="line" smooth="yes"/>
      <point x="441.978102189781" y="1412.2335766423357"/>
      <point x="504.2919708029197" y="1525.9197080291972"/>
      <point x="606.5985401459855" y="1525.9197080291972" type="curve" smooth="yes"/>
      <point x="672.9124087591241" y="1525.9197080291972"/>
      <point x="711.07299270073" y="1495.3722627737227"/>
      <point x="737.07299270073" y="1469.14598540146" type="curve"/>
      <point x="778.5766423357665" y="1603.6496350364964" type="line"/>
      <point x="733.4160583941606" y="1624.153284671533"/>
      <point x="685.7591240875912" y="1629.8321167883212"/>
      <point x="641.0656934306569" y="1629.8321167883212" type="curve" smooth="yes"/>
      <point x="456.93430656934305" y="1629.8321167883212"/>
      <point x="306.985401459854" y="1456.3941605839416"/>
    </contour>
  </outline>
</glyph>
<glyph name="g" format="2">
  <advance width="1017.014598540146"/>
  <unicode hex="0067"/>
  <anchor x="398.3065693430657" y="0.0" name="bottom"/>
  <anchor x="649.3149708029197" y="580.0" name="tbar"/>
  <anchor x="645.2700729927008" y="1108.0" name="top"/>
  <outline>
    <contour>
      <point x="774.8978102189781" y="-75.4963503649635" type="curve" smooth="yes"/>
      <point x="944.8978102189781" y="1116.5328467153286" type="line"/>
      <point x="841.2335766423357" y="1074.036496350365" type="line"/>
      <point x="798.0802919708029" y="1096.3722627737227"/>
      <point x="750.4233576642335" y="1118.2043795620439"/>
      <point x="654.4379562043796" y="1118.2043795620439" type="curve" smooth="yes"/>
      <point x="283.15328467153284" y="1118.2043795620439"/>
      <point x="64.98540145985402" y="717.2773722627737"/>
      <point x="64.98540145985402" y="381.43065693430657" type="curve" smooth="yes"/>
      <point x="64.98540145985402" y="139.2919708029197"/>
      <point x="166.32846715328466" y="-20.16788321167883"/>
      <point x="364.26277372262774" y="-20.16788321167883" type="curve" smooth="yes"/>
      <point x="473.0875912408759" y="-20.16788321167883"/>
      <point x="593.7737226277372" y="61.02189781021898"/>
      <point x="671.2554744525547" y="203.8905109489051" type="curve"/>
      <point x="623.9197080291971" y="-119.43065693430657" type="line" smooth="yes"/>
      <point x="595.2335766423357" y="-316.54014598540147"/>
      <point x="511.4014598540146" y="-384.93430656934305"/>
      <point x="352.2700729927007" y="-384.93430656934305" type="curve" smooth="yes"/>
      <point x="249.45255474452554" y="-384.93430656934305"/>
      <point x="158.47445255474452" y="-345.6934306569343"/>
      <point x="109.14598540145985" y="-314.64233576642334" type="curve"/>
      <point x="67.96350364963504" y="-457.3065693430657" type="line"/>
      <point x="114.00729927007299" y="-477.6715328467153"/>
      <point x="201.85401459854015" y="-496.66423357664235"/>
      <point x="281.7007299270073" y="-496.66423357664235" type="curve" smooth="yes"/>
      <point x="476.7153284671533" y="-496.66423357664235"/>
      <point x="731.4014598540145" y="-379.94160583941607"/>
    </contour>
    <contour>
      <point x="779.9124087591241" y="980.9124087591241" type="curve"/>
      <point x="688.5912408759124" y="330.2335766423358" type="line"/>
      <point x="632.1094890510949" y="198.64233576642334"/>
      <point x="504.59124087591243" y="86.27007299270073"/>
      <point x="402.59124087591243" y="86.27007299270073" type="curve" smooth="yes"/>
      <point x="296.86131386861314" y="86.27007299270073"/>
      <point x="221.4817518248175" y="187.13868613138686"/>
      <point x="221.4817518248175" y="397.8905109489051" type="curve" smooth="yes"/>
      <point x="221.4817518248175" y="665.6642335766423"/>
      <point x="366.6934306569343" y="1030.6058394160584"/>
      <point x="647.1021897810219" y="1030.6058394160584" type="curve" smooth="yes"/>
      <point x="707.5912408759124" y="1030.6058394160584"/>
      <point x="756.4233576642335" y="1007.6058394160584"/>
    </contour>
  </outline>
</glyph>
<glyph name="h" format="2">
  <advance width="1068.3430656934306"/>
  <unicode hex="0068"/>
  <anchor x="500.24087591240874" y="0.0" name="bottom"/>
  <anchor x="889.4233576642335" y="0.0" name="bottomright"/>
  <anchor x="221.67883211678833" y="1814.0" name="cap"/>
  <anchor x="328.7215474452555" y="1292.0" name="tbar"/>
  <anchor x="372.2919708029197" y="1532.0" name="top"/>
  <outline>
    <contour>
      <point x="346.57664233576645" y="821.3503649635037" type="curve"/>
      <point x="459.13138686131384" y="1611.3430656934306" type="line"/>
      <point x="424.3211678832117" y="1634.0" type="line"/>
      <point x="194.8029197080292" y="1599.6642335766423" type="line"/>
      <point x="179.98540145985402" y="1539.7153284671533" type="line"/>
      <point x="297.985401459854" y="1508.5620437956204" type="line"/>
      <point x="83.2992700729927" y="0.0" type="line"/>
      <point x="228.28467153284672" y="0.0" type="line"/>
      <point x="327.9124087591241" y="684.3795620437957" type="line"/>
      <point x="425.24817518248176" y="856.3722627737226"/>
      <point x="554.1094890510949" y="997.0875912408759"/>
      <point x="669.4452554744526" y="997.0875912408759" type="curve" smooth="yes"/>
      <point x="757.9051094890511" y="997.0875912408759"/>
      <point x="789.7299270072992" y="958.0875912408759"/>
      <point x="789.7299270072992" y="833.8175182481751" type="curve" smooth="yes"/>
      <point x="789.7299270072992" y="737.3576642335767"/>
      <point x="760.5766423357665" y="568.0656934306569"/>
      <point x="738.9051094890511" y="449.1970802919708" type="curve" smooth="yes"/>
      <point x="716.7299270072992" y="327.97080291970804"/>
      <point x="684.5693430656934" y="168.79562043795622"/>
      <point x="684.5693430656934" y="86.83941605839416" type="curve" smooth="yes"/>
      <point x="684.5693430656934" y="10.664233576642335"/>
      <point x="724.5693430656934" y="-20.16788321167883"/>
      <point x="786.8978102189781" y="-20.16788321167883" type="curve" smooth="yes"/>
      <point x="884.8759124087592" y="-20.16788321167883"/>
      <point x="965.1824817518249" y="63.78102189781022"/>
      <point x="982.7153284671533" y="94.0" type="curve"/>
      <point x="960.8905109489051" y="136.31386861313868" type="line"/>
      <point x="922.5547445255474" y="98.13138686131387"/>
      <point x="893.3868613138686" y="82.96350364963504"/>
      <point x="869.0583941605839" y="82.96350364963504" type="curve" smooth="yes"/>
      <point x="851.5474452554745" y="82.96350364963504"/>
      <point x="845.5474452554745" y="101.7956204379562"/>
      <point x="845.5474452554745" y="137.63503649635035" type="curve" smooth="yes"/>
      <point x="845.5474452554745" y="226.06569343065695"/>
      <point x="875.5401459854014" y="375.56934306569343"/>
      <point x="894.5474452554745" y="486.94890510948903" type="curve" smooth="yes"/>
      <point x="913.8905109489051" y="602.8394160583941"/>
      <point x="944.5474452554745" y="754.3503649635037"/>
      <point x="944.5474452554745" y="844.6423357664233" type="curve" smooth="yes"/>
      <point x="944.5474452554745" y="1046.5401459854015"/>
      <point x="863.9124087591241" y="1118.3722627737227"/>
      <point x="734.7737226277372" y="1118.3722627737227" type="curve" smooth="yes"/>
      <point x="582.4306569343066" y="1118.3722627737227"/>
      <point x="450.40875912408757" y="985.4890510948906"/>
    </contour>
  </outline>
</glyph>
<glyph name="k" format="2">
  <advance width="955.1678832116788"/>
  <unicode hex="006B"/>
  <anchor x="439.08029197080293" y="0.0" name="bottom"/>
  <anchor x="328.7215474452555" y="1292.0" name="tbar"/>
  <anchor x="695.6423357664233" y="1472.0" name="top"/>
  <outline>
    <contour>
      <point x="83.2992700729927" y="0.0" type="line"/>
      <point x="228.28467153284672" y="0.0" type="line"/>
      <point x="459.13138686131384" y="1611.3430656934306" type="line"/>
      <point x="424.3211678832117" y="1634.0" type="line"/>
      <point x="194.8029197080292" y="1599.6642335766423" type="line"/>
      <point x="179.98540145985402" y="1539.7153284671533" type="line"/>
      <point x="297.985401459854" y="1508.5620437956204" type="line"/>
    </contour>
    <contour>
      <point x="743.0364963503649" y="-20.16788321167883" type="curve" smooth="yes"/>
      <point x="836.5109489051094" y="-20.16788321167883"/>
      <point x="902.5109489051094" y="41.33576642335766"/>
      <point x="930.5182481751825" y="96.00729927007299" type="curve"/>
      <point x="906.1970802919708" y="132.992700729927" type="line"/>
      <point x="870.029197080292" y="90.32116788321167"/>
      <point x="843.6934306569343" y="81.63503649635037"/>
      <point x="814.6934306569343" y="81.63503649635037" type="curve" smooth="yes"/>
      <point x="794.5255474452555" y="81.63503649635037"/>
      <point x="779.3503649635037" y="98.8029197080292"/>
      <point x="730.2116788321168" y="180.6058394160584" type="curve" smooth="yes"/>
      <point x="459.44525547445255" y="633.4379562043796" type="line"/>
      <point x="450.77372262773724" y="585.2992700729927" type="line"/>
      <point x="683.2700729927008" y="730.6861313868613"/>
      <point x="795.8467153284671" y="799.5985401459855"/>
      <point x="869.6788321167883" y="902.2335766423357" type="curve" smooth="yes"/>
      <point x="901.1824817518249" y="946.0583941605839"/>
      <point x="914.029197080292" y="991.0583941605839"/>
      <point x="914.029197080292" y="1025.5620437956204" type="curve" smooth="yes"/>
      <point x="914.029197080292" y="1074.058394160584"/>
      <point x="878.8759124087592" y="1108.5620437956204"/>
      <point x="835.8759124087592" y="1108.5620437956204" type="curve" smooth="yes"/>
      <point x="791.8759124087592" y="1108.5620437956204"/>
      <point x="744.8832116788321" y="1078.058394160584"/>
      <point x="735.5474452554745" y="1013.2116788321168" type="curve" smooth="yes"/>
      <point x="729.8832116788321" y="972.8978102189781"/>
      <point x="722.8905109489051" y="919.2189781021898"/>
      <point x="683.8832116788321" y="864.051094890511" type="curve" smooth="yes"/>
      <point x="628.7153284671533" y="786.3941605839416"/>
      <point x="556.7080291970804" y="725.043795620438"/>
      <point x="343.77372262773724" y="585.92700729927" type="curve"/>
      <point x="598.3576642335767" y="95.17518248175182" type="line" smooth="yes"/>
      <point x="642.029197080292" y="10.313868613138686"/>
      <point x="674.8759124087592" y="-20.16788321167883"/>
    </contour>
  </outline>
</glyph>
<glyph name="l" format="2">
  <advance width="484.08029197080293"/>
  <unicode hex="006C"/>
  <anchor x="210.64233576642334" y="0.0" name="bottom"/>
  <anchor x="567.6058394160584" y="1617.8394160583941" name="caron"/>
  <anchor x="366.64233576642334" y="1561.0" name="top"/>
  <outline>
    <contour>
      <point x="250.94890510948906" y="166.77372262773721" type="curve" smooth="yes"/>
      <point x="461.963503649635" y="1611.3430656934306" type="line"/>
      <point x="427.15328467153284" y="1634.0" type="line"/>
      <point x="195.13868613138686" y="1599.6642335766423" type="line"/>
      <point x="180.32116788321167" y="1539.7153284671533" type="line"/>
      <point x="300.8175182481752" y="1508.5620437956204" type="line"/>
      <point x="115.46715328467154" y="237.2992700729927" type="line" smooth="yes"/>
      <point x="107.46715328467154" y="184.46715328467153"/>
      <point x="100.63503649635037" y="115.0"/>
      <point x="100.63503649635037" y="89.34306569343066" type="curve" smooth="yes"/>
      <point x="100.63503649635037" y="13.16058394160584"/>
      <point x="143.2992700729927" y="-20.16788321167883"/>
      <point x="205.96350364963504" y="-20.16788321167883" type="curve" smooth="yes"/>
      <point x="300.4379562043796" y="-20.16788321167883"/>
      <point x="372.42335766423355" y="50.2992700729927"/>
      <point x="404.2700729927007" y="98.99270072992701" type="curve"/>
      <point x="378.2846715328467" y="139.64233576642334" type="line"/>
      <point x="333.13138686131384" y="95.97080291970804"/>
      <point x="314.7810218978102" y="82.96350364963504"/>
      <point x="285.95620437956205" y="82.96350364963504" type="curve" smooth="yes"/>
      <point x="260.6204379562044" y="82.96350364963504"/>
      <point x="242.78832116788323" y="104.28467153284672"/>
    </contour>
  </outline>
</glyph>
<glyph name="m" format="2">
  <advance width="1638.4890510948906"/>
  <unicode hex="006D"/>
  <anchor x="753.8978102189781" y="0.0" name="bottom"/>
  <anchor x="1486.3576642335765" y="0.0" name="bottomright"/>
  <anchor x="995.9124087591241" y="1110.0" name="top"/>
  <outline>
    <contour>
      <point x="387.6131386861314" y="1097.3649635036497" type="line"/>
      <point x="351.7883211678832" y="1117.3649635036497" type="line"/>
      <point x="145.9270072992701" y="1074.197080291971" type="line"/>
      <point x="134.43795620437956" y="1010.9197080291971" type="line"/>
      <point x="230.2919708029197" y="968.2773722627737" type="line"/>
      <point x="103.1094890510949" y="0.0" type="line"/>
      <point x="249.5985401459854" y="0.0" type="line"/>
      <point x="339.9051094890511" y="687.7080291970804" type="line"/>
      <point x="422.26277372262774" y="848.8832116788321"/>
      <point x="546.2992700729927" y="997.0875912408759"/>
      <point x="663.4671532846716" y="997.0875912408759" type="curve" smooth="yes"/>
      <point x="743.9416058394161" y="997.0875912408759"/>
      <point x="775.4306569343066" y="959.7518248175182"/>
      <point x="775.4306569343066" y="833.8175182481751" type="curve" smooth="yes"/>
      <point x="775.4306569343066" y="768.2992700729927"/>
      <point x="755.5985401459855" y="607.3941605839416"/>
      <point x="734.92700729927" y="451.88321167883214" type="curve" smooth="yes"/>
      <point x="675.4087591240876" y="0.0" type="line"/>
      <point x="821.0656934306569" y="0.0" type="line"/>
      <point x="887.0802919708029" y="498.7007299270073" type="line" smooth="yes"/>
      <point x="897.2335766423357" y="578.2627737226277"/>
      <point x="912.5474452554745" y="699.5985401459855"/>
      <point x="916.8759124087592" y="757.5255474452555" type="curve"/>
      <point x="879.2189781021898" y="623.8832116788321" type="line"/>
      <point x="983.8759124087592" y="850.6788321167883"/>
      <point x="1114.4233576642337" y="997.0875912408759"/>
      <point x="1242.9197080291972" y="997.0875912408759" type="curve" smooth="yes"/>
      <point x="1324.3941605839416" y="997.0875912408759"/>
      <point x="1353.3868613138686" y="959.7518248175182"/>
      <point x="1353.3868613138686" y="833.8175182481751" type="curve" smooth="yes"/>
      <point x="1353.3868613138686" y="729.8686131386861"/>
      <point x="1331.2262773722628" y="565.5693430656934"/>
      <point x="1302.7299270072992" y="413.4160583941606" type="curve" smooth="yes"/>
      <point x="1277.890510948905" y="279.04379562043795"/>
      <point x="1255.051094890511" y="151.32116788321167"/>
      <point x="1255.051094890511" y="88.5036496350365" type="curve" smooth="yes"/>
      <point x="1255.051094890511" y="14.824817518248175"/>
      <point x="1288.5620437956204" y="-20.16788321167883"/>
      <point x="1357.043795620438" y="-20.16788321167883" type="curve" smooth="yes"/>
      <point x="1452.1897810218977" y="-20.16788321167883"/>
      <point x="1531.1678832116788" y="59.62043795620438"/>
      <point x="1552.8613138686133" y="94.0" type="curve"/>
      <point x="1531.036496350365" y="136.31386861313868" type="line"/>
      <point x="1488.5401459854015" y="94.63503649635037"/>
      <point x="1461.2043795620439" y="82.96350364963504"/>
      <point x="1440.5328467153286" y="82.96350364963504" type="curve" smooth="yes"/>
      <point x="1421.6934306569342" y="82.96350364963504"/>
      <point x="1415.6934306569342" y="98.2992700729927"/>
      <point x="1415.6934306569342" y="143.95620437956205" type="curve" smooth="yes"/>
      <point x="1415.6934306569342" y="205.26277372262774"/>
      <point x="1442.85401459854" y="335.62773722627736"/>
      <point x="1461.3649635036497" y="468.64233576642334" type="curve" smooth="yes"/>
      <point x="1481.8759124087592" y="614.4890510948906"/>
      <point x="1508.2043795620439" y="766.8321167883212"/>
      <point x="1508.2043795620439" y="842.978102189781" type="curve" smooth="yes"/>
      <point x="1508.2043795620439" y="1038.2189781021898"/>
      <point x="1438.3868613138686" y="1118.3722627737227"/>
      <point x="1289.109489051095" y="1118.3722627737227" type="curve" smooth="yes"/>
      <point x="1116.6131386861314" y="1118.3722627737227"/>
      <point x="993.0656934306569" y="950.3430656934306"/>
      <point x="886.9051094890511" y="753.3795620437957" type="curve"/>
      <point x="914.5474452554745" y="762.6934306569343" type="line"/>
      <point x="918.5693430656934" y="795.9854014598541"/>
      <point x="921.9197080291971" y="831.2919708029198"/>
      <point x="921.9197080291971" y="863.4598540145986" type="curve" smooth="yes"/>
      <point x="921.9197080291971" y="1035.7226277372263"/>
      <point x="860.4306569343066" y="1118.3722627737227"/>
      <point x="736.2846715328467" y="1118.3722627737227" type="curve" smooth="yes"/>
      <point x="565.4671532846716" y="1118.3722627737227"/>
      <point x="447.42335766423355" y="976.3357664233577"/>
      <point x="356.0729927007299" y="822.1824817518249" type="curve"/>
    </contour>
  </outline>
</glyph>
<glyph name="n" format="2">
  <advance width="1078.6715328467153"/>
  <unicode hex="006E"/>
  <anchor x="507.5839416058394" y="0.0" name="bottom"/>
  <anchor x="905.5766423357665" y="0.0" name="bottomright"/>
  <anchor x="611.978102189781" y="1110.0" name="top"/>
  <outline>
    <contour>
      <point x="356.0729927007299" y="821.3503649635037" type="curve"/>
      <point x="387.6131386861314" y="1097.3649635036497" type="line"/>
      <point x="351.6204379562044" y="1117.3649635036497" type="line"/>
      <point x="145.9270072992701" y="1074.197080291971" type="line"/>
      <point x="134.43795620437956" y="1010.9197080291971" type="line"/>
      <point x="230.2919708029197" y="968.2773722627737" type="line"/>
      <point x="103.1094890510949" y="0.0" type="line"/>
      <point x="249.5985401459854" y="0.0" type="line"/>
      <point x="339.0729927007299" y="686.8759124087592" type="line"/>
      <point x="434.7445255474453" y="858.8686131386861"/>
      <point x="566.1021897810219" y="997.0875912408759"/>
      <point x="679.7737226277372" y="997.0875912408759" type="curve" smooth="yes"/>
      <point x="768.2335766423357" y="997.0875912408759"/>
      <point x="800.0583941605839" y="958.0875912408759"/>
      <point x="800.0583941605839" y="833.8175182481751" type="curve" smooth="yes"/>
      <point x="800.0583941605839" y="737.3576642335767"/>
      <point x="770.9051094890511" y="568.0656934306569"/>
      <point x="749.2335766423357" y="449.1970802919708" type="curve" smooth="yes"/>
      <point x="727.0583941605839" y="327.97080291970804"/>
      <point x="694.8978102189781" y="168.79562043795622"/>
      <point x="694.8978102189781" y="86.83941605839416" type="curve" smooth="yes"/>
      <point x="694.8978102189781" y="10.664233576642335"/>
      <point x="734.8978102189781" y="-20.16788321167883"/>
      <point x="797.2262773722628" y="-20.16788321167883" type="curve" smooth="yes"/>
      <point x="895.2043795620438" y="-20.16788321167883"/>
      <point x="975.5109489051094" y="63.78102189781022"/>
      <point x="993.043795620438" y="94.0" type="curve"/>
      <point x="971.2189781021898" y="136.31386861313868" type="line"/>
      <point x="932.8832116788321" y="97.96350364963504"/>
      <point x="903.2116788321168" y="82.96350364963504"/>
      <point x="879.3868613138686" y="82.96350364963504" type="curve" smooth="yes"/>
      <point x="861.8759124087592" y="82.96350364963504"/>
      <point x="855.8759124087592" y="101.62773722627738"/>
      <point x="855.8759124087592" y="137.2992700729927" type="curve" smooth="yes"/>
      <point x="855.8759124087592" y="225.72992700729927"/>
      <point x="885.8686131386861" y="375.4014598540146"/>
      <point x="904.8759124087592" y="486.94890510948903" type="curve" smooth="yes"/>
      <point x="924.2189781021898" y="602.8394160583941"/>
      <point x="954.8759124087592" y="754.3503649635037"/>
      <point x="954.8759124087592" y="844.6423357664233" type="curve" smooth="yes"/>
      <point x="954.8759124087592" y="1046.5401459854015"/>
      <point x="874.2408759124088" y="1118.3722627737227"/>
      <point x="745.1021897810219" y="1118.3722627737227" type="curve" smooth="yes"/>
      <point x="591.92700729927" y="1118.3722627737227"/>
      <point x="459.9051094890511" y="985.4890510948906"/>
    </contour>
  </outline>
</glyph>
<glyph name="o" format="2">
  <advance width="985.5985401459855"/>
  <unicode hex="006F"/>
  <anchor x="428.77372262773724" y="-1.6642335766423357" name="bottom"/>
  <anchor x="493.46715328467155" y="549.9343065693431" name="center"/>
  <anchor x="517.1386861313869" y="20.0" name="ogonek"/>
  <anchor x="584.3284671532847" y="1110.0" name="top"/>
  <anchor x="700.2992700729927" y="1092.3722627737227" name="topright"/>
  <outline>
    <contour>
      <point x="573.6350364963504" y="1118.2043795620439" type="curve" smooth="yes"/>
      <point x="282.45985401459853" y="1118.2043795620439"/>
      <point x="68.32116788321167" y="788.2043795620438"/>
      <point x="68.32116788321167" y="435.26277372262774" type="curve" smooth="yes"/>
      <point x="68.32116788321167" y="164.2992700729927"/>
      <point x="185.31386861313868" y="-20.0"/>
      <point x="411.46715328467155" y="-20.0" type="curve" smooth="yes"/>
      <point x="715.7883211678832" y="-20.0"/>
      <point x="918.2773722627737" y="321.1459854014599"/>
      <point x="918.2773722627737" y="666.6131386861314" type="curve" smooth="yes"/>
      <point x="918.2773722627737" y="934.9124087591241"/>
      <point x="798.7737226277372" y="1118.2043795620439"/>
    </contour>
    <contour>
      <point x="552.1605839416059" y="1029.4379562043796" type="curve" smooth="yes"/>
      <point x="692.4890510948906" y="1029.4379562043796"/>
      <point x="760.6131386861314" y="872.0948905109489"/>
      <point x="760.6131386861314" y="671.985401459854" type="curve" smooth="yes"/>
      <point x="760.6131386861314" y="393.4379562043796"/>
      <point x="646.5985401459855" y="67.93430656934306"/>
      <point x="431.75912408759126" y="67.93430656934306" type="curve" smooth="yes"/>
      <point x="303.1459854014599" y="67.93430656934306"/>
      <point x="225.98540145985402" y="211.36496350364965"/>
      <point x="225.98540145985402" y="423.88321167883214" type="curve" smooth="yes"/>
      <point x="225.98540145985402" y="701.9051094890511"/>
      <point x="341.3284671532847" y="1029.4379562043796"/>
    </contour>
  </outline>
</glyph>
<glyph name="p" format="2">
  <advance width="1038.1897810218977"/>
  <unicode hex="0070"/>
  <guideline x="315.5109489051095" y="701.1094890510949" angle="81.56290000000001"/>
  <anchor x="610.2554744525547" y="89.5036496350365" name="tick"/>
  <anchor x="660.2846715328467" y="1110.0" name="top"/>
  <outline>
    <contour>
      <point x="34.59124087591241" y="-507.66423357664235" type="line"/>
      <point x="181.57664233576642" y="-507.66423357664235" type="line"/>
      <point x="248.75912408759123" y="2.0" type="line"/>
      <point x="287.2554744525547" y="-13.664233576642335"/>
      <point x="337.0875912408759" y="-20.0"/>
      <point x="385.24817518248176" y="-20.0" type="curve" smooth="yes"/>
      <point x="734.5474452554745" y="-20.0"/>
      <point x="975.5255474452555" y="346.3138686131387"/>
      <point x="975.5255474452555" y="716.2773722627737" type="curve" smooth="yes"/>
      <point x="975.5255474452555" y="956.0802919708029"/>
      <point x="878.3576642335767" y="1119.3795620437957"/>
      <point x="687.5620437956204" y="1119.3795620437957" type="curve" smooth="yes"/>
      <point x="558.0802919708029" y="1119.3795620437957"/>
      <point x="446.2335766423358" y="1036.021897810219"/>
      <point x="364.26277372262774" y="886.8321167883212" type="curve"/>
      <point x="386.6131386861314" y="1097.3649635036497" type="line"/>
      <point x="350.45255474452557" y="1117.3649635036497" type="line"/>
      <point x="145.75912408759123" y="1074.197080291971" type="line"/>
      <point x="134.27007299270073" y="1010.9197080291971" type="line"/>
      <point x="230.12408759124088" y="968.2773722627737" type="line"/>
    </contour>
    <contour>
      <point x="263.9270072992701" y="117.13868613138686" type="curve"/>
      <point x="351.0875912408759" y="771.6423357664233" type="line"/>
      <point x="412.22627737226276" y="897.0802919708029"/>
      <point x="520.2773722627737" y="1011.9416058394161"/>
      <point x="635.5839416058394" y="1011.9416058394161" type="curve" smooth="yes"/>
      <point x="755.5474452554745" y="1011.9416058394161"/>
      <point x="819.029197080292" y="901.956204379562"/>
      <point x="819.029197080292" y="701.6496350364963" type="curve" smooth="yes"/>
      <point x="819.029197080292" y="403.6204379562044"/>
      <point x="657.8613138686131" y="67.76642335766424"/>
      <point x="394.4014598540146" y="67.76642335766424" type="curve" smooth="yes"/>
      <point x="340.2116788321168" y="67.76642335766424"/>
      <point x="300.22627737226276" y="83.78832116788321"/>
    </contour>
  </outline>
</glyph>
<glyph name="q" format="2">
  <advance width="1020.029197080292"/>
  <unicode hex="0071"/>
  <anchor x="427.9124087591241" y="1580.0" name="cr"/>
  <anchor x="624.5036496350365" y="1206.5255474452554" name="top"/>
  <outline>
    <contour>
      <point x="735.3868613138686" y="-354.17518248175185" type="curve" smooth="yes"/>
      <point x="944.5620437956204" y="1116.5328467153286" type="line"/>
      <point x="840.8978102189781" y="1074.036496350365" type="line"/>
      <point x="788.2408759124088" y="1103.7080291970804"/>
      <point x="731.0875912408759" y="1119.036496350365"/>
      <point x="654.4379562043796" y="1119.036496350365" type="curve" smooth="yes"/>
      <point x="286.5036496350365" y="1119.036496350365"/>
      <point x="65.48175182481752" y="717.1532846715329"/>
      <point x="65.48175182481752" y="388.3941605839416" type="curve" smooth="yes"/>
      <point x="65.48175182481752" y="142.64963503649636"/>
      <point x="160.8175182481752" y="-20.16788321167883"/>
      <point x="363.75912408759126" y="-20.16788321167883" type="curve" smooth="yes"/>
      <point x="471.75182481751824" y="-20.16788321167883"/>
      <point x="596.2627737226277" y="62.01459854014598"/>
      <point x="670.9197080291971" y="203.8905109489051" type="curve"/>
      <point x="584.5766423357665" y="-383.1094890510949" type="line" smooth="yes"/>
      <point x="571.7372262773723" y="-471.13868613138686"/>
      <point x="605.2262773722628" y="-512.6569343065694"/>
      <point x="681.0802919708029" y="-512.6569343065694" type="curve" smooth="yes"/>
      <point x="787.043795620438" y="-512.6569343065694"/>
      <point x="865.6861313868613" y="-424.54744525547443"/>
      <point x="884.051094890511" y="-396.33576642335765" type="curve"/>
      <point x="861.2262773722628" y="-353.021897810219" type="line"/>
      <point x="823.8978102189781" y="-393.6861313868613"/>
      <point x="789.2262773722628" y="-409.6934306569343"/>
      <point x="768.5547445255474" y="-409.6934306569343" type="curve" smooth="yes"/>
      <point x="741.051094890511" y="-409.6934306569343"/>
      <point x="730.051094890511" y="-392.51824817518246"/>
    </contour>
    <contour>
      <point x="779.5766423357665" y="980.5766423357665" type="curve"/>
      <point x="688.2554744525547" y="330.9051094890511" type="line"/>
      <point x="627.4452554744526" y="191.97810218978103"/>
      <point x="503.0875912408759" y="87.1021897810219"/>
      <point x="401.91970802919707" y="87.1021897810219" type="curve" smooth="yes"/>
      <point x="294.6131386861314" y="87.1021897810219"/>
      <point x="220.97810218978103" y="188.27007299270073"/>
      <point x="220.97810218978103" y="395.8759124087591" type="curve" smooth="yes"/>
      <point x="220.97810218978103" y="661.1678832116788"/>
      <point x="363.6861313868613" y="1028.941605839416"/>
      <point x="647.7737226277372" y="1030.6058394160584" type="curve" smooth="yes"/>
      <point x="701.4233576642335" y="1030.6058394160584"/>
      <point x="751.9343065693431" y="1010.7664233576643"/>
    </contour>
  </outline>
</glyph>
<glyph name="r" format="2">
  <advance width="712.3649635036496"/>
  <unicode hex="0072"/>
  <anchor x="178.95620437956205" y="0.0" name="bottom"/>
  <anchor x="473.59124087591243" y="1110.0" name="top"/>
  <outline>
    <contour>
      <point x="353.8978102189781" y="806.3211678832117" type="curve"/>
      <point x="367.94160583941607" y="922.0583941605839" type="line"/>
      <point x="387.6131386861314" y="1099.029197080292" type="line"/>
      <point x="351.6204379562044" y="1117.3649635036497" type="line"/>
      <point x="145.9270072992701" y="1074.197080291971" type="line"/>
      <point x="134.43795620437956" y="1010.9197080291971" type="line"/>
      <point x="230.2919708029197" y="968.2773722627737" type="line"/>
      <point x="101.44525547445255" y="0.0" type="line"/>
      <point x="247.93430656934308" y="0.0" type="line"/>
      <point x="336.7445255474453" y="663.5839416058394" type="line"/>
      <point x="391.06569343065695" y="824.5474452554745"/>
      <point x="515.051094890511" y="953.9124087591241"/>
      <point x="632.07299270073" y="953.9124087591241" type="curve" smooth="yes"/>
      <point x="658.4014598540145" y="953.9124087591241"/>
      <point x="683.3941605839416" y="947.4087591240876"/>
      <point x="705.2116788321168" y="936.2408759124088" type="curve"/>
      <point x="741.7153284671533" y="1103.7007299270074" type="line"/>
      <point x="721.5547445255474" y="1111.8686131386862"/>
      <point x="700.5620437956204" y="1116.036496350365"/>
      <point x="677.3868613138686" y="1116.036496350365" type="curve" smooth="yes"/>
      <point x="551.3576642335767" y="1116.036496350365"/>
      <point x="428.88321167883214" y="980.5693430656934"/>
    </contour>
  </outline>
</glyph>
<glyph name="s" format="2">
  <advance width="771.0583941605839"/>
  <unicode hex="0073"/>
  <anchor x="309.985401459854" y="0.0" name="bottom"/>
  <anchor x="486.93430656934305" y="1110.0" name="top"/>
  <outline>
    <contour>
      <point x="685.7226277372263" y="936.6496350364963" type="line"/>
      <point x="716.07299270073" y="1075.043795620438" type="line"/>
      <point x="663.5693430656934" y="1095.8759124087592"/>
      <point x="604.8832116788321" y="1117.8686131386862"/>
      <point x="485.42335766423355" y="1117.8686131386862" type="curve" smooth="yes"/>
      <point x="288.1459854014599" y="1117.8686131386862"/>
      <point x="132.992700729927" y="992.5547445255474"/>
      <point x="132.992700729927" y="803.5766423357665" type="curve" smooth="yes"/>
      <point x="132.992700729927" y="674.3941605839416"/>
      <point x="227.4817518248175" y="583.2481751824818"/>
      <point x="346.4160583941606" y="492.95620437956205" type="curve" smooth="yes"/>
      <point x="443.05839416058393" y="419.2992700729927"/>
      <point x="521.4014598540145" y="357.11678832116786"/>
      <point x="521.4014598540145" y="253.27737226277372" type="curve" smooth="yes"/>
      <point x="521.4014598540145" y="108.82481751824818"/>
      <point x="396.13868613138686" y="66.60583941605839"/>
      <point x="314.2773722627737" y="66.60583941605839" type="curve" smooth="yes"/>
      <point x="207.1094890510949" y="66.60583941605839"/>
      <point x="118.48905109489051" y="132.97080291970804"/>
      <point x="70.34306569343066" y="192.23357664233578" type="curve"/>
      <point x="62.65693430656934" y="192.23357664233578" type="line"/>
      <point x="32.802919708029194" y="52.496350364963504" type="line"/>
      <point x="87.95620437956204" y="11.671532846715328"/>
      <point x="203.77372262773721" y="-20.0"/>
      <point x="300.2846715328467" y="-20.0" type="curve" smooth="yes"/>
      <point x="489.8905109489051" y="-20.0"/>
      <point x="664.7226277372263" y="99.63503649635037"/>
      <point x="664.7226277372263" y="293.978102189781" type="curve" smooth="yes"/>
      <point x="664.7226277372263" y="413.3138686131387"/>
      <point x="594.8832116788321" y="490.4744525547445"/>
      <point x="414.7956204379562" y="628.0875912408759" type="curve" smooth="yes"/>
      <point x="312.985401459854" y="705.4087591240876"/>
      <point x="268.46715328467155" y="769.9124087591241"/>
      <point x="268.46715328467155" y="846.6058394160584" type="curve" smooth="yes"/>
      <point x="268.46715328467155" y="970.2408759124088"/>
      <point x="366.42335766423355" y="1030.5985401459855"/>
      <point x="477.91970802919707" y="1030.5985401459855" type="curve" smooth="yes"/>
      <point x="570.5912408759124" y="1030.5985401459855"/>
      <point x="651.3795620437957" y="977.5693430656934"/>
      <point x="676.0364963503649" y="936.6496350364963" type="curve"/>
    </contour>
  </outline>
</glyph>
<glyph name="t" format="2">
  <advance width="628.3430656934306"/>
  <unicode hex="0074"/>
  <anchor x="249.5036496350365" y="0.0" name="bottom"/>
  <anchor x="617.92700729927" y="1295.5693430656934" name="car"/>
  <anchor x="577.3138686131387" y="1618.6715328467153" name="caron"/>
  <anchor x="239.00147445255476" y="580.0" name="tbar"/>
  <anchor x="396.64233576642334" y="1362.0" name="top"/>
  <outline>
    <contour>
      <point x="293.1240875912409" y="364.7956204379562" type="curve" smooth="yes"/>
      <point x="381.2846715328467" y="984.4014598540145" type="line"/>
      <point x="625.6861313868613" y="984.4014598540145" type="line"/>
      <point x="640.1824817518249" y="1092.3722627737227" type="line"/>
      <point x="396.7810218978102" y="1092.3722627737227" type="line"/>
      <point x="436.2846715328467" y="1367.897810218978" type="line"/>
      <point x="359.6350364963504" y="1367.897810218978" type="line"/>
      <point x="333.13868613138686" y="1286.0729927007299"/>
      <point x="288.45985401459853" y="1134.036496350365"/>
      <point x="253.96350364963504" y="1088.7080291970804" type="curve"/>
      <point x="122.7956204379562" y="1037.5255474452554" type="line"/>
      <point x="113.63503649635037" y="984.4014598540145" type="line"/>
      <point x="235.2992700729927" y="984.4014598540145" type="line"/>
      <point x="143.98540145985402" y="349.7226277372263" type="line" smooth="yes"/>
      <point x="130.82481751824818" y="255.6058394160584"/>
      <point x="121.46715328467154" y="174.2992700729927"/>
      <point x="121.46715328467154" y="139.12408759124088" type="curve" smooth="yes"/>
      <point x="121.46715328467154" y="27.313868613138688"/>
      <point x="182.79562043795622" y="-20.0"/>
      <point x="284.6131386861314" y="-20.0" type="curve" smooth="yes"/>
      <point x="412.6861313868613" y="-20.0"/>
      <point x="509.6788321167883" y="51.10948905109489"/>
      <point x="556.2043795620438" y="119.63503649635037" type="curve"/>
      <point x="535.7153284671533" y="171.77372262773721" type="line"/>
      <point x="469.7299270072993" y="107.62043795620438"/>
      <point x="406.4014598540146" y="84.45985401459853"/>
      <point x="346.93430656934305" y="84.45985401459853" type="curve" smooth="yes"/>
      <point x="294.95620437956205" y="84.45985401459853"/>
      <point x="274.7810218978102" y="111.61313868613139"/>
      <point x="274.7810218978102" y="179.4160583941606" type="curve" smooth="yes"/>
      <point x="274.7810218978102" y="215.57664233576642"/>
      <point x="279.2846715328467" y="267.59124087591243"/>
    </contour>
  </outline>
</glyph>
<glyph name="u" format="2">
  <advance width="1067.4744525547446"/>
  <unicode hex="0075"/>
  <anchor x="479.57664233576645" y="0.0" name="bottom"/>
  <anchor x="891.8905109489051" y="0.0" name="bottomright"/>
  <anchor x="835.7007299270073" y="0.0" name="ogonek"/>
  <anchor x="615.5766423357665" y="1110.0" name="top"/>
  <anchor x="896.1824817518249" y="1102.3576642335765" name="topright"/>
  <outline>
    <contour>
      <point x="357.5255474452555" y="-20.16788321167883" type="curve" smooth="yes"/>
      <point x="490.7226277372263" y="-20.16788321167883"/>
      <point x="600.4233576642335" y="74.45255474452554"/>
      <point x="695.7518248175182" y="225.0875912408759" type="curve"/>
      <point x="698.5839416058394" y="225.0875912408759" type="line"/>
      <point x="693.07299270073" y="186.68613138686132"/>
      <point x="683.3722627737226" y="121.4963503649635"/>
      <point x="683.3722627737226" y="95.48905109489051" type="curve" smooth="yes"/>
      <point x="683.3722627737226" y="26.35036496350365"/>
      <point x="708.6934306569343" y="-20.16788321167883"/>
      <point x="782.7080291970804" y="-20.16788321167883" type="curve" smooth="yes"/>
      <point x="868.8759124087592" y="-20.16788321167883"/>
      <point x="947.1897810218978" y="41.32846715328467"/>
      <point x="983.5182481751825" y="98.99270072992701" type="curve"/>
      <point x="957.3649635036496" y="140.64233576642334" type="line"/>
      <point x="911.3795620437957" y="92.97810218978103"/>
      <point x="885.0364963503649" y="82.96350364963504"/>
      <point x="867.8540145985402" y="82.96350364963504" type="curve" smooth="yes"/>
      <point x="836.6861313868613" y="82.96350364963504"/>
      <point x="826.6934306569343" y="110.8029197080292"/>
      <point x="834.1897810218978" y="161.12408759124088" type="curve" smooth="yes"/>
      <point x="972.6788321167883" y="1104.021897810219" type="line"/>
      <point x="829.8540145985402" y="1104.021897810219" type="line"/>
      <point x="713.7518248175182" y="339.77372262773724" type="line"/>
      <point x="644.5547445255474" y="210.8978102189781"/>
      <point x="527.5182481751825" y="91.13138686131387"/>
      <point x="403.036496350365" y="91.13138686131387" type="curve" smooth="yes"/>
      <point x="347.7080291970803" y="91.13138686131387"/>
      <point x="280.93430656934305" y="123.47445255474453"/>
      <point x="280.93430656934305" y="245.07299270072994" type="curve" smooth="yes"/>
      <point x="280.93430656934305" y="333.35766423357666"/>
      <point x="299.1240875912409" y="467.3284671532847"/>
      <point x="314.45255474452557" y="576.6131386861314" type="curve" smooth="yes"/>
      <point x="388.11678832116786" y="1097.3649635036497" type="line"/>
      <point x="352.1240875912409" y="1117.3649635036497" type="line"/>
      <point x="139.1094890510949" y="1074.197080291971" type="line"/>
      <point x="127.62043795620438" y="1010.9197080291971" type="line"/>
      <point x="223.47445255474452" y="968.2773722627737" type="line"/>
      <point x="168.63503649635035" y="586.2919708029198" type="line" smooth="yes"/>
      <point x="153.63503649635035" y="482.4744525547445"/>
      <point x="130.61313868613138" y="318.021897810219"/>
      <point x="130.61313868613138" y="241.54744525547446" type="curve" smooth="yes"/>
      <point x="130.61313868613138" y="42.0"/>
      <point x="229.56204379562044" y="-20.16788321167883"/>
    </contour>
  </outline>
</glyph>
<glyph name="v" format="2">
  <advance width="933.948905109489"/>
  <unicode hex="0076"/>
  <anchor x="527.9051094890511" y="1110.0" name="top"/>
  <outline>
    <contour>
      <point x="152.2919708029197" y="940.3941605839416" type="curve" smooth="yes"/>
      <point x="226.1021897810219" y="445.6934306569343" type="line"/>
      <point x="296.22627737226276" y="-20.0" type="line"/>
      <point x="408.55474452554745" y="-7.8321167883211675" type="line"/>
      <point x="617.6642335766423" y="280.0875912408759" type="line" smooth="yes"/>
      <point x="772.4306569343066" y="492.7226277372263"/>
      <point x="897.4963503649635" y="751.956204379562"/>
      <point x="897.4963503649635" y="933.3941605839416" type="curve" smooth="yes"/>
      <point x="897.4963503649635" y="1042.2189781021898"/>
      <point x="859.8321167883212" y="1117.7153284671533"/>
      <point x="789.6642335766423" y="1117.7153284671533" type="curve" smooth="yes"/>
      <point x="747.5182481751825" y="1117.7153284671533"/>
      <point x="713.3430656934306" y="1090.2189781021898"/>
      <point x="713.3430656934306" y="1032.7299270072992" type="curve" smooth="yes"/>
      <point x="713.3430656934306" y="984.8540145985402"/>
      <point x="753.2262773722628" y="941.0656934306569"/>
      <point x="753.2262773722628" y="851.8540145985402" type="curve" smooth="yes"/>
      <point x="753.2262773722628" y="674.7445255474453"/>
      <point x="674.2116788321168" y="512.8905109489051"/>
      <point x="536.0364963503649" y="309.2189781021898" type="curve" smooth="yes"/>
      <point x="362.91970802919707" y="52.63503649635037" type="line"/>
      <point x="417.5620437956204" y="57.306569343065696" type="line"/>
      <point x="366.75912408759126" y="481.4963503649635" type="line"/>
      <point x="308.4379562043796" y="974.0656934306569" type="line" smooth="yes"/>
      <point x="298.1094890510949" y="1063.5474452554745"/>
      <point x="277.77372262773724" y="1117.7153284671533"/>
      <point x="191.78832116788323" y="1117.7153284671533" type="curve" smooth="yes"/>
      <point x="127.2992700729927" y="1117.7153284671533"/>
      <point x="54.96350364963504" y="1070.8832116788321"/>
      <point x="12.313868613138686" y="1015.7372262773723" type="curve"/>
      <point x="33.97080291970803" y="973.4233576642335" type="line"/>
      <point x="55.2992700729927" y="992.0875912408759"/>
      <point x="81.62773722627738" y="1010.7445255474453"/>
      <point x="104.12408759124088" y="1010.7445255474453" type="curve" smooth="yes"/>
      <point x="132.2919708029197" y="1010.7445255474453"/>
      <point x="145.2919708029197" y="988.2481751824818"/>
    </contour>
  </outline>
</glyph>
<glyph name="w" format="2">
  <advance width="1502.5401459854015"/>
  <unicode hex="0077"/>
  <guideline x="696.5766423357665" y="128.45985401459853" angle="0.0"/>
  <anchor x="847.9854014598541" y="1110.0" name="top"/>
  <outline>
    <contour>
      <point x="287.8978102189781" y="-20.0" type="line"/>
      <point x="432.86861313868616" y="-8.167883211678832" type="line"/>
      <point x="598.1897810218978" y="382.6350364963504" type="line"/>
      <point x="774.1751824817518" y="798.7664233576643" type="line"/>
      <point x="819.3284671532847" y="928.5547445255474" type="line"/>
      <point x="824.1532846715329" y="800.7664233576643" type="line"/>
      <point x="847.978102189781" y="361.7956204379562" type="line"/>
      <point x="868.970802919708" y="-18.0" type="line"/>
      <point x="995.1021897810219" y="-8.167883211678832" type="line"/>
      <point x="1173.036496350365" y="259.22627737226276" type="line" smooth="yes"/>
      <point x="1347.3065693430658" y="520.8686131386861"/>
      <point x="1463.5474452554745" y="753.7883211678832"/>
      <point x="1463.5474452554745" y="927.9051094890511" type="curve" smooth="yes"/>
      <point x="1463.5474452554745" y="1049.043795620438"/>
      <point x="1424.058394160584" y="1117.5474452554745"/>
      <point x="1359.3941605839416" y="1117.5474452554745" type="curve" smooth="yes"/>
      <point x="1315.4087591240875" y="1117.5474452554745"/>
      <point x="1281.2335766423357" y="1088.2189781021898"/>
      <point x="1281.2335766423357" y="1032.2262773722628" type="curve" smooth="yes"/>
      <point x="1281.2335766423357" y="979.5328467153284"/>
      <point x="1319.941605839416" y="938.2335766423357"/>
      <point x="1319.941605839416" y="849.7226277372263" type="curve" smooth="yes"/>
      <point x="1319.941605839416" y="703.6423357664233"/>
      <point x="1278.3138686131388" y="584.2992700729927"/>
      <point x="1104.14598540146" y="303.8029197080292" type="curve" smooth="yes"/>
      <point x="945.6642335766423" y="48.503649635036496" type="line"/>
      <point x="989.8029197080292" y="53.51824817518248" type="line"/>
      <point x="969.3138686131387" y="395.77372262773724" type="line"/>
      <point x="927.0" y="1109.5474452554745" type="line"/>
      <point x="791.5693430656934" y="1109.5474452554745" type="line"/>
      <point x="514.5766423357665" y="410.4379562043796" type="line"/>
      <point x="372.59124087591243" y="50.99270072992701" type="line"/>
      <point x="402.0729927007299" y="48.98540145985402" type="line"/>
      <point x="368.5985401459854" y="430.0729927007299" type="line"/>
      <point x="321.62773722627736" y="973.8978102189781" type="line" smooth="yes"/>
      <point x="313.46715328467155" y="1068.5401459854015"/>
      <point x="290.46715328467155" y="1117.7153284671533"/>
      <point x="205.31386861313868" y="1117.7153284671533" type="curve" smooth="yes"/>
      <point x="130.0" y="1117.7153284671533"/>
      <point x="59.832116788321166" y="1057.4014598540145"/>
      <point x="27.335766423357665" y="1015.5693430656934" type="curve"/>
      <point x="48.99270072992701" y="973.2554744525547" type="line"/>
      <point x="70.32116788321167" y="991.9197080291971"/>
      <point x="95.31386861313868" y="1010.7445255474453"/>
      <point x="120.14598540145985" y="1010.7445255474453" type="curve" smooth="yes"/>
      <point x="147.4817518248175" y="1010.7445255474453"/>
      <point x="161.64963503649636" y="988.0802919708029"/>
      <point x="168.31386861313868" y="935.2189781021898" type="curve" smooth="yes"/>
      <point x="235.27007299270073" y="402.2554744525547" type="line"/>
    </contour>
  </outline>
</glyph>
<glyph name="x" format="2">
  <advance width="941.5474452554745"/>
  <unicode hex="0078"/>
  <anchor x="784.7445255474453" y="0.0" name="bottomright"/>
  <anchor x="465.7883211678832" y="547.2700729927008" name="center"/>
  <anchor x="570.4817518248175" y="1206.5255474452554" name="top"/>
  <outline>
    <contour>
      <point x="672.5912408759124" y="-18.99270072992701" type="curve" smooth="yes"/>
      <point x="755.9051094890511" y="-18.99270072992701"/>
      <point x="832.7226277372263" y="28.343065693430656"/>
      <point x="881.2043795620438" y="104.16058394160584" type="curve"/>
      <point x="854.8832116788321" y="147.64233576642334" type="line"/>
      <point x="832.7226277372263" y="118.14598540145985"/>
      <point x="794.5620437956204" y="90.13868613138686"/>
      <point x="756.7445255474453" y="90.13868613138686" type="curve" smooth="yes"/>
      <point x="726.92700729927" y="90.13868613138686"/>
      <point x="714.92700729927" y="105.46715328467154"/>
      <point x="697.92700729927" y="146.97080291970804" type="curve" smooth="yes"/>
      <point x="510.45985401459853" y="610.92700729927" type="line"/>
      <point x="493.45985401459853" y="496.1678832116788" type="line"/>
      <point x="939.5985401459855" y="1092.3722627737227" type="line"/>
      <point x="778.2554744525547" y="1092.3722627737227" type="line"/>
      <point x="455.82481751824815" y="600.2189781021898" type="line"/>
      <point x="514.4598540145986" y="595.0948905109489" type="line"/>
      <point x="399.0" y="1008.4890510948906" type="line" smooth="yes"/>
      <point x="379.4890510948905" y="1077.5401459854015"/>
      <point x="349.3284671532847" y="1113.5328467153286"/>
      <point x="290.48175182481754" y="1113.5328467153286" type="curve" smooth="yes"/>
      <point x="175.04379562043795" y="1113.5328467153286"/>
      <point x="98.38686131386861" y="1029.2408759124087"/>
      <point x="82.02919708029196" y="1001.043795620438" type="curve"/>
      <point x="107.35036496350365" y="959.2262773722628" type="line"/>
      <point x="127.51824817518248" y="984.2262773722628"/>
      <point x="163.34306569343065" y="1011.0583941605839"/>
      <point x="197.16788321167883" y="1011.0583941605839" type="curve" smooth="yes"/>
      <point x="231.64963503649636" y="1011.0583941605839"/>
      <point x="243.31386861313868" y="988.7372262773723"/>
      <point x="258.3138686131387" y="951.0656934306569" type="curve" smooth="yes"/>
      <point x="433.11678832116786" y="506.2773722627737" type="line"/>
      <point x="449.7810218978102" y="621.8613138686131" type="line"/>
      <point x="-8.021897810218977" y="0.0" type="line"/>
      <point x="155.992700729927" y="0.0" type="line"/>
      <point x="486.5839416058394" y="514.978102189781" type="line"/>
      <point x="427.45255474452557" y="519.9416058394161" type="line"/>
      <point x="563.0656934306569" y="83.55474452554745" type="line" smooth="yes"/>
      <point x="582.9124087591241" y="18.32846715328467"/>
      <point x="613.0802919708029" y="-18.99270072992701"/>
    </contour>
  </outline>
</glyph>
<glyph name="y" format="2">
  <advance width="962.6423357664233"/>
  <unicode hex="0079"/>
  <anchor x="797.7518248175182" y="0.0" name="bottom"/>
  <anchor x="546.4306569343066" y="1110.0" name="top"/>
  <outline>
    <contour>
      <point x="164.62773722627736" y="935.4014598540145" type="curve" smooth="yes"/>
      <point x="314.22627737226276" y="-73.2992700729927" type="line"/>
      <point x="395.08029197080293" y="-73.2992700729927" type="line"/>
      <point x="292.54744525547443" y="-304.13138686131384"/>
      <point x="196.4014598540146" y="-375.83941605839414"/>
      <point x="109.08029197080292" y="-375.83941605839414" type="curve" smooth="yes"/>
      <point x="41.44525547445255" y="-375.83941605839414"/>
      <point x="-3.7080291970802914" y="-357.6715328467153"/>
      <point x="-39.372262773722625" y="-334.0" type="curve"/>
      <point x="-79.04379562043796" y="-457.8321167883212" type="line"/>
      <point x="-40.372262773722625" y="-479.3430656934307"/>
      <point x="17.1021897810219" y="-495.0"/>
      <point x="75.91970802919708" y="-495.0" type="curve" smooth="yes"/>
      <point x="190.35766423357666" y="-495.0"/>
      <point x="285.33576642335765" y="-419.86131386861314"/>
      <point x="383.2189781021898" y="-263.93430656934305" type="curve" smooth="yes"/>
      <point x="426.2700729927007" y="-194.67883211678833"/>
      <point x="573.5693430656934" y="68.72262773722628"/>
      <point x="706.3065693430657" y="321.55474452554745" type="curve" smooth="yes"/>
      <point x="808.1094890510949" y="516.0145985401459"/>
      <point x="921.3357664233577" y="748.8175182481751"/>
      <point x="921.3357664233577" y="935.7445255474453" type="curve" smooth="yes"/>
      <point x="921.3357664233577" y="1048.2189781021898"/>
      <point x="881.0" y="1117.7153284671533"/>
      <point x="813.5109489051094" y="1117.7153284671533" type="curve" smooth="yes"/>
      <point x="770.8467153284671" y="1117.7153284671533"/>
      <point x="737.1824817518249" y="1090.7080291970804"/>
      <point x="737.1824817518249" y="1034.058394160584" type="curve" smooth="yes"/>
      <point x="737.1824817518249" y="976.2116788321168"/>
      <point x="777.7299270072992" y="939.3868613138686"/>
      <point x="777.7299270072992" y="845.8759124087592" type="curve" smooth="yes"/>
      <point x="777.7299270072992" y="690.2554744525547"/>
      <point x="707.0948905109489" y="536.3065693430657"/>
      <point x="574.5255474452555" y="274.5620437956204" type="curve" smooth="yes"/>
      <point x="424.7299270072993" y="-24.817518248175183" type="line"/>
      <point x="392.75182481751824" y="310.7445255474453" type="line"/>
      <point x="370.1021897810219" y="539.1240875912408"/>
      <point x="342.9270072992701" y="754.4087591240876"/>
      <point x="319.94160583941607" y="972.7153284671533" type="curve" smooth="yes"/>
      <point x="310.6131386861314" y="1064.7153284671533"/>
      <point x="289.44525547445255" y="1117.7153284671533"/>
      <point x="207.44525547445255" y="1117.7153284671533" type="curve" smooth="yes"/>
      <point x="132.46715328467153" y="1117.7153284671533"/>
      <point x="56.13868613138686" y="1064.5474452554745"/>
      <point x="17.64963503649635" y="1009.2408759124088" type="curve"/>
      <point x="40.97080291970803" y="967.7591240875912" type="line"/>
      <point x="74.62773722627738" y="1000.9124087591241"/>
      <point x="102.78832116788321" y="1010.7445255474453"/>
      <point x="121.62043795620438" y="1010.7445255474453" type="curve" smooth="yes"/>
      <point x="146.45985401459853" y="1010.7445255474453"/>
      <point x="156.79562043795622" y="988.4087591240876"/>
    </contour>
  </outline>
</glyph>
<glyph name="z" format="2">
  <advance width="922.1313868613139"/>
  <unicode hex="007A"/>
  <anchor x="419.05839416058393" y="0.0" name="bottom"/>
  <anchor x="566.0948905109489" y="1110.0" name="top"/>
  <outline>
    <contour>
      <point x="734.9051094890511" y="968.5766423357665" type="curve"/>
      <point x="597.4306569343066" y="812.92700729927" type="line"/>
      <point x="-0.029197080291970323" y="16.642335766423358" type="line"/>
      <point x="43.941605839416056" y="-22.16788321167883" type="line"/>
      <point x="71.77372262773723" y="0.9927007299270074"/>
      <point x="91.41605839416059" y="9.985401459854014"/>
      <point x="126.45255474452554" y="9.985401459854014" type="curve" smooth="yes"/>
      <point x="241.4087591240876" y="9.985401459854014"/>
      <point x="495.7956204379562" y="-17.16788321167883"/>
      <point x="637.6642335766423" y="-17.16788321167883" type="curve" smooth="yes"/>
      <point x="684.5036496350365" y="-17.16788321167883"/>
      <point x="715.5036496350365" y="-7.335766423357664"/>
      <point x="731.5036496350365" y="2.4963503649635035" type="curve" smooth="yes"/>
      <point x="787.9854014598541" y="37.48175182481752"/>
      <point x="805.8248175182482" y="192.45985401459853"/>
      <point x="812.6569343065694" y="308.963503649635" type="curve"/>
      <point x="758.8540145985402" y="308.963503649635" type="line"/>
      <point x="741.8467153284671" y="186.12408759124088"/>
      <point x="694.3430656934306" y="119.81751824817518"/>
      <point x="595.6861313868613" y="119.14598540145985" type="curve" smooth="yes"/>
      <point x="558.007299270073" y="118.81021897810218"/>
      <point x="292.54014598540147" y="121.63503649635037"/>
      <point x="190.3941605839416" y="122.13138686131387" type="curve"/>
      <point x="337.6788321167883" y="294.40875912408757" type="line"/>
      <point x="923.4963503649635" y="1076.2262773722628" type="line"/>
      <point x="887.1824817518249" y="1112.3722627737227" type="line"/>
      <point x="858.5255474452555" y="1089.043795620438"/>
      <point x="832.043795620438" y="1085.7153284671533"/>
      <point x="799.5401459854014" y="1085.7153284671533" type="curve" smooth="yes"/>
      <point x="681.0656934306569" y="1085.7153284671533"/>
      <point x="464.45985401459853" y="1110.043795620438"/>
      <point x="301.13868613138686" y="1110.043795620438" type="curve" smooth="yes"/>
      <point x="253.13138686131387" y="1110.043795620438"/>
      <point x="231.13138686131387" y="1101.8759124087592"/>
      <point x="215.2992700729927" y="1090.2116788321168" type="curve" smooth="yes"/>
      <point x="165.8175182481752" y="1052.7299270072992"/>
      <point x="144.13868613138686" y="864.4306569343066"/>
      <point x="147.3065693430657" y="776.7445255474453" type="curve"/>
      <point x="202.77372262773721" y="776.7445255474453" type="line"/>
      <point x="210.1167883211679" y="872.9124087591241"/>
      <point x="249.76642335766422" y="961.2408759124088"/>
      <point x="311.66423357664235" y="970.2335766423357" type="curve" smooth="yes"/>
      <point x="363.4963503649635" y="978.8905109489051"/>
      <point x="661.2481751824818" y="970.07299270073"/>
    </contour>
  </outline>
</glyph>
<glyph name="braceleft" format="2">
  <advance width="930.6861313868613"/>
  <unicode hex="007B"/>
  <outline>
    <contour>
      <point x="465.11678832116786" y="-296.5839416058394" type="curve" smooth="yes"/>
      <point x="526.9416058394161" y="-296.5839416058394"/>
      <point x="582.2846715328467" y="-282.5839416058394"/>
      <point x="650.7664233576643" y="-262.5839416058394" type="curve"/>
      <point x="661.92700729927" y="-188.45985401459853" type="line"/>
      <point x="648.92700729927" y="-192.45985401459853"/>
      <point x="557.6204379562043" y="-196.45985401459853"/>
      <point x="541.7883211678832" y="-196.45985401459853" type="curve" smooth="yes"/>
      <point x="430.64233576642334" y="-196.45985401459853"/>
      <point x="327.64233576642334" y="-164.62773722627736"/>
      <point x="350.1459854014599" y="-18.583941605839417" type="curve" smooth="yes"/>
      <point x="369.978102189781" y="111.41605839416059"/>
      <point x="434.8321167883212" y="339.18978102189783"/>
      <point x="457.992700729927" y="480.6715328467153" type="curve" smooth="yes"/>
      <point x="478.6569343065693" y="608.1678832116788"/>
      <point x="374.18978102189783" y="676.6715328467153"/>
      <point x="258.5109489051095" y="695.5109489051094" type="curve"/>
      <point x="380.35766423357666" y="716.3503649635037"/>
      <point x="499.66423357664235" y="774.1824817518249"/>
      <point x="519.4963503649635" y="902.3503649635037" type="curve" smooth="yes"/>
      <point x="541.8248175182482" y="1043.8321167883212"/>
      <point x="521.4890510948906" y="1270.963503649635"/>
      <point x="542.985401459854" y="1400.963503649635" type="curve" smooth="yes"/>
      <point x="566.4890510948906" y="1543.007299270073"/>
      <point x="680.8248175182482" y="1576.8394160583941"/>
      <point x="789.1386861313869" y="1576.8394160583941" type="curve" smooth="yes"/>
      <point x="801.8029197080292" y="1576.8394160583941"/>
      <point x="895.4452554744526" y="1574.8394160583941"/>
      <point x="907.2773722627737" y="1570.8394160583941" type="curve"/>
      <point x="919.1021897810219" y="1644.963503649635" type="line"/>
      <point x="857.1094890510949" y="1664.963503649635"/>
      <point x="808.1240875912408" y="1676.963503649635"/>
      <point x="745.6277372262774" y="1676.963503649635" type="curve" smooth="yes"/>
      <point x="542.6861313868613" y="1676.963503649635"/>
      <point x="432.8540145985401" y="1590.963503649635"/>
      <point x="407.18978102189783" y="1428.963503649635" type="curve" smooth="yes"/>
      <point x="377.35766423357666" y="1242.963503649635"/>
      <point x="437.3649635036496" y="1063.5109489051094"/>
      <point x="412.86861313868616" y="911.5109489051094" type="curve" smooth="yes"/>
      <point x="396.53284671532845" y="810.8102189781022"/>
      <point x="341.007299270073" y="762.7956204379562"/>
      <point x="132.35036496350364" y="764.7956204379562" type="curve"/>
      <point x="112.53284671532846" y="637.8905109489051" type="line"/>
      <point x="322.18978102189783" y="639.8905109489051"/>
      <point x="365.036496350365" y="574.8832116788321"/>
      <point x="349.53284671532845" y="473.5109489051095" type="curve" smooth="yes"/>
      <point x="325.53284671532845" y="321.5109489051095"/>
      <point x="235.67883211678833" y="139.4160583941606"/>
      <point x="207.01459854014598" y="-48.583941605839414" type="curve" smooth="yes"/>
      <point x="182.1824817518248" y="-208.5839416058394"/>
      <point x="263.18978102189783" y="-296.5839416058394"/>
    </contour>
  </outline>
</glyph>
<glyph name="bar" format="2">
  <advance width="803.7591240875912"/>
  <unicode hex="007C"/>
  <outline>
    <contour>
      <point x="364.83941605839414" y="1738.0" type="line"/>
      <point x="364.83941605839414" y="-182.0" type="line"/>
      <point x="486.45985401459853" y="-182.0" type="line"/>
      <point x="486.45985401459853" y="1738.0" type="line"/>
    </contour>
  </outline>
</glyph>
<glyph name="asciitilde" format="2">
  <advance width="1113.1824817518248"/>
  <unicode hex="007E"/>
  <outline>
    <contour>
      <point x="174.65693430656935" y="608.2262773722628" type="curve"/>
      <point x="222.3065693430657" y="545.4014598540145" type="line"/>
      <point x="265.83941605839414" y="634.7372262773723"/>
      <point x="330.45985401459853" y="672.9197080291971"/>
      <point x="403.4890510948905" y="672.9197080291971" type="curve" smooth="yes"/>
      <point x="529.1897810218978" y="672.9197080291971"/>
      <point x="560.1970802919708" y="494.8759124087591"/>
      <point x="716.2335766423357" y="494.8759124087591" type="curve" smooth="yes"/>
      <point x="837.5547445255474" y="494.8759124087591"/>
      <point x="942.1970802919708" y="583.1678832116788"/>
      <point x="966.051094890511" y="686.4963503649635" type="curve"/>
      <point x="914.8978102189781" y="749.6642335766423" type="line"/>
      <point x="876.3649635036496" y="665.4817518248175"/>
      <point x="817.7372262773723" y="622.3065693430657"/>
      <point x="741.5474452554745" y="622.3065693430657" type="curve" smooth="yes"/>
      <point x="617.3430656934306" y="622.3065693430657"/>
      <point x="583.007299270073" y="798.6861313868613"/>
      <point x="430.46715328467155" y="798.6861313868613" type="curve" smooth="yes"/>
      <point x="308.3138686131387" y="798.6861313868613"/>
      <point x="200.007299270073" y="704.5693430656934"/>
    </contour>
  </outline>
</glyph>
<glyph name="cent" format="2">
  <advance width="947.9051094890511"/>
  <unicode hex="00A2"/>
  <outline>
    <contour>
      <point x="318.2992700729927" y="-236.33576642335765" type="line"/>
      <point x="422.42335766423355" y="-236.33576642335765" type="line"/>
      <point x="469.75912408759126" y="-18.16788321167883" type="line"/>
      <point x="615.4087591240876" y="-3.0072992700729926"/>
      <point x="712.2408759124088" y="89.44525547445255"/>
      <point x="757.2700729927008" y="149.4963503649635" type="curve"/>
      <point x="727.956204379562" y="211.62773722627736" type="line"/>
      <point x="658.4379562043796" y="142.5839416058394"/>
      <point x="583.0802919708029" y="86.77372262773723"/>
      <point x="489.94890510948903" y="86.77372262773723" type="curve" smooth="yes"/>
      <point x="363.81021897810217" y="86.77372262773723"/>
      <point x="291.7956204379562" y="183.5839416058394"/>
      <point x="291.7956204379562" y="423.75182481751824" type="curve" smooth="yes"/>
      <point x="291.7956204379562" y="750.8978102189781"/>
      <point x="430.84671532846716" y="1013.8029197080292"/>
      <point x="615.5036496350365" y="1013.8029197080292" type="curve" smooth="yes"/>
      <point x="691.992700729927" y="1013.8029197080292"/>
      <point x="746.6058394160584" y="972.1532846715329"/>
      <point x="779.6204379562043" y="887.0" type="curve"/>
      <point x="819.0948905109489" y="885.3357664233577" type="line"/>
      <point x="865.1021897810219" y="1054.065693430657" type="line"/>
      <point x="822.7664233576643" y="1079.4014598540145"/>
      <point x="733.8102189781022" y="1114.3722627737227"/>
      <point x="675.1386861313869" y="1116.5401459854015" type="curve"/>
      <point x="728.978102189781" y="1350.5693430656934" type="line"/>
      <point x="624.021897810219" y="1350.5693430656934" type="line"/>
      <point x="570.3503649635037" y="1109.5474452554745" type="line"/>
      <point x="292.02919708029196" y="1050.087591240876"/>
      <point x="130.97080291970804" y="690.2919708029198"/>
      <point x="130.97080291970804" y="391.44525547445255" type="curve" smooth="yes"/>
      <point x="130.97080291970804" y="160.64233576642334"/>
      <point x="225.45985401459853" y="14.145985401459853"/>
      <point x="367.2992700729927" y="-13.175182481751825" type="curve"/>
    </contour>
  </outline>
</glyph>
<glyph name="sterling" format="2">
  <advance width="1243.1824817518248"/>
  <unicode hex="00A3"/>
  <outline>
    <contour>
      <point x="721.2116788321168" y="-22.32116788321168" type="curve" smooth="yes"/>
      <point x="1011.0948905109489" y="-22.32116788321168"/>
      <point x="1121.7007299270074" y="166.992700729927"/>
      <point x="1124.197080291971" y="324.7153284671533" type="curve" smooth="yes"/>
      <point x="1125.8613138686133" y="433.3284671532847"/>
      <point x="1078.5620437956204" y="518.2627737226277"/>
      <point x="1015.2846715328467" y="575.8832116788321" type="curve"/>
      <point x="901.0656934306569" y="488.5109489051095" type="line"/>
      <point x="939.9051094890511" y="448.33576642335765"/>
      <point x="970.2116788321168" y="387.5109489051095"/>
      <point x="970.2116788321168" y="305.54744525547443" type="curve" smooth="yes"/>
      <point x="970.2116788321168" y="162.87591240875912"/>
      <point x="881.5620437956204" y="67.82481751824818"/>
      <point x="708.5766423357665" y="67.82481751824818" type="curve" smooth="yes"/>
      <point x="555.6058394160584" y="67.82481751824818"/>
      <point x="445.3868613138686" y="141.5109489051095"/>
      <point x="337.3430656934307" y="166.32846715328466" type="curve"/>
      <point x="411.6350364963504" y="283.8978102189781"/>
      <point x="451.1678832116788" y="395.26277372262774"/>
      <point x="488.15328467153284" y="613.3941605839416" type="curve" smooth="yes"/>
      <point x="494.992700729927" y="654.948905109489"/>
      <point x="501.0" y="697.3357664233577"/>
      <point x="507.83941605839414" y="738.8905109489051" type="curve"/>
      <point x="791.0" y="738.8905109489051" type="line"/>
      <point x="803.3284671532847" y="838.5109489051094" type="line"/>
      <point x="526.992700729927" y="838.5109489051094" type="line"/>
      <point x="535.3284671532847" y="888.5328467153284"/>
      <point x="542.8321167883212" y="937.5547445255474"/>
      <point x="551.1678832116788" y="987.5766423357665" type="curve" smooth="yes"/>
      <point x="605.0" y="1318.5912408759125"/>
      <point x="702.5474452554745" y="1407.065693430657"/>
      <point x="819.021897810219" y="1407.065693430657" type="curve" smooth="yes"/>
      <point x="925.1678832116788" y="1407.065693430657"/>
      <point x="998.6423357664233" y="1332.7518248175184"/>
      <point x="1016.4963503649635" y="1296.6934306569342" type="curve"/>
      <point x="1100.7007299270074" y="1427.1386861313867" type="line"/>
      <point x="1047.7153284671533" y="1484.4598540145985"/>
      <point x="978.3722627737226" y="1508.6569343065694"/>
      <point x="896.1678832116788" y="1508.6569343065694" type="curve" smooth="yes"/>
      <point x="623.07299270073" y="1508.6569343065694"/>
      <point x="446.1824817518248" y="1254.0802919708028"/>
      <point x="402.3430656934307" y="977.1970802919708" type="curve" smooth="yes"/>
      <point x="400.17518248175185" y="961.5255474452555"/>
      <point x="387.007299270073" y="878.8394160583941"/>
      <point x="381.007299270073" y="838.5109489051094" type="curve"/>
      <point x="214.5036496350365" y="838.5109489051094" type="line"/>
      <point x="200.5109489051095" y="738.8905109489051" type="line"/>
      <point x="364.35036496350364" y="738.8905109489051" type="line"/>
      <point x="346.5036496350365" y="628.6204379562043"/>
      <point x="335.5109489051095" y="545.8467153284671"/>
      <point x="323.6861313868613" y="479.22627737226276" type="curve" smooth="yes"/>
      <point x="305.84671532846716" y="375.014598540146"/>
      <point x="276.1678832116788" y="243.64963503649636"/>
      <point x="243.1824817518248" y="191.13868613138686" type="curve"/>
      <point x="99.22627737226277" y="191.64233576642334"/>
      <point x="31.175182481751825" y="122.4963503649635"/>
      <point x="31.175182481751825" y="61.32846715328467" type="curve" smooth="yes"/>
      <point x="31.175182481751825" y="17.51094890510949"/>
      <point x="64.83941605839416" y="-0.8321167883211679"/>
      <point x="108.34306569343066" y="-0.8321167883211679" type="curve" smooth="yes"/>
      <point x="178.5036496350365" y="-0.8321167883211679"/>
      <point x="244.83211678832117" y="45.67883211678832"/>
      <point x="278.6934306569343" y="96.52554744525547" type="curve"/>
      <point x="396.4014598540146" y="60.40875912408759"/>
      <point x="534.0583941605839" y="-22.32116788321168"/>
    </contour>
  </outline>
</glyph>
